<svg width="15" height="13" viewBox="0 0 15 13" fill="none" xmlns="http://www.w3.org/2000/svg">
<path fill-rule="evenodd" clip-rule="evenodd" d="M10.5682 3.055C10.5682 3.16284 10.4737 3.25 10.3566 3.25H4.64348C4.52668 3.25 4.43188 3.16284 4.43188 3.055V1.69C4.43188 1.47472 4.62148 1.3 4.85508 1.3H10.1451C10.3787 1.3 10.5682 1.47472 10.5682 1.69V3.055ZM9.36748 7.475H5.6323C5.34573 7.475 5.11353 7.25679 5.11353 6.9875C5.11353 6.7182 5.34573 6.5 5.6323 6.5H9.36748C9.65405 6.5 9.88625 6.7182 9.88625 6.9875C9.88625 7.25679 9.65405 7.475 9.36748 7.475ZM13.3099 3.30159H12.0423C11.9256 3.30159 11.831 3.20935 11.831 3.09524V1.44444C11.831 0.646698 11.1689 0 10.3521 0H4.64789C3.83134 0 3.16901 0.646698 3.16901 1.44444V3.09524C3.16901 3.20935 3.07458 3.30159 2.95775 3.30159H1.69014C0.756761 3.30159 0 4.04073 0 4.95238V11.3492C0 12.2609 0.756761 13 1.69014 13H13.3099C14.2435 13 15 12.2609 15 11.3492V4.95238C15 4.04073 14.2435 3.30159 13.3099 3.30159Z" fill="#FF7A59"/>
</svg>
