<?xml version="1.0" encoding="UTF-8"?>
<svg width="29px" height="29px" viewBox="0 0 29 29" version="1.1" xmlns="http://www.w3.org/2000/svg" xmlns:xlink="http://www.w3.org/1999/xlink">
    <!-- Generator: Sketch 51.1 (57501) - http://www.bohemiancoding.com/sketch -->
    <title>bitcoin_dark</title>
    <desc>Created with Sketch.</desc>
    <defs></defs>
    <g id="bitcoin_dark" stroke="none" stroke-width="1" fill="none" fill-rule="evenodd">
        <path d="M19.1038142,12.2109477 C18.5545111,14.4620362 15.1617135,13.3180776 14.0611333,13.0375744 L15.0314206,9.05907062 C16.131754,9.33957381 19.6765601,9.86299477 19.1038142,12.2109477 M18.5019498,18.6312418 C17.8986048,21.1060771 13.8230032,19.7681374 12.5008264,19.4323912 L13.571301,15.0459974 C14.8927376,15.3827526 19.1309585,16.0502089 18.5019498,18.6312418 M22.9555982,12.2465151 C23.3092151,9.82944538 21.5088041,8.53060463 19.0473046,7.66386997 L19.8455954,4.39015563 L17.8963839,3.89347328 L17.1188215,7.08091776 C16.6057932,6.9502517 16.079933,6.82715318 15.5565405,6.70531592 L16.3390382,3.49668235 L14.3910606,3 L13.5917827,6.27320984 C13.1675904,6.17432742 12.7512947,6.07695851 12.3468438,5.97404008 L12.348818,5.96395003 L9.66053971,5.27782713 L9.14183575,7.40606938 C9.14183575,7.40606938 10.5881364,7.74484256 10.5575373,7.76603165 C11.3471912,7.96758025 11.4895757,8.50159576 11.4658861,8.92487305 L10.5565502,12.6544051 C10.6108389,12.6687834 10.6811675,12.6887112 10.7591458,12.7209994 C10.6939993,12.7043508 10.6246579,12.686441 10.5533422,12.6687834 L9.2785446,17.892903 C9.18181199,18.138091 8.93677249,18.5061253 8.38500177,18.3663782 C8.40449635,18.3953871 6.96732612,18.0049024 6.96732612,18.0049024 L6,20.2855043 L8.5367634,20.9320238 C9.00833488,21.0528521 9.47151629,21.1789776 9.92655439,21.2985446 L9.12036704,24.6098444 L11.0676044,25.1065267 L11.8663887,21.8305421 C12.3989116,21.9778567 12.9151479,22.1143246 13.4205265,22.2429726 L12.6244566,25.5033176 L14.5739148,26 L15.3808425,22.6952588 C18.7055325,23.3377422 21.2057744,23.0784281 22.257248,20.0052534 C23.1053857,17.5306704 22.2152976,16.1031817 20.4662141,15.172123 C21.7397779,14.8719442 22.699701,14.0152996 22.9555982,12.2465151" id="Fill-4" fill="#FFA959"></path>
    </g>
</svg>