<?xml version="1.0" encoding="utf-8"?>
<!-- Generator: Adobe Illustrator 22.1.0, SVG Export Plug-In . SVG Version: 6.00 Build 0)  -->
<svg version="1.1" id="Layer_1" xmlns="http://www.w3.org/2000/svg" xmlns:xlink="http://www.w3.org/1999/xlink" x="0px" y="0px"
	 viewBox="0 0 30 30" style="enable-background:new 0 0 30 30;" xml:space="preserve">
<style type="text/css">
	.st0{fill:#1C1B1B;fill-opacity:0.5;}
</style>
<path class="st0" d="M15,0C6.7,0,0,6.7,0,15c0,8.3,6.7,15,15,15c8.3,0,15-6.7,15-15C30,6.7,23.3,0,15,0z M18.3,10.2h2.4
	c0.7,0,1.2,0.5,1.2,1.2v1.2c0,0.7-0.5,1.2-1.2,1.2v6c0,1.3-1.1,2.4-2.4,2.4h-6c-1.3,0-2.4-1.1-2.4-2.4v-6c-0.7,0-1.2-0.5-1.2-1.2
	v-1.2c0-0.7,0.5-1.2,1.2-1.2h2.4V9c0-0.7,0.5-1.2,1.2-1.2h3.6c0.7,0,1.2,0.5,1.2,1.2V10.2z M18.3,19.2c0,0.3-0.3,0.6-0.6,0.6
	c-0.3,0-0.6-0.3-0.6-0.6v-3.6c0-0.3,0.3-0.6,0.6-0.6c0.3,0,0.6,0.3,0.6,0.6V19.2z M15.2,19.8c0.3,0,0.6-0.3,0.6-0.6v-3.6
	c0-0.3-0.3-0.6-0.6-0.6s-0.6,0.3-0.6,0.6v3.6C14.6,19.5,14.9,19.8,15.2,19.8z M13.4,10.2h3.6V9h-3.6V10.2z M12.8,19.8
	c0.3,0,0.6-0.3,0.6-0.6v-3.6c0-0.3-0.3-0.6-0.6-0.6c-0.3,0-0.6,0.3-0.6,0.6v3.6C12.2,19.5,12.5,19.8,12.8,19.8z"/>
</svg>
