<svg width="30" height="30" viewBox="0 0 30 30" fill="none" xmlns="http://www.w3.org/2000/svg">
<path fill-rule="evenodd" clip-rule="evenodd" d="M15 0C6.71582 0 0 6.71573 0 15C0 23.2843 6.71582 30 15 30C23.2842 30 30 23.2843 30 15C30 6.71573 23.2842 0 15 0ZM18.2517 10.197H20.6533C21.3164 10.197 21.854 10.7346 21.854 11.3977V12.5985C21.854 13.2616 21.3164 13.7993 20.6533 13.7993V19.803C20.6533 21.1294 19.5781 22.2045 18.2517 22.2045H12.248C10.9219 22.2045 9.84644 21.1294 9.84644 19.803V13.7993C9.18335 13.7993 8.64575 13.2616 8.64575 12.5985V11.3977C8.64575 10.7346 9.18335 10.197 9.84644 10.197H12.248V8.99622C12.248 8.3331 12.7856 7.79547 13.4487 7.79547H17.051C17.7141 7.79547 18.2517 8.3331 18.2517 8.99622V10.197ZM18.2517 19.2026C18.2517 19.5342 17.9829 19.803 17.6514 19.803C17.3198 19.803 17.051 19.5342 17.051 19.2026V15.6004C17.051 15.2688 17.3198 15 17.6514 15C17.9829 15 18.2517 15.2688 18.2517 15.6004V19.2026ZM15.25 19.803C15.5815 19.803 15.8503 19.5342 15.8503 19.2026V15.6004C15.8503 15.2688 15.5815 15 15.25 15C14.9185 15 14.6497 15.2688 14.6497 15.6004V19.2026C14.6497 19.5342 14.9185 19.803 15.25 19.803ZM13.449 10.197H17.0513V8.99622H13.449V10.197ZM12.8484 19.803C13.1799 19.803 13.4487 19.5342 13.4487 19.2026V15.6004C13.4487 15.2688 13.1799 15 12.8484 15C12.5168 15 12.248 15.2688 12.248 15.6004V19.2026C12.248 19.5342 12.5168 19.803 12.8484 19.803Z" fill="#D4172E"/>
</svg>
