<svg width="14" height="20" viewBox="0 0 14 20" fill="none" xmlns="http://www.w3.org/2000/svg">
<path d="M11.6577 8.16216L7.83462 12V1.08108C7.83462 0.486486 7.35 0 6.75769 0C6.16539 0 5.68077 0.486486 5.68077 1.08108V12L1.85769 8.16216C1.42692 7.72973 0.753846 7.72973 0.323077 8.16216C-0.107692 8.59459 -0.107692 9.27027 0.323077 9.7027L5.97692 15.3784C6.21923 15.5946 6.48846 15.6757 6.75769 15.6757C7.02692 15.6757 7.29615 15.5676 7.51154 15.3514L13.1654 9.67568C13.5962 9.24324 13.5962 8.56757 13.1654 8.13513C12.7615 7.72973 12.0885 7.72973 11.6577 8.16216Z" transform="translate(0.242401)" fill="#1C1B1B" fill-opacity="0.5"/>
<path d="M1.07692 2.16216H12.9231C13.5154 2.16216 14 1.67568 14 1.08108C14 0.486486 13.5154 0 12.9231 0H1.07692C0.484615 0 0 0.486486 0 1.08108C0 1.67568 0.484615 2.16216 1.07692 2.16216Z" transform="translate(0 17.8379)" fill="#1C1B1B" fill-opacity="0.5"/>
</svg>
