<svg width="30" height="30" viewBox="0 0 30 30" fill="none" xmlns="http://www.w3.org/2000/svg">
<path fill-rule="evenodd" clip-rule="evenodd" d="M0 15C0 6.71573 6.71582 0 15 0C23.2842 0 30 6.71573 30 15C30 23.2843 23.2842 30 15 30C6.71582 30 0 23.2843 0 15ZM16.5874 10.6198L8.09521 19.1124C8.07031 19.1371 8.0498 19.1655 8.03442 19.1962C8.01196 19.2408 8 19.2905 8 19.3416V22.0954C8 22.2749 8.14551 22.42 8.32471 22.42H11.0789C11.1206 22.42 11.1616 22.412 11.1997 22.3968C11.24 22.3806 11.2771 22.3564 11.3083 22.3249L19.8005 13.8326L16.5874 10.6198ZM19.5713 8.09509L22.3252 10.8493C22.4006 10.9247 22.4312 11.0277 22.417 11.1255C22.4075 11.1924 22.3767 11.2568 22.3252 11.3082L20.2598 13.3736L17.0466 10.1608L19.1125 8.09509C19.1731 8.03409 19.2554 8 19.3418 8C19.4282 8 19.5103 8.03409 19.5713 8.09509Z" fill="#6DD400"/>
</svg>
