<?xml version="1.0" encoding="utf-8"?>
<!-- Generator: Adobe Illustrator 22.1.0, SVG Export Plug-In . SVG Version: 6.00 Build 0)  -->
<svg version="1.1" id="Layer_1" xmlns="http://www.w3.org/2000/svg" xmlns:xlink="http://www.w3.org/1999/xlink" x="0px" y="0px"
	 viewBox="0 0 30 30" style="enable-background:new 0 0 30 30;" xml:space="preserve">
<style type="text/css">
	.st0{fill:#1C1B1B;fill-opacity:0.5;}
</style>
<path class="st0" d="M15,0C6.7,0,0,6.7,0,15c0,8.3,6.7,15,15,15s15-6.7,15-15C30,6.7,23.3,0,15,0z M11.3,22.3
	C11.3,22.4,11.2,22.4,11.3,22.3c-0.1,0.1-0.2,0.1-0.2,0.1H8.3c-0.2,0-0.3-0.1-0.3-0.3v-2.8c0-0.1,0-0.2,0.1-0.2l8.5-8.5l3.2,3.2
	L11.3,22.3z M22.3,11.3l-2.1,2.1L17,10.2l2.1-2.1C19.2,8,19.3,8,19.3,8s0.2,0,0.2,0.1l2.8,2.8C22.5,11,22.5,11.2,22.3,11.3z"/>
</svg>
