<svg width="16" height="16" viewBox="0 0 16 16" fill="none" xmlns="http://www.w3.org/2000/svg">
<path fill-rule="evenodd" clip-rule="evenodd" d="M8 0C3.58857 0 0 3.58857 0 8C0 12.4114 3.58857 16 8 16C12.4114 16 16 12.4114 16 8C16 3.58857 12.4114 0 8 0ZM11.4152 3.99999C11.3226 4.00171 11.2323 4.02628 11.1506 4.07142C11.1506 4.07142 8.27806 5.66742 7.1712 6.28228V6.28342C6.79863 6.49085 6.4912 6.79828 6.28378 7.17085H6.28263C5.66778 8.27771 4.07178 11.1509 4.07178 11.1509C3.91749 11.4257 4.01578 11.7737 4.2912 11.9286C4.46435 12.0257 4.67635 12.0257 4.84949 11.9286C4.84949 11.9286 7.72263 10.3326 8.82949 9.71771V9.71656C9.20206 9.50914 9.50892 9.20171 9.71635 8.82914H9.71749C10.3323 7.72228 11.9283 4.84914 11.9283 4.84914C12.0826 4.57371 11.9832 4.22571 11.7078 4.07199C11.6181 4.02228 11.5175 3.99771 11.4152 3.99999Z" fill="#1C1B1B" fill-opacity="0.35"/>
</svg>
