<svg width="18" height="18" viewBox="0 0 18 18" fill="none" xmlns="http://www.w3.org/2000/svg">
<path fill-rule="evenodd" clip-rule="evenodd" d="M7.41695 12.8148C5.96192 12.8148 4.63019 12.2469 3.5944 11.2346C1.49816 9.1358 1.49816 5.7037 3.5944 3.58025C4.60553 2.5679 5.96192 2 7.41695 2C8.87199 2 10.2037 2.5679 11.2395 3.58025C12.2753 4.59259 12.8179 5.95062 12.8179 7.40741C12.8179 8.8642 12.2509 10.1975 11.2395 11.2346C10.2284 12.2716 8.84733 12.8148 7.41695 12.8148ZM17.7009 16.2963L13.2865 11.8765C15.506 8.98765 15.2841 4.81481 12.6208 2.17284C11.1656 0.716049 9.29152 0 7.39233 0C5.49338 0 3.6191 0.716049 2.16406 2.17284C-0.721354 5.06173 -0.721354 9.75309 2.16406 12.642C3.6191 14.0988 5.49338 14.8148 7.39233 14.8148C8.97068 14.8148 10.549 14.321 11.8561 13.3086L16.2952 17.7037C16.4925 17.9012 16.7391 18 17.0104 18C17.257 18 17.5283 17.9012 17.7256 17.7037C18.0955 17.3333 18.0955 16.6914 17.7009 16.2963Z" fill="#1C1B1B" fill-opacity="0.35"/>
</svg>
