<?xml version="1.0" encoding="UTF-8"?>
<svg width="14px" height="14px" viewBox="0 0 14 14" version="1.1" xmlns="http://www.w3.org/2000/svg" xmlns:xlink="http://www.w3.org/1999/xlink">
    <!-- Generator: Sketch 49.2 (51160) - http://www.bohemiancoding.com/sketch -->
    <title>static_light</title>
    <desc>Created with Sketch.</desc>
    <defs></defs>
    <g id="static_light" stroke="none" stroke-width="1" fill="none" fill-rule="evenodd" opacity="0.5">
        <path d="M11.200056,6.99993 C11.5871579,6.99993 11.9000595,7.31353314 11.9000595,7.699937 L11.9000595,11.899979 C11.9000595,13.0577906 10.9578548,14 9.800049,14 L2.1000105,14 C0.942204711,14 0,13.0577906 0,11.899979 L0,4.199902 C0,3.04209042 0.942204711,2.099881 2.1000105,2.099881 L6.3000315,2.099881 C6.68643343,2.099881 7.000035,2.41348413 7.000035,2.799888 C7.000035,3.18629186 6.68643343,3.499895 6.3000315,3.499895 L2.1000105,3.499895 C1.71430857,3.499895 1.400007,3.81419814 1.400007,4.199902 L1.400007,11.899979 C1.400007,12.2863829 1.71430857,12.599986 2.1000105,12.599986 L9.800049,12.599986 C10.1864509,12.599986 10.5000525,12.2863829 10.5000525,11.899979 L10.5000525,7.699937 C10.5000525,7.31353314 10.8129541,6.99993 11.200056,6.99993 Z M13.9460997,0.432604326 C13.9817999,0.51800518 14,0.60900609 14,0.700007 L14,4.900049 C14,5.28645286 13.6870984,5.600056 13.2999965,5.600056 C12.9128946,5.600056 12.599993,5.28645286 12.599993,4.900049 L12.599993,2.3898239 L6.09486047,8.89498895 C5.95835979,9.03149031 5.7791589,9.100091 5.599958,9.100091 C5.4207571,9.100091 5.24155621,9.03149031 5.10505553,8.89498895 C4.83135416,8.62128621 4.83135416,8.17818178 5.10505553,7.90517905 L11.6101881,1.400014 L9.0999755,1.400014 C8.71287356,1.400014 8.399972,1.08641086 8.399972,0.700007 C8.399972,0.313603136 8.71287356,0 9.0999755,0 L13.2999965,0 C13.390997,0 13.4819974,0.018200182 13.5673978,0.053900539 C13.7388987,0.125301253 13.8746994,0.261102611 13.9460997,0.432604326 Z" id="Combined-Shape" fill="#1C1B1B"></path>
    </g>
</svg>