<svg width="150" height="32" viewBox="0 0 150 32" fill="none" xmlns="http://www.w3.org/2000/svg">
<path fill-rule="evenodd" clip-rule="evenodd" d="M1.04849 10.5949C1.04849 14.0885 2.68502 17.0634 6.57203 17.0634C9.61505 17.0634 11.6224 15.1646 11.6353 12.7848H12.6581V12.823C12.6581 15.6204 10.2672 18 6.57203 18C1.95636 18 0 14.6709 0 10.481V7.55701C0 3.37963 2.04576 0 6.5208 0C10.3949 0 12.543 2.72148 12.543 5.25321V5.29101H11.5202C11.4945 3.2404 9.70446 0.949134 6.5208 0.949134C2.74891 0.949134 1.04849 3.91147 1.04849 7.44305V10.5949Z" transform="translate(42.3046 7)" fill="white"/>
<path fill-rule="evenodd" clip-rule="evenodd" d="M1.01031 6.01588V7.6764C1.01031 10.9717 2.81639 12.7216 5.32973 12.7216C7.80517 12.7216 9.63645 11.0099 9.63645 7.6764V6.01588C9.63645 2.72053 7.80517 0.932373 5.31703 0.932373C2.82909 0.932373 1.01031 2.69504 1.01031 6.01588ZM10.6594 5.91376V7.79143C10.6594 11.5335 8.41142 13.6667 5.31702 13.6667C2.22282 13.6667 0 11.5335 0 7.79143V5.91376C0 2.14579 2.19742 0 5.31702 0C8.38602 0 10.6594 2.19696 10.6594 5.91376Z" transform="translate(58.2938 11.3333)" fill="white"/>
<mask id="mask0" mask-type="alpha" maskUnits="userSpaceOnUse" x="0" y="0" width="150" height="32">
<path fill-rule="evenodd" clip-rule="evenodd" d="M0 32H149.565V0H0V32Z" fill="white"/>
</mask>
<g mask="url(#mask0)">
<path fill-rule="evenodd" clip-rule="evenodd" d="M0.360901 17.3334H1.29269V4.32397H0.360901V17.3334ZM0.826913 0C1.29289 0 1.66554 0.402308 1.66554 0.904954C1.66554 1.40779 1.29289 1.79746 0.826913 1.79746C0.360931 1.79746 0 1.40779 0 0.904954C0 0.402308 0.360931 0 0.826913 0Z" transform="translate(72.9505 7.33325)" fill="white"/>
<path fill-rule="evenodd" clip-rule="evenodd" d="M0 0.215477H1.02901V2.64906H1.08053C1.51765 1.40678 2.8809 0 5.36329 0C8.03827 0 9.99322 1.68559 9.99322 4.75286V13.3333H8.95148V4.87952C8.95148 2.59828 7.58803 0.950726 5.2089 0.950726C2.41812 0.950726 1.02901 3.10531 1.02901 5.33596V13.3333H0V0.215477Z" transform="translate(79.2795 11.6667)" fill="white"/>
<path fill-rule="evenodd" clip-rule="evenodd" d="M1.89324 13.0645C2.05636 14.7685 3.47304 16.2834 6.29399 16.2834C8.77668 16.2834 10.4065 15.0463 10.4065 13.0645C10.4065 11.512 9.45379 10.666 7.43506 10.1361L4.47601 9.34094C2.44486 8.79809 0.526601 7.51048 0.526601 4.88488C0.526601 1.72931 3.30992 0 6.33162 0C9.203 0 12.0616 1.52721 12.1242 4.79662H10.2436C10.0933 3.10499 8.82691 1.71643 6.29399 1.71643C4.04969 1.71643 2.43226 2.81463 2.43226 4.75873C2.43226 6.10942 3.24727 7.0434 4.96498 7.49798L7.86138 8.29312C10.557 9.02519 12.325 10.2243 12.325 12.9384C12.325 16.2707 9.52904 18 6.05581 18C1.61743 18 0.0626496 15.2356 0 13.0645H1.89324Z" transform="translate(92.6039 7)" fill="white"/>
<path fill-rule="evenodd" clip-rule="evenodd" d="M0 0H1.85269V3.32072H4.55003V4.89913H1.85269V13.043C1.85269 14.6718 2.38206 15.0759 4.05868 15.0759C4.28544 15.0759 4.47457 15.0759 4.6635 15.0505V16.5784C4.47457 16.6163 4.03333 16.6667 3.5921 16.6667C0.579866 16.6667 0 15.4801 0 12.9293V0Z" transform="translate(109.592 8.33325)" fill="white"/>
<path fill-rule="evenodd" clip-rule="evenodd" d="M8.14998 9.03958V7.40869H4.63923C2.72092 7.40869 1.90588 8.3316 1.90588 9.62121C1.90588 11.2646 3.24753 12.061 4.72709 12.061C6.68302 12.061 8.14998 10.822 8.14998 9.03958ZM4.28816 13.6667C1.74296 13.6667 0 12.0862 0 9.65898C0 7.37077 1.58003 5.90436 4.57658 5.89145H8.14998V4.46298C8.14998 2.60464 7.07174 1.60566 5.20347 1.60566C3.39805 1.60566 2.40748 2.50334 2.25697 3.90677H0.514006C0.664712 1.60566 2.23194 0 5.27873 0C8.01207 0 9.99322 1.52997 9.99322 4.24805V13.4517H8.20022V11.7323H8.14998C7.52309 12.7944 6.29433 13.6667 4.28816 13.6667Z" transform="translate(117.587 11.3333)" fill="white"/>
<path fill-rule="evenodd" clip-rule="evenodd" d="M0 0H1.85269V3.32072H4.55003V4.89913H1.85269V13.043C1.85269 14.6718 2.38206 15.0759 4.05868 15.0759C4.28525 15.0759 4.47457 15.0759 4.6635 15.0505V16.5784C4.47457 16.6163 4.03333 16.6667 3.5921 16.6667C0.579866 16.6667 0 15.4801 0 12.9293V0Z" transform="translate(131.911 8.33325)" fill="white"/>
<path fill-rule="evenodd" clip-rule="evenodd" d="M5.0471 0C8.17159 0 9.66428 1.8333 9.66428 3.90658H7.90586C7.84265 2.86984 7.17223 1.59295 4.97117 1.59295C3.31412 1.59295 2.08717 2.31382 2.08717 3.72958C2.08717 5.25936 3.76947 5.62606 5.37604 5.9421C7.84265 6.3972 9.99322 7.01678 9.99322 9.62104C9.99322 12.238 7.85537 13.6667 4.84476 13.6667C1.94785 13.6667 0 12.2128 0 9.93708H1.82143C1.99853 11.1506 3.0611 12.0735 4.99642 12.0735C7.10903 12.0735 8.14635 11.0874 8.14635 9.83578C8.14635 8.26845 6.70435 7.96473 4.75612 7.56028C2.26427 7.01678 0.252827 6.2959 0.252827 3.932C0.252827 1.21373 2.52981 0 5.0471 0Z" transform="translate(139.572 11.3333)" fill="white"/>
<path fill-rule="evenodd" clip-rule="evenodd" d="M7.36885 22.725L4.12889 26C1.46575 23.0706 0 19.2404 0 15.2078C0 10.9273 1.63058 6.92199 4.59092 3.92966C6.3745 2.12681 8.5863 0.768596 10.9916 0L11.9919 4.54323C10.4314 5.1037 8.99428 6.02096 7.81962 7.20831C5.77322 9.27701 4.61136 12.0313 4.54871 14.9643C4.48835 17.837 5.4892 20.5907 7.36885 22.725Z" transform="translate(0 0.666748)" fill="#FFB347"/>
<path fill-rule="evenodd" clip-rule="evenodd" d="M3.44512 15.8696L0 0.370303C2.56622 -0.200185 5.27053 -0.110199 7.82465 0.631224C10.4181 1.38438 12.7977 2.79224 14.706 4.70271C16.6596 6.65856 18.069 9.09992 18.7819 11.763C19.4409 14.2278 19.4958 16.8441 18.9413 19.3333L3.44512 15.8696Z" transform="translate(12.325)" fill="#F49132"/>
<path fill-rule="evenodd" clip-rule="evenodd" d="M18.738 9.86559C15.0334 11.9775 10.7439 12.5453 6.65897 11.4656C4.18643 10.811 1.88503 9.56168 0 7.85177L3.27305 4.61964C5.33944 6.43111 8.00145 7.42687 10.7744 7.42553C13.7924 7.4242 16.6303 6.26343 18.7645 4.15568C19.9491 2.98576 20.8652 1.55385 21.4245 0L25.9824 1.00472C24.789 4.73644 22.2189 7.88035 18.738 9.86559Z" transform="translate(4.99658 19.6667)" fill="#F56945"/>
</g>
</svg>
