<svg width="150" height="32" viewBox="0 0 150 32" fill="none" xmlns="http://www.w3.org/2000/svg">
<path fill-rule="evenodd" clip-rule="evenodd" d="M1.0286 10.6828C1.0286 14.2054 2.63408 17.2049 6.44733 17.2049C9.43262 17.2049 11.4019 15.2903 11.4145 12.8908H12.4179V12.9293C12.4179 15.7499 10.0724 18.1493 6.44733 18.1493C1.91924 18.1493 0 14.7925 0 10.5679V7.61968C0 3.40765 2.00694 0 6.39708 0C10.1977 0 12.305 2.74405 12.305 5.29677V5.33488H11.3016C11.2764 3.26727 9.52033 0.957004 6.39708 0.957004C2.69675 0.957004 1.0286 3.9439 1.0286 7.50477V10.6828Z" transform="translate(42.0298 7.16406)" fill="#555555"/>
<path fill-rule="evenodd" clip-rule="evenodd" d="M0.995911 5.88668V7.51153C0.995911 10.7361 2.77624 12.4483 5.25375 12.4483C7.69389 12.4483 9.49906 10.7734 9.49906 7.51153V5.88668C9.49906 2.66211 7.69389 0.912354 5.24123 0.912354C2.78875 0.912354 0.995911 2.63716 0.995911 5.88668ZM10.5075 5.78675V7.62408C10.5075 11.2858 8.29149 13.3731 5.24121 13.3731C2.19113 13.3731 0 11.2858 0 7.62408V5.78675C0 2.0997 2.16609 0 5.24121 0C8.26646 0 10.5075 2.14978 10.5075 5.78675Z" transform="translate(58.2686 11.4626)" fill="#555555"/>
<mask id="mask0" mask-type="alpha" maskUnits="userSpaceOnUse" x="0" y="0" width="150" height="32">
<path fill-rule="evenodd" clip-rule="evenodd" d="M0 32H149.493V0H0V32Z" fill="white"/>
</mask>
<g mask="url(#mask0)">
<path fill-rule="evenodd" clip-rule="evenodd" d="M0.414001 17.6715H1.4828V4.4082H0.414001V17.6715ZM0.948507 0C1.48301 0 1.91045 0.41016 1.91045 0.922617C1.91045 1.43527 1.48301 1.83254 0.948507 1.83254C0.414005 1.83254 0 1.43527 0 0.922617C0 0.41016 0.414005 0 0.948507 0Z" transform="translate(73.0746 7.64185)" fill="#555555"/>
<path fill-rule="evenodd" clip-rule="evenodd" d="M0 0.216121H1.03278V2.65697H1.08449C1.52321 1.41098 2.89146 0 5.38295 0C8.06773 0 10.0299 1.69062 10.0299 4.76705V13.3731H8.98429V4.89408C8.98429 2.60603 7.61584 0.953564 5.22799 0.953564C2.42699 0.953564 1.03278 3.11458 1.03278 5.35189V13.3731H0V0.216121Z" transform="translate(79.2836 11.4626)" fill="#555555"/>
<path fill-rule="evenodd" clip-rule="evenodd" d="M1.90752 13.1729C2.07186 14.8909 3.49923 16.4184 6.34145 16.4184C8.84286 16.4184 10.485 15.1711 10.485 13.1729C10.485 11.6074 9.52507 10.7545 7.49112 10.2201L4.50976 9.41839C2.4633 8.87104 0.530571 7.57276 0.530571 4.92538C0.530571 1.74365 3.33488 0 6.37937 0C9.27239 0 12.1525 1.53987 12.2157 4.83639H10.3208C10.1694 3.13074 8.89347 1.73066 6.34145 1.73066C4.08022 1.73066 2.4506 2.83797 2.4506 4.79819C2.4506 6.16007 3.27176 7.1018 5.00242 7.56015L7.92066 8.36189C10.6366 9.10003 12.4179 10.3091 12.4179 13.0457C12.4179 16.4056 9.6009 18.1493 6.10147 18.1493C1.62963 18.1493 0.063122 15.3619 0 13.1729H1.90752Z" transform="translate(92.6567 6.68652)" fill="#303030"/>
<path fill-rule="evenodd" clip-rule="evenodd" d="M0 0H1.89743V3.33063H4.6599V4.91376H1.89743V13.0819C1.89743 14.7156 2.43958 15.1209 4.15669 15.1209C4.38892 15.1209 4.58262 15.1209 4.77612 15.0955V16.6279C4.58262 16.6659 4.13073 16.7164 3.67884 16.7164C0.593868 16.7164 0 15.5263 0 12.9679V0Z" transform="translate(109.373 8.11938)" fill="#303030"/>
<path fill-rule="evenodd" clip-rule="evenodd" d="M8.17985 9.1614V7.50854H4.65623C2.7309 7.50854 1.91287 8.44389 1.91287 9.75087C1.91287 11.4164 3.25944 12.2235 4.74442 12.2235C6.70752 12.2235 8.17985 10.9679 8.17985 9.1614ZM4.30388 13.8507C1.74935 13.8507 0 12.249 0 9.78908C0 7.47005 1.58582 5.98388 4.59336 5.97081H8.17986V4.5231C8.17986 2.63972 7.09766 1.62728 5.22255 1.62728C3.41051 1.62728 2.4163 2.53706 2.26524 3.95939H0.51589C0.667149 1.62728 2.24012 0 5.29808 0C8.04144 0 10.0299 1.55057 10.0299 4.30526V13.6329H8.23028V11.8903H8.17986C7.55067 12.9667 6.3174 13.8507 4.30388 13.8507Z" transform="translate(117.493 11.4626)" fill="#303030"/>
<path fill-rule="evenodd" clip-rule="evenodd" d="M0 0H1.89743V3.33063H4.6599V4.91376H1.89743V13.0819C1.89743 14.7156 2.43958 15.1209 4.15669 15.1209C4.38873 15.1209 4.58262 15.1209 4.77612 15.0955V16.6279C4.58262 16.6659 4.13073 16.7164 3.67884 16.7164C0.593868 16.7164 0 15.5263 0 12.9679V0Z" transform="translate(131.821 8.11938)" fill="#303030"/>
<path fill-rule="evenodd" clip-rule="evenodd" d="M5.0656 0C8.20155 0 9.6997 1.858 9.6997 3.9592H7.93483C7.8714 2.9085 7.19852 1.6144 4.9894 1.6144C3.32626 1.6144 2.09482 2.34499 2.09482 3.77982C2.09482 5.3302 3.78329 5.70184 5.39575 6.02214C7.8714 6.48337 10.0299 7.11129 10.0299 9.75062C10.0299 12.4028 7.88416 13.8507 4.86252 13.8507C1.95499 13.8507 0 12.3773 0 10.0709H1.82811C2.00585 11.3008 3.07232 12.2361 5.01473 12.2361C7.13508 12.2361 8.17621 11.2368 8.17621 9.96826C8.17621 8.37982 6.72892 8.07201 4.77355 7.66211C2.27257 7.11129 0.253754 6.3807 0.253754 3.98496C0.253754 1.23008 2.53909 0 5.0656 0Z" transform="translate(139.463 11.4626)" fill="#303030"/>
<path fill-rule="evenodd" clip-rule="evenodd" d="M7.33717 22.5424L4.11113 25.791C1.45945 22.8852 0 19.0857 0 15.0856C0 10.8395 1.62357 6.86636 4.57118 3.89808C6.34709 2.10972 8.54938 0.762419 10.9443 0L11.9403 4.50672C10.3865 5.06268 8.9556 5.97257 7.78599 7.15038C5.7484 9.20246 4.59153 11.9346 4.52915 14.8441C4.46905 17.6936 5.4656 20.4252 7.33717 22.5424Z" transform="translate(0 0.955322)" fill="#FFB347"/>
<path fill-rule="evenodd" clip-rule="evenodd" d="M3.49181 16.0738L0 0.375068C2.601 -0.202761 5.34196 -0.111617 7.9307 0.639346C10.5593 1.40219 12.9711 2.82816 14.9054 4.76322C16.8854 6.74424 18.3139 9.217 19.0365 11.9143C19.7044 14.4108 19.7601 17.0608 19.1981 19.5821L3.49181 16.0738Z" transform="translate(12.4179)" fill="#F49132"/>
<path fill-rule="evenodd" clip-rule="evenodd" d="M18.6 9.81651C14.9227 11.9179 10.6648 12.4829 6.60993 11.4085C4.1556 10.7573 1.87115 9.51411 0 7.81271L3.24895 4.59666C5.30013 6.39911 7.94253 7.38992 10.6951 7.38859C13.6908 7.38726 16.5079 6.23227 18.6263 4.135C19.8022 2.97091 20.7116 1.54612 21.2668 0L25.791 0.999719C24.6065 4.71288 22.0553 7.84115 18.6 9.81651Z" transform="translate(5.25372 19.582)" fill="#F56945"/>
</g>
</svg>
