<svg width="13" height="14" viewBox="0 0 13 14" fill="none" xmlns="http://www.w3.org/2000/svg">
<path fill-rule="evenodd" clip-rule="evenodd" d="M12.2266 0.548131C10.3741 1.953 7.97506 1.29271 5.64553 0.660521C3.58461 0.0985747 1.63947 -0.430591 0.208408 0.534083C0.0787317 0.620248 0.000926256 0.765885 0 0.922762V13.4381C0 13.7485 0.2487 14 0.555753 14C0.862807 14 1.11151 13.7485 1.11151 13.4381V9.54863C2.19986 9.12249 3.7606 9.54863 5.4047 9.9935C6.75657 10.4234 8.15707 10.6753 9.57285 10.7428C10.7348 10.7793 11.8765 10.4215 12.8147 9.72658C12.9315 9.63807 13 9.49946 13 9.35195V0.922762C12.9935 0.738725 12.881 0.57576 12.7129 0.505985C12.5559 0.42544 12.3674 0.44183 12.2266 0.548131Z" fill="#FF7A59"/>
</svg>
