<svg width="16" height="16" viewBox="0 0 16 16" fill="none" xmlns="http://www.w3.org/2000/svg">
<path fill-rule="evenodd" clip-rule="evenodd" d="M9.45038 8L11.1866 9.7362C11.5874 10.1366 11.5874 10.7865 11.1866 11.1869C10.7862 11.5873 10.1371 11.5873 9.73632 11.1869L8.00012 9.45066L6.2635 11.1869C5.86309 11.5873 5.21366 11.5873 4.81325 11.1869C4.41284 10.7865 4.41284 10.1366 4.81325 9.7362L6.54945 8L4.81325 6.26379C4.41284 5.86338 4.41284 5.21354 4.81325 4.81313C5.21366 4.41271 5.86309 4.41271 6.2635 4.81313L8.00012 6.54933L9.73632 4.81313C10.1371 4.41271 10.7862 4.41271 11.1866 4.81313C11.5874 5.21354 11.5874 5.86338 11.1866 6.26379L9.45038 8ZM16 8C16 3.58154 12.4181 0 8 0C3.58154 0 0 3.58154 0 8C0 12.4185 3.58154 16 8 16C12.4181 16 16 12.4185 16 8Z" fill="#1C1B1B" fill-opacity="0.35"/>
</svg>
