<?xml version="1.0" encoding="utf-8"?>
<!-- Generator: Adobe Illustrator 22.0.1, SVG Export Plug-In . SVG Version: 6.00 Build 0)  -->
<svg version="1.1" id="Layer_1" xmlns="http://www.w3.org/2000/svg" xmlns:xlink="http://www.w3.org/1999/xlink" x="0px" y="0px"
	 viewBox="0 0 649 492" style="enable-background:new 0 0 649 492;" xml:space="preserve">
<style type="text/css">
	.st0{fill:url(#SVGID_1_);}
	.st1{fill:url(#SVGID_2_);}
	.st2{fill:url(#SVGID_3_);}
	.st3{fill:url(#SVGID_4_);}
	.st4{fill:url(#SVGID_5_);}
	.st5{fill:url(#SVGID_6_);}
	.st6{fill:url(#SVGID_7_);}
</style>
<g>
	<g>
		
			<linearGradient id="SVGID_1_" gradientUnits="userSpaceOnUse" x1="-952.0018" y1="147.8032" x2="-952.0018" y2="146.5627" gradientTransform="matrix(4.0001 0 0 4 4316.1025 -330.9761)">
			<stop  offset="0" style="stop-color:#FFA959"/>
			<stop  offset="0.43" style="stop-color:#FFB05E"/>
			<stop  offset="1" style="stop-color:#FFC16B"/>
		</linearGradient>
		<path class="st0" d="M510,257c0,1.1-0.9,2-2,2s-2-0.9-2-2s0.9-2,2-2l0,0C509.1,255,510,255.9,510,257L510,257z"/>
		
			<linearGradient id="SVGID_2_" gradientUnits="userSpaceOnUse" x1="-1265.0438" y1="4.3058" x2="-1265.0438" y2="3.0685" gradientTransform="matrix(285 0 0 195 360842 -492.0156)">
			<stop  offset="0" style="stop-color:#FFA959"/>
			<stop  offset="0.43" style="stop-color:#FFB05E"/>
			<stop  offset="1" style="stop-color:#FFC16B"/>
		</linearGradient>
		<path class="st1" d="M447,96c0,1.1-0.9,2-2,2s-2-0.9-2-2s0.9-2,2-2l0,0C446.1,94,447,94.9,447,96z M166,287c0,1.1-0.9,2-2,2
			s-2-0.9-2-2s0.9-2,2-2l0,0C165.1,285,166,285.9,166,287z"/>
		
			<linearGradient id="SVGID_3_" gradientUnits="userSpaceOnUse" x1="-952.0666" y1="147.8078" x2="-952.0666" y2="146.5705" gradientTransform="matrix(4.0009 0 0 4.0009 4001.123 -464.0182)">
			<stop  offset="0" style="stop-color:#FFA959"/>
			<stop  offset="0.43" style="stop-color:#FFB05E"/>
			<stop  offset="1" style="stop-color:#FFC16B"/>
		</linearGradient>
		<path class="st2" d="M194,124.2c-0.1,1.1-1.1,1.9-2.2,1.8c-1.1-0.1-1.9-1.1-1.8-2.2s1.1-1.9,2.2-1.8
			C193.3,122.1,194.1,123.1,194,124.2z"/>
		
			<linearGradient id="SVGID_4_" gradientUnits="userSpaceOnUse" x1="-952.0073" y1="147.7998" x2="-952.0073" y2="146.5624" gradientTransform="matrix(4 0 0 4 3959.0291 -400.9641)">
			<stop  offset="0" style="stop-color:#FFA959"/>
			<stop  offset="0.43" style="stop-color:#FFB05E"/>
			<stop  offset="1" style="stop-color:#FFC16B"/>
		</linearGradient>
		<path class="st3" d="M153,187c0,1.1-0.9,2-2,2s-2-0.9-2-2s0.9-2,2-2S153,185.9,153,187L153,187z"/>
		
			<linearGradient id="SVGID_5_" gradientUnits="userSpaceOnUse" x1="-634.5" y1="294.2955" x2="-634.5" y2="293.0606" gradientTransform="matrix(2 0 0 2 1680 -450)">
			<stop  offset="0" style="stop-color:#FFA959"/>
			<stop  offset="0.43" style="stop-color:#FFB05E"/>
			<stop  offset="1" style="stop-color:#FFC16B"/>
		</linearGradient>
		<circle class="st4" cx="411" cy="137" r="1"/>
		
			<linearGradient id="SVGID_6_" gradientUnits="userSpaceOnUse" x1="-1247.2192" y1="33.8706" x2="-1247.2192" y2="32.6156" gradientTransform="matrix(57 0 0 18 71437 -555)">
			<stop  offset="0" style="stop-color:#FFA959"/>
			<stop  offset="0.43" style="stop-color:#FFB05E"/>
			<stop  offset="1" style="stop-color:#FFC16B"/>
		</linearGradient>
		<path class="st5" d="M374,47.5c0,0.8-0.7,1.5-1.5,1.5s-1.5-0.7-1.5-1.5s0.7-1.5,1.5-1.5S374,46.7,374,47.5z M320,32.5
			c0,0.8-0.7,1.5-1.5,1.5s-1.5-0.7-1.5-1.5s0.7-1.5,1.5-1.5S320,31.7,320,32.5z"/>
		
			<linearGradient id="SVGID_7_" gradientUnits="userSpaceOnUse" x1="-846.1667" y1="196.6484" x2="-846.1667" y2="195.3934" gradientTransform="matrix(3 0 0 3 2934 -379)">
			<stop  offset="0" style="stop-color:#FFA959"/>
			<stop  offset="0.43" style="stop-color:#FFB05E"/>
			<stop  offset="1" style="stop-color:#FFC16B"/>
		</linearGradient>
		<path class="st6" d="M397,208.5c0,0.8-0.7,1.5-1.5,1.5s-1.5-0.7-1.5-1.5s0.7-1.5,1.5-1.5S397,207.7,397,208.5z"/>
	</g>
</g>
</svg>
