<?xml version="1.0" encoding="utf-8"?>
<!-- Generator: Adobe Illustrator 22.0.1, SVG Export Plug-In . SVG Version: 6.00 Build 0)  -->
<svg version="1.1" id="Layer_1" xmlns="http://www.w3.org/2000/svg" xmlns:xlink="http://www.w3.org/1999/xlink" x="0px" y="0px"
	 viewBox="0 0 649 492" style="enable-background:new 0 0 649 492;" xml:space="preserve">
<style type="text/css">
	.st0{fill:#F28522;}
	.st1{fill:#FFA959;}
</style>
<g>
	<path class="st0" d="M320.4,183.5c1.2,1.2,2.9,1.9,4.7,1.8c2.5,0.1,4.8-1.2,5.9-3.4c1.3-2.3,2.1-5.8,2.3-10.6l4.5,4.6
		c-0.2,4.8-0.9,8.3-2.3,10.6c-1.2,2.2-3.5,3.5-5.9,3.4c-1.7,0.1-3.4-0.6-4.7-1.8L320.4,183.5L320.4,183.5z M337.8,175.9l-4.5-4.6
		l0.5-16.6l4.5,4.6L337.8,175.9z M331,142.1l4.5,4.6c0.5,0.5,1,1.1,1.3,1.8c1.2,2.4,1.7,6,1.6,10.8l-4.5-4.6
		c0.1-4.8-0.4-8.4-1.6-10.8C332,143.2,331.5,142.6,331,142.1L331,142.1z M313.6,196l-4.4-4.6c-0.5-0.5-0.9-1-1.3-1.5
		c-3.9-4.9-5.7-11.9-5.5-20.9l4.5,4.6c-0.3,9,1.5,16,5.5,20.9C312.7,195,313.1,195.5,313.6,196L313.6,196z"/>
	<path class="st0" d="M306.7,173.5l-4.5-4.6l0.4-12.2l4.5,4.6L306.7,173.5z"/>
	<path class="st0" d="M342.4,134.3l4.5,4.6c-3.8-3.9-9.1-5.9-15.6-5.9c-7.4,0-13.2,2.5-17.5,7.4c-4.2,4.9-6.5,11.9-6.7,20.9
		l-4.5-4.5c0.3-9.1,2.5-16,6.7-21s10-7.4,17.5-7.4C333.4,128.4,338.6,130.3,342.4,134.3z"/>
	<path class="st1" d="M348.3,140.4c3.9,4.9,5.7,11.9,5.5,21l-0.4,12.2c-0.3,9.1-2.5,16-6.7,20.9s-10,7.4-17.4,7.4
		c-7.5,0-13.1-2.5-17.1-7.4c-3.9-4.9-5.7-11.9-5.5-20.9l0.4-12.3c0.3-9.1,2.5-16,6.7-20.9s10-7.4,17.5-7.4
		C338.7,132.9,344.4,135.4,348.3,140.4L348.3,140.4z M337.8,175.9l0.5-16.6c0.1-4.8-0.4-8.4-1.6-10.8c-1-2.3-3.4-3.7-5.9-3.6
		c-2.4-0.1-4.7,1.2-5.9,3.3c-1.3,2.2-2,5.6-2.3,10l-0.5,17.2c-0.1,5,0.4,8.7,1.5,11c1.1,2.2,3.4,3.6,5.9,3.5
		c2.5,0.1,4.8-1.2,5.9-3.4C336.9,184.3,337.7,180.8,337.8,175.9L337.8,175.9z"/>
</g>
</svg>
