<?xml version="1.0" encoding="utf-8"?>
<!-- Generator: Adobe Illustrator 22.0.1, SVG Export Plug-In . SVG Version: 6.00 Build 0)  -->
<svg version="1.1" id="Layer_1" xmlns="http://www.w3.org/2000/svg" xmlns:xlink="http://www.w3.org/1999/xlink" x="0px" y="0px"
	 viewBox="0 0 649 492" style="enable-background:new 0 0 649 492;" xml:space="preserve">
<style type="text/css">
	.st0{fill:url(#SVGID_1_);}
	.st1{fill:url(#SVGID_2_);}
	.st2{fill:url(#SVGID_3_);}
	.st3{fill:url(#SVGID_4_);}
	.st4{fill:url(#SVGID_5_);}
	.st5{fill:#FFFFFF;}
</style>
<g>
	<g>
		
			<linearGradient id="SVGID_1_" gradientUnits="userSpaceOnUse" x1="-1178.7871" y1="6.6278" x2="-1178.7871" y2="5.3906" gradientTransform="matrix(14 0 0 110 16957.0195 -395.9609)">
			<stop  offset="0" style="stop-color:#FFA959"/>
			<stop  offset="0.43" style="stop-color:#FFB05E"/>
			<stop  offset="1" style="stop-color:#FFC16B"/>
		</linearGradient>
		<path class="st0" d="M461,192c0,1.1-0.9,2-2,2s-2-0.9-2-2s0.9-2,2-2S461,190.9,461,192L461,192z M451,298c0,1.1-0.9,2-2,2
			s-2-0.9-2-2s0.9-2,2-2S451,296.9,451,298L451,298z"/>
		
			<linearGradient id="SVGID_2_" gradientUnits="userSpaceOnUse" x1="-952.0042" y1="147.7974" x2="-952.0042" y2="146.5601" gradientTransform="matrix(4.0001 0 0 4.0001 4025.1118 -376.0187)">
			<stop  offset="0" style="stop-color:#FFA959"/>
			<stop  offset="0.43" style="stop-color:#FFB05E"/>
			<stop  offset="1" style="stop-color:#FFC16B"/>
		</linearGradient>
		<path class="st1" d="M219,212c0,1.1-0.9,2-2,2s-2-0.9-2-2l0,0c0-1.1,0.9-2,2-2S219,210.9,219,212z"/>
		
			<linearGradient id="SVGID_3_" gradientUnits="userSpaceOnUse" x1="-846.1667" y1="196.6484" x2="-846.1667" y2="195.3934" gradientTransform="matrix(3 0 0 3 2811 -478)">
			<stop  offset="0" style="stop-color:#FFA959"/>
			<stop  offset="0.43" style="stop-color:#FFB05E"/>
			<stop  offset="1" style="stop-color:#FFC16B"/>
		</linearGradient>
		<path class="st2" d="M274,109.5c0,0.8-0.7,1.5-1.5,1.5s-1.5-0.7-1.5-1.5s0.7-1.5,1.5-1.5S274,108.7,274,109.5z"/>
		
			<linearGradient id="SVGID_4_" gradientUnits="userSpaceOnUse" x1="-846.1667" y1="196.6434" x2="-846.1667" y2="195.3884" gradientTransform="matrix(3 0 0 3 2891 -510)">
			<stop  offset="0" style="stop-color:#FFA959"/>
			<stop  offset="0.43" style="stop-color:#FFB05E"/>
			<stop  offset="1" style="stop-color:#FFC16B"/>
		</linearGradient>
		<path class="st3" d="M354,77.5c0,0.8-0.7,1.5-1.5,1.5s-1.5-0.7-1.5-1.5s0.7-1.5,1.5-1.5S354,76.7,354,77.5z"/>
		
			<linearGradient id="SVGID_5_" gradientUnits="userSpaceOnUse" x1="-846.1667" y1="196.6402" x2="-846.1667" y2="195.3977" gradientTransform="matrix(3 0 0 3 2789 -527)">
			<stop  offset="0" style="stop-color:#FFA959"/>
			<stop  offset="0.43" style="stop-color:#FFB05E"/>
			<stop  offset="1" style="stop-color:#FFC16B"/>
		</linearGradient>
		<circle class="st4" cx="250.5" cy="60.5" r="1.5"/>
		<path class="st5" d="M275,220.5c0,0.8-0.7,1.5-1.5,1.5s-1.5-0.7-1.5-1.5s0.7-1.5,1.5-1.5S275,219.7,275,220.5L275,220.5z
			 M351,280.5c0,0.8-0.7,1.5-1.5,1.5s-1.5-0.7-1.5-1.5s0.7-1.5,1.5-1.5S351,279.7,351,280.5z"/>
	</g>
</g>
</svg>
