<?xml version="1.0" encoding="utf-8"?>
<!-- Generator: Adobe Illustrator 22.0.1, SVG Export Plug-In . SVG Version: 6.00 Build 0)  -->
<svg version="1.1" id="Layer_1" xmlns="http://www.w3.org/2000/svg" xmlns:xlink="http://www.w3.org/1999/xlink" x="0px" y="0px"
	 viewBox="0 0 649 492" style="enable-background:new 0 0 649 492;" xml:space="preserve">
<style type="text/css">
	.st0{fill:#FFC16B;}
	.st1{opacity:0.2;fill:url(#SVGID_1_);enable-background:new    ;}
	.st2{fill:url(#SVGID_2_);}
	.st3{fill:url(#SVGID_3_);}
	.st4{opacity:0.39;fill:url(#SVGID_4_);enable-background:new    ;}
	.st5{fill:url(#SVGID_5_);}
	.st6{fill:url(#SVGID_6_);}
	.st7{fill:url(#SVGID_7_);}
	.st8{fill:url(#SVGID_8_);}
	.st9{fill:#FFFFFF;}
	.st10{fill:url(#SVGID_9_);}
	.st11{fill:url(#SVGID_10_);}
	.st12{opacity:0.44;fill:url(#SVGID_11_);enable-background:new    ;}
	.st13{fill:url(#SVGID_12_);}
	.st14{fill:url(#SVGID_13_);}
	.st15{fill:url(#SVGID_14_);}
	.st16{fill:url(#SVGID_15_);}
	.st17{fill:url(#SVGID_16_);}
	.st18{fill:url(#SVGID_17_);}
	.st19{opacity:0.67;fill:url(#SVGID_18_);enable-background:new    ;}
	.st20{opacity:0.67;fill:url(#SVGID_19_);enable-background:new    ;}
	.st21{opacity:0.67;fill:url(#SVGID_20_);enable-background:new    ;}
	.st22{fill:url(#SVGID_21_);}
	.st23{fill:url(#SVGID_22_);}
	.st24{fill:url(#SVGID_23_);}
	.st25{fill:url(#SVGID_24_);}
	.st26{opacity:0.67;fill:url(#SVGID_25_);enable-background:new    ;}
</style>
<g>
	<path class="st0" d="M507.5,434c-4.8,0.1-9.5-0.9-13.7-3.1l-120.2-69.6c-3.6-2.1-5.6-5-5.6-8.1c0-3.8,2.9-7.7,7.9-10.5l115.7-67
		c9.4-5.4,23.7-6,31.8-1.3L643.5,344c3.6,2.1,5.6,5,5.6,8.1c0,3.8-2.9,7.7-7.9,10.5l-115.7,67C520,432.5,513.8,434.1,507.5,434
		L507.5,434z M494,430.4c8,4.6,22,4,31.3-1.3l115.7-67c4.8-2.8,7.6-6.5,7.6-10.1c0-3-1.9-5.7-5.3-7.7L523,274.6
		c-8-4.6-22-4-31.3,1.3l-115.7,67c-4.8,2.8-7.6,6.5-7.6,10.1c0,3,1.9,5.7,5.3,7.7L494,430.4L494,430.4z M139.6,434
		c-4.8,0.2-9.6-0.9-13.8-3.1L5.6,361.2C2,359.1,0,356.2,0,353c0-3.8,2.9-7.7,7.9-10.5l115.6-67c9.4-5.4,23.6-6,31.8-1.3l120.1,69.6
		c3.6,2.1,5.6,5,5.6,8.1c0,3.8-2.9,7.7-7.9,10.5l-115.6,67C152,432.5,145.8,434,139.6,434L139.6,434z M141.4,271.5
		c-6.2-0.1-12.3,1.5-17.7,4.4l-115.6,67c-4.8,2.8-7.6,6.5-7.6,10.1c0,3,1.9,5.7,5.3,7.7L126,430.4c8,4.6,22,4,31.3-1.3l115.6-67
		c4.8-2.8,7.6-6.5,7.6-10.1c0-3-1.9-5.7-5.3-7.7L155,274.6C150.9,272.4,146.2,271.3,141.4,271.5L141.4,271.5z"/>
	
		<linearGradient id="SVGID_1_" gradientUnits="userSpaceOnUse" x1="-1266.0581" y1="3.6131" x2="-1266.0581" y2="2.6934" gradientTransform="matrix(368.9996 0 0 212.9991 467500.4688 -306.9634)">
		<stop  offset="0" style="stop-color:#FFA959"/>
		<stop  offset="0.43" style="stop-color:#FFB05E"/>
		<stop  offset="1" style="stop-color:#FFC16B"/>
	</linearGradient>
	<path class="st1" d="M502.4,373.8l-156.1-90.4c-5.2-3-12.1-4.5-19.4-4.5c-8.9-0.1-17.6,2.1-25.4,6.4l-149.6,86.6
		c-7,4.1-10.9,9.4-10.8,14.6c0.1,4.1,2.8,7.9,7.5,10.6l156.2,90.4c11.5,6.6,31.5,5.8,44.8-1.9L499.2,399c7.1-4.1,11.1-9.5,10.8-14.8
		C509.8,380.2,507.2,376.6,502.4,373.8L502.4,373.8z"/>
	
		<linearGradient id="SVGID_2_" gradientUnits="userSpaceOnUse" x1="-1266.2091" y1="3.2511" x2="-1265.3296" y2="3.2511" gradientTransform="matrix(368.9996 0 0 213.0001 467500.5 -335.0059)">
		<stop  offset="0" style="stop-color:#FF7A59"/>
		<stop  offset="0.25" style="stop-color:#FD7B52"/>
		<stop  offset="0.6" style="stop-color:#F97F3F"/>
		<stop  offset="1" style="stop-color:#F28522"/>
	</linearGradient>
	<path class="st2" d="M502.5,345.8l-156.2-90.4c-5.2-3-12.1-4.5-19.4-4.5c-8.9-0.1-17.6,2.1-25.4,6.4L151.8,344
		c-7,4.1-10.9,9.4-10.8,14.6c0.1,4.1,2.8,7.9,7.5,10.6l156.2,90.4c11.5,6.6,31.5,5.8,44.8-1.9L499.2,371c7.1-4.1,11.1-9.5,10.8-14.8
		C509.8,352.2,507.2,348.6,502.5,345.8L502.5,345.8z"/>
	
		<linearGradient id="SVGID_3_" gradientUnits="userSpaceOnUse" x1="-1266.0583" y1="3.6131" x2="-1266.0583" y2="2.6936" gradientTransform="matrix(368.9996 0 0 213.0002 467500.5 -339.0311)">
		<stop  offset="0" style="stop-color:#FFA959"/>
		<stop  offset="0.43" style="stop-color:#FFB05E"/>
		<stop  offset="1" style="stop-color:#FFC16B"/>
	</linearGradient>
	<path class="st3" d="M502.4,341.9l-156.1-90.4c-5.2-3-12.1-4.5-19.4-4.5c-8.9-0.1-17.6,2.1-25.4,6.3L151.8,340
		c-7,4.1-10.9,9.4-10.8,14.6c0.1,4.1,2.8,7.9,7.5,10.6l156.2,90.4c11.5,6.6,31.5,5.8,44.8-1.9l149.6-86.6
		c7.1-4.1,11.1-9.5,10.8-14.8C509.8,348.2,507.2,344.6,502.4,341.9z"/>
	
		<linearGradient id="SVGID_4_" gradientUnits="userSpaceOnUse" x1="-1265.0579" y1="5.3035" x2="-1264.0582" y2="5.3035" gradientTransform="matrix(257.0003 0 0 121.9997 325288.375 -300.008)">
		<stop  offset="0" style="stop-color:#FF7A59"/>
		<stop  offset="0.25" style="stop-color:#FD7B52"/>
		<stop  offset="0.6" style="stop-color:#F97F3F"/>
		<stop  offset="1" style="stop-color:#F28522"/>
	</linearGradient>
	<path class="st4" d="M392.7,391.3c-43.2,24.8-119.5,18.8-166.7,2.9c-50.5-17-57.9-29.9-57.9-45.4c0-23,34.5-36.4,68.2-47.5
		c47.3-15.6,113.2-24.8,156.4,0.2C435.8,326.4,435.8,366.5,392.7,391.3L392.7,391.3z"/>
	
		<linearGradient id="SVGID_5_" gradientUnits="userSpaceOnUse" x1="-1263.835" y1="5.4244" x2="-1262.835" y2="5.4244" gradientTransform="matrix(206 0 0 119 260572 -305)">
		<stop  offset="0" style="stop-color:#FFA959"/>
		<stop  offset="0.43" style="stop-color:#FFB05E"/>
		<stop  offset="1" style="stop-color:#FFC16B"/>
	</linearGradient>
	<ellipse class="st5" cx="325" cy="340.5" rx="103" ry="59.5"/>
	
		<linearGradient id="SVGID_6_" gradientUnits="userSpaceOnUse" x1="-1263.835" y1="5.4244" x2="-1262.835" y2="5.4244" gradientTransform="matrix(206 0 0 119 260572 -310)">
		<stop  offset="0" style="stop-color:#FF7A59"/>
		<stop  offset="0.25" style="stop-color:#FD7B52"/>
		<stop  offset="0.6" style="stop-color:#F97F3F"/>
		<stop  offset="1" style="stop-color:#F28522"/>
	</linearGradient>
	<ellipse class="st6" cx="325" cy="335.5" rx="103" ry="59.5"/>
	
		<linearGradient id="SVGID_7_" gradientUnits="userSpaceOnUse" x1="-1263.618" y1="5.4243" x2="-1262.618" y2="5.4243" gradientTransform="matrix(199 0 0 119.0002 251685.9844 -318.9843)">
		<stop  offset="0" style="stop-color:#FFA959"/>
		<stop  offset="0.43" style="stop-color:#FFB05E"/>
		<stop  offset="1" style="stop-color:#FFC16B"/>
	</linearGradient>
	<path class="st7" d="M226,267v61.8c0,14.7,9.6,29.3,29.1,40.5c38.9,22.3,101.9,22.3,140.8,0c19.3-11.1,29-25.6,29.1-40.1V267H226z"
		/>
	
		<linearGradient id="SVGID_8_" gradientUnits="userSpaceOnUse" x1="-1263.4791" y1="5.5957" x2="-1261.9579" y2="5.5957" gradientTransform="matrix(199 0 0 115 251686 -378)">
		<stop  offset="0" style="stop-color:#FFC16B"/>
		<stop  offset="0.29" style="stop-color:#FEB05B"/>
		<stop  offset="0.71" style="stop-color:#FC9D49"/>
		<stop  offset="1" style="stop-color:#FC9642"/>
	</linearGradient>
	<ellipse class="st8" cx="325.5" cy="265.5" rx="99.5" ry="57.5"/>
	<path class="st9" d="M325,313c-23.5,0-47.1-5.2-65-15.6c-17.4-10.1-27-23.6-27-37.9c0-14.3,9.6-27.8,27-37.9
		c35.8-20.8,94.1-20.8,130,0c17.4,10.1,27,23.6,27,37.9s-9.6,27.7-27,37.9l-0.2-0.3l0.2,0.3C372.1,307.8,348.5,313,325,313z
		 M325,206.6c-23.4,0-46.8,5.2-64.7,15.5c-17.2,10-26.7,23.3-26.7,37.4c0,14.1,9.5,27.4,26.7,37.4c35.7,20.7,93.7,20.7,129.3,0
		c17.2-10,26.7-23.3,26.7-37.4s-9.5-27.4-26.7-37.4C371.9,211.7,348.4,206.6,325,206.6L325,206.6z"/>
	
		<linearGradient id="SVGID_9_" gradientUnits="userSpaceOnUse" x1="-1262.457" y1="11.1543" x2="-1261.5457" y2="11.1543" gradientTransform="matrix(170 0 0 55.0002 214870 -334.9647)">
		<stop  offset="0" style="stop-color:#FF7A59"/>
		<stop  offset="0.25" style="stop-color:#FD7B52"/>
		<stop  offset="0.6" style="stop-color:#F97F3F"/>
		<stop  offset="1" style="stop-color:#F28522"/>
	</linearGradient>
	<path class="st10" d="M240,251v5.4c0,12.7,8.2,25.4,24.9,35.1c33.2,19.4,87.1,19.4,120.3,0c16.5-9.6,24.7-22.2,24.9-34.8V251H240z"
		/>
	
		<linearGradient id="SVGID_10_" gradientUnits="userSpaceOnUse" x1="-1262.0294" y1="5.5756" x2="-1262.0294" y2="6.6876" gradientTransform="matrix(170 0 0 98 214870 -385)">
		<stop  offset="0" style="stop-color:#FFA959"/>
		<stop  offset="0.43" style="stop-color:#FFB05E"/>
		<stop  offset="1" style="stop-color:#FFC16B"/>
	</linearGradient>
	<ellipse class="st11" cx="325" cy="250" rx="85" ry="49"/>
	
		<linearGradient id="SVGID_11_" gradientUnits="userSpaceOnUse" x1="-1251.6127" y1="13.8885" x2="-1251.6127" y2="15.001" gradientTransform="matrix(71 0 0 41 89190 -356)">
		<stop  offset="0" style="stop-color:#FFA959"/>
		<stop  offset="0.43" style="stop-color:#FFB05E"/>
		<stop  offset="1" style="stop-color:#FFC16B"/>
	</linearGradient>
	<ellipse class="st12" cx="325.5" cy="250.5" rx="35.5" ry="20.5"/>
	
		<linearGradient id="SVGID_12_" gradientUnits="userSpaceOnUse" x1="-1245.5377" y1="19.1291" x2="-1245.5377" y2="20.2413" gradientTransform="matrix(53 0 0 30 66340 -351)">
		<stop  offset="0" style="stop-color:#FFA959"/>
		<stop  offset="0.43" style="stop-color:#FFB05E"/>
		<stop  offset="1" style="stop-color:#FFC16B"/>
	</linearGradient>
	<ellipse class="st13" cx="326.5" cy="250" rx="26.5" ry="15"/>
	
		<linearGradient id="SVGID_13_" gradientUnits="userSpaceOnUse" x1="-1262.0728" y1="2.0718" x2="-1262.0728" y2="3.1616" gradientTransform="matrix(171 0 0 286.0002 216140 -572.9806)">
		<stop  offset="0.22" style="stop-color:#FFFFFF;stop-opacity:0"/>
		<stop  offset="0.31" style="stop-color:#FFFAF4;stop-opacity:7.000000e-02"/>
		<stop  offset="0.47" style="stop-color:#FFEED7;stop-opacity:0.27"/>
		<stop  offset="0.71" style="stop-color:#FFDBA9;stop-opacity:0.58"/>
		<stop  offset="1" style="stop-color:#FFC16B"/>
	</linearGradient>
	<path class="st14" d="M410.9,13H240v236.8c0,12.6,8.3,25.2,25.1,34.8c33.4,19.2,87.5,19.2,120.9,0c16.7-9.6,25.1-22.2,25.1-34.8
		L410.9,13z"/>
	
		<linearGradient id="SVGID_14_" gradientUnits="userSpaceOnUse" x1="-1247.2192" y1="2.0718" x2="-1247.2192" y2="3.1618" gradientTransform="matrix(57 0 0 286 71447 -573)">
		<stop  offset="0.22" style="stop-color:#FFFFFF;stop-opacity:0"/>
		<stop  offset="0.31" style="stop-color:#FFFAF4;stop-opacity:7.000000e-02"/>
		<stop  offset="0.47" style="stop-color:#FFEED7;stop-opacity:0.27"/>
		<stop  offset="0.71" style="stop-color:#FFDBA9;stop-opacity:0.58"/>
		<stop  offset="1" style="stop-color:#FFC16B"/>
	</linearGradient>
	<path class="st15" d="M384,13h-57v286c20.5-0.2,40.9-4.6,57-13.3V13z"/>
	<path class="st9" d="M377.3,373.7l0.3-0.2c1.4-1.1,2.3-2.9,2.3-4.7v-48.6c0-1.8-1-2.6-2.3-1.9l-0.3,0.2c-1.4,1.1-2.3,2.9-2.3,4.7
		v48.6C375,373.7,376.1,374.5,377.3,373.7z"/>
	
		<linearGradient id="SVGID_15_" gradientUnits="userSpaceOnUse" x1="-1015.51" y1="28.2783" x2="-1015.51" y2="26.2664" gradientTransform="matrix(5 0 0 21.9995 5455 -233.9661)">
		<stop  offset="0" style="stop-color:#FF7A59"/>
		<stop  offset="0.25" style="stop-color:#FD7B52"/>
		<stop  offset="0.6" style="stop-color:#F97F3F"/>
		<stop  offset="1" style="stop-color:#F28522"/>
	</linearGradient>
	<path class="st16" d="M377.3,373.7l0.3-0.2c1.4-1.1,2.3-2.8,2.3-4.7v-14.6c0-1.8-1-2.6-2.3-1.9l-0.3,0.3c-1.4,1.1-2.3,2.8-2.3,4.7
		v14.6C375,373.7,376.1,374.5,377.3,373.7L377.3,373.7z"/>
	<path class="st9" d="M399,313.4c0,0.5,0.4,0.7,1,0.5c0.6-0.3,1-0.8,1-1.4c0-0.5-0.4-0.7-1-0.4C399.4,312.4,399,312.9,399,313.4z
		 M392,316.4c0,0.5,0.4,0.7,1,0.4c0.6-0.3,1-0.8,1-1.3s-0.4-0.7-1-0.4C392.4,315.4,392,315.9,392,316.4z M399,320.4
		c0,0.5,0.4,0.7,1,0.4c0.6-0.3,1-0.8,1-1.3s-0.4-0.7-1-0.4C399.4,319.4,399,319.9,399,320.4z M392,324.4c0,0.5,0.4,0.7,1,0.5
		c0.6-0.3,1-0.8,1-1.3s-0.4-0.7-1-0.5C392.4,323.4,392,323.9,392,324.4z"/>
	
		<linearGradient id="SVGID_16_" gradientUnits="userSpaceOnUse" x1="-1214.2804" y1="6.4624" x2="-1214.2804" y2="7.5523" gradientTransform="matrix(23 0 0 90.9994 28406 -316.9788)">
		<stop  offset="0.22" style="stop-color:#FFFFFF;stop-opacity:0"/>
		<stop  offset="0.31" style="stop-color:#FFFAF4;stop-opacity:7.000000e-02"/>
		<stop  offset="0.47" style="stop-color:#FFEED7;stop-opacity:0.27"/>
		<stop  offset="0.71" style="stop-color:#FFDBA9;stop-opacity:0.58"/>
		<stop  offset="1" style="stop-color:#FFC16B"/>
	</linearGradient>
	<path class="st17" d="M489,269h-23v84.2c0,1.7,1.1,3.5,3.4,4.8c5.1,2.6,11.2,2.6,16.3,0c2.2-1.3,3.4-3,3.4-4.8L489,269L489,269z"/>
	<path class="st9" d="M469.4,359c5.1,2.7,11.2,2.7,16.3,0c4.5-2.7,4.5-7.2,0-9.9c-5.1-2.7-11.2-2.7-16.3,0
		C464.9,351.8,464.9,356.2,469.4,359z"/>
	
		<linearGradient id="SVGID_17_" gradientUnits="userSpaceOnUse" x1="-1251.285" y1="17.7786" x2="-1249.3213" y2="15.6429" gradientTransform="matrix(65 0 0 37 81603 -175)">
		<stop  offset="0" style="stop-color:#FFA959"/>
		<stop  offset="0.43" style="stop-color:#FFB05E"/>
		<stop  offset="1" style="stop-color:#FFC16B"/>
	</linearGradient>
	<path class="st18" d="M345.2,428.6L376,411l4.7,2.7l-30.9,17.5L345.2,428.6z M342.3,435.5l4.6-2.6l-4.6-2.6l-4.6,2.6L342.3,435.5z
		 M334.6,439.9l4.6-2.6l-4.6-2.6l-4.6,2.6L334.6,439.9L334.6,439.9z M327.6,443.9l4.6-2.6l-4.6-2.6l-4.6,2.6L327.6,443.9z
		 M357.2,435.4l30.8-17.6l-4.7-2.7l-30.8,17.5L357.2,435.4L357.2,435.4z M349.6,439.6l4.6-2.6l-4.6-2.6L345,437L349.6,439.6z
		 M341.9,444l4.6-2.6l-4.6-2.6l-4.6,2.6L341.9,444z M334.9,448l4.6-2.6l-4.6-2.6l-4.6,2.6L334.9,448z"/>
	
		<linearGradient id="SVGID_18_" gradientUnits="userSpaceOnUse" x1="-673.2653" y1="4.9029" x2="-673.2653" y2="5.9027" gradientTransform="matrix(2.13 0 0 119.527 1694.2052 -518.7337)">
		<stop  offset="9.999999e-02" style="stop-color:#FFFFFF;stop-opacity:0.1"/>
		<stop  offset="0.17" style="stop-color:#FFF6EA;stop-opacity:0.23"/>
		<stop  offset="0.31" style="stop-color:#FFE0B5;stop-opacity:0.55"/>
		<stop  offset="0.5" style="stop-color:#FFC16B"/>
		<stop  offset="1" style="stop-color:#FFFFFF;stop-opacity:0.1"/>
	</linearGradient>
	<path class="st19" d="M259.1,67.3h2.1v119.5h-2.1V67.3z"/>
	
		<linearGradient id="SVGID_19_" gradientUnits="userSpaceOnUse" x1="-2446.5869" y1="5.7445" x2="-2386.5376" y2="5.7445" gradientTransform="matrix(2.13 0 0 111.733 1723.8052 -430.7552)">
		<stop  offset="9.999999e-02" style="stop-color:#FFFFFF;stop-opacity:0.1"/>
		<stop  offset="0.17" style="stop-color:#FFF6EA;stop-opacity:0.23"/>
		<stop  offset="0.31" style="stop-color:#FFE0B5;stop-opacity:0.55"/>
		<stop  offset="0.5" style="stop-color:#FFC16B"/>
		<stop  offset="1" style="stop-color:#FFFFFF;stop-opacity:0.1"/>
	</linearGradient>
	<path class="st20" d="M288.7,155.2h2.1V267h-2.1V155.2z"/>
	
		<linearGradient id="SVGID_20_" gradientUnits="userSpaceOnUse" x1="-2481.9666" y1="4.558" x2="-2404.8186" y2="4.558" gradientTransform="matrix(1.893 0 0 144.407 1473.123 -586.0025)">
		<stop  offset="9.999999e-02" style="stop-color:#FFFFFF;stop-opacity:0.1"/>
		<stop  offset="0.17" style="stop-color:#FFF6EA;stop-opacity:0.23"/>
		<stop  offset="0.31" style="stop-color:#FFE0B5;stop-opacity:0.55"/>
		<stop  offset="0.5" style="stop-color:#FFC16B"/>
		<stop  offset="1" style="stop-color:#FFFFFF;stop-opacity:0.1"/>
	</linearGradient>
	<path class="st21" d="M339,0h1.9v144.4H339V0z"/>
	
		<linearGradient id="SVGID_21_" gradientUnits="userSpaceOnUse" x1="260.6495" y1="14.5121" x2="260.6495" y2="13.2815" gradientTransform="matrix(0.83 0 0 43.0001 52.1109 -265.9804)">
		<stop  offset="0" style="stop-color:#FF7A59"/>
		<stop  offset="0.25" style="stop-color:#FD7B52"/>
		<stop  offset="0.6" style="stop-color:#F97F3F"/>
		<stop  offset="1" style="stop-color:#F28522"/>
	</linearGradient>
	<path class="st22" d="M268.5,362.9L268.5,362.9c-0.3-0.2-0.4-0.6-0.5-1v-41.5c0-0.4,0.2-0.6,0.4-0.4h0.1c0.2,0.2,0.4,0.6,0.4,1
		v41.5C268.8,362.9,268.7,363.1,268.5,362.9z"/>
	
		<linearGradient id="SVGID_22_" gradientUnits="userSpaceOnUse" x1="260.6495" y1="14.5123" x2="260.6495" y2="13.2811" gradientTransform="matrix(0.83 0 0 43.0005 56.1109 -263.987)">
		<stop  offset="0" style="stop-color:#FF7A59"/>
		<stop  offset="0.25" style="stop-color:#FD7B52"/>
		<stop  offset="0.6" style="stop-color:#F97F3F"/>
		<stop  offset="1" style="stop-color:#F28522"/>
	</linearGradient>
	<path class="st23" d="M272.4,364.9L272.4,364.9c-0.3-0.2-0.4-0.6-0.4-1v-41.5c0-0.4,0.2-0.5,0.4-0.4h0.1c0.2,0.2,0.4,0.6,0.4,1
		v41.5C272.8,364.9,272.7,365.1,272.4,364.9L272.4,364.9z"/>
	
		<linearGradient id="SVGID_23_" gradientUnits="userSpaceOnUse" x1="260.6495" y1="14.512" x2="260.6495" y2="13.2814" gradientTransform="matrix(0.83 0 0 43.0004 60.1109 -262.0262)">
		<stop  offset="0" style="stop-color:#FF7A59"/>
		<stop  offset="0.25" style="stop-color:#FD7B52"/>
		<stop  offset="0.6" style="stop-color:#F97F3F"/>
		<stop  offset="1" style="stop-color:#F28522"/>
	</linearGradient>
	<path class="st24" d="M276.5,366.9L276.5,366.9c-0.3-0.2-0.4-0.6-0.5-1v-41.5c0-0.4,0.2-0.6,0.4-0.4h0.1c0.2,0.2,0.4,0.6,0.4,1
		v41.5C276.8,366.9,276.7,367.1,276.5,366.9L276.5,366.9z"/>
	
		<linearGradient id="SVGID_24_" gradientUnits="userSpaceOnUse" x1="279.3235" y1="14.5121" x2="279.3235" y2="13.2813" gradientTransform="matrix(0.82 0 0 43.0001 50.4047 -259.9804)">
		<stop  offset="0" style="stop-color:#FF7A59"/>
		<stop  offset="0.25" style="stop-color:#FD7B52"/>
		<stop  offset="0.6" style="stop-color:#F97F3F"/>
		<stop  offset="1" style="stop-color:#F28522"/>
	</linearGradient>
	<path class="st25" d="M279.4,368.9L279.4,368.9c-0.3-0.2-0.4-0.6-0.4-1v-41.5c0-0.4,0.2-0.5,0.4-0.4h0.1c0.2,0.2,0.4,0.6,0.4,1
		v41.5C279.8,368.9,279.6,369.1,279.4,368.9L279.4,368.9z"/>
	
		<linearGradient id="SVGID_25_" gradientUnits="userSpaceOnUse" x1="-2489.0652" y1="5.7617" x2="-2429.5439" y2="5.7617" gradientTransform="matrix(1.893 0 0 111.368 1527.2571 -544.9724)">
		<stop  offset="9.999999e-02" style="stop-color:#FFFFFF;stop-opacity:0.1"/>
		<stop  offset="0.17" style="stop-color:#FFF6EA;stop-opacity:0.23"/>
		<stop  offset="0.31" style="stop-color:#FFE0B5;stop-opacity:0.55"/>
		<stop  offset="0.5" style="stop-color:#FFC16B"/>
		<stop  offset="1" style="stop-color:#FFFFFF;stop-opacity:0.1"/>
	</linearGradient>
	<path class="st26" d="M393.1,41h1.9v111.4h-1.9V41z"/>
</g>
</svg>
