<?xml version="1.0" encoding="utf-8"?>
<!-- Generator: Adobe Illustrator 22.0.1, SVG Export Plug-In . SVG Version: 6.00 Build 0)  -->
<svg version="1.1" id="Layer_1" xmlns="http://www.w3.org/2000/svg" xmlns:xlink="http://www.w3.org/1999/xlink" x="0px" y="0px"
	 viewBox="0 0 649 492" style="enable-background:new 0 0 649 492;" xml:space="preserve">
<style type="text/css">
	.st0{fill:#F28522;}
	.st1{fill:#FFA959;}
</style>
<g>
	<path class="st0" d="M293.9,211.5l-4.5-4.6h7l4.5,4.6H293.9z M277.1,238.2l-4.5-4.6l0.5-14.5l4.5,4.6L277.1,238.2z M265.6,211.5
		l-4.5-4.6h12.4l4.5,4.6H265.6z"/>
	<path class="st0" d="M278,211.5l-4.5-4.6l0.6-21.1l4.5,4.6L278,211.5z M250.9,223.7l-4.5-4.6l-0.6-9.7l4.5,4.6L250.9,223.7z"/>
	<path class="st0" d="M250.3,214l-4.5-4.6l29-44.1l4.5,4.6L250.3,214z"/>
	<path class="st1" d="M293.9,211.5h7l-0.4,12.2h-7l-0.5,14.5h-15.9l0.5-14.5h-26.7l-0.6-9.7l29-44.1l15.9-0.1L293.9,211.5z
		 M278,211.5l0.7-21.1l-1.1,1.6l-12,19.5H278L278,211.5z"/>
	<path class="st0" d="M279.3,169.9l-4.5-4.6l16-0.1l4.5,4.6L279.3,169.9z"/>
</g>
</svg>
