<?xml version="1.0" encoding="utf-8"?>
<!-- Generator: Adobe Illustrator 22.0.1, SVG Export Plug-In . SVG Version: 6.00 Build 0)  -->
<svg version="1.1" id="Layer_1" xmlns="http://www.w3.org/2000/svg" xmlns:xlink="http://www.w3.org/1999/xlink" x="0px" y="0px"
	 viewBox="0 0 649 492" style="enable-background:new 0 0 649 492;" xml:space="preserve">
<style type="text/css">
	.st0{fill:#F28522;}
	.st1{fill:#FFA959;}
</style>
<g>
	<path class="st0" d="M393.9,116.8l-4.5-4.6h7l4.5,4.6H393.9z M377.1,143.7l-4.5-4.6l0.5-14.6l4.5,4.6L377.1,143.7z M365.5,116.8
		l-4.5-4.6h12.4l4.5,4.6H365.5z"/>
	<path class="st0" d="M378,116.8l-4.5-4.6l0.6-21.2l4.5,4.6L378,116.8z M350.9,129.1l-4.5-4.6l-0.6-9.7l4.5,4.6L350.9,129.1z
		 M350.3,119.4l-4.5-4.6l29-44.3l4.5,4.6L350.3,119.4z"/>
	<path class="st1" d="M393.9,116.8h7l-0.4,12.3h-7l-0.4,14.5h-16l0.5-14.5h-26.7l-0.6-9.7l29-44.3l16-0.1L393.9,116.8L393.9,116.8z
		 M378,116.8l0.6-21.1l-1,1.6l-12,19.5H378L378,116.8z"/>
	<path class="st0" d="M379.3,75l-4.5-4.6l16-0.1l4.5,4.6L379.3,75z"/>
</g>
</svg>
