<svg width="628" height="160" viewBox="0 0 628 160" fill="none" xmlns="http://www.w3.org/2000/svg">
<path d="M146.571 0.00013H9.53468C9.16798 0.00013 8.80568 0.00013 8.43995 0.00213C8.1338 0.00413 7.83009 0.00994 7.521 0.01483C6.84951 0.0227318 6.17961 0.0818063 5.5171 0.19154C4.85552 0.303663 4.21467 0.515046 3.61622 0.81854C3.0185 1.1246 2.47235 1.5223 1.99757 1.9972C1.5203 2.47077 1.12246 3.01815 0.81935 3.61829C0.5154 4.21724 0.304641 4.85907 0.19435 5.52161C0.0830109 6.18332 0.0230984 6.85265 0.01515 7.52361C0.00587 7.83021 0.00489 8.13783 0 8.44447V31.5587C0.00489 31.8692 0.00587 32.17 0.01514 32.4806C0.0230908 33.1516 0.0830034 33.8209 0.19434 34.4825C0.304326 35.1455 0.515098 35.7877 0.81934 36.3868C1.12232 36.985 1.52022 37.5302 1.99757 38.0011C2.47055 38.4781 3.01705 38.8761 3.61622 39.1798C4.21467 39.4841 4.85545 39.6968 5.5171 39.8106C6.17972 39.9195 6.84956 39.9786 7.521 39.9874C7.83009 39.9942 8.1338 39.9981 8.43995 39.9981C8.80567 40.0001 9.168 40.0001 9.53468 40.0001H146.571C146.931 40.0001 147.296 40.0001 147.655 39.9981C147.96 39.9981 148.272 39.9942 148.577 39.9874C149.247 39.9791 149.916 39.92 150.577 39.8106C151.241 39.696 151.884 39.4834 152.485 39.1798C153.084 38.8759 153.63 38.478 154.103 38.0011C154.579 37.5284 154.977 36.9836 155.284 36.3868C155.586 35.7872 155.795 35.1451 155.903 34.4825C156.015 33.8208 156.077 33.1516 156.089 32.4806C156.093 32.17 156.093 31.8692 156.093 31.5587C156.101 31.1954 156.101 30.8341 156.101 30.4649V9.53626C156.101 9.17005 156.101 8.80677 156.093 8.44447C156.093 8.13783 156.093 7.83021 156.089 7.52357C156.077 6.85255 156.015 6.18337 155.903 5.52157C155.795 4.85941 155.586 4.21763 155.284 3.61825C154.667 2.41533 153.688 1.43616 152.485 0.81845C151.884 0.515697 151.241 0.30437 150.577 0.19145C149.916 0.0812328 149.247 0.0221378 148.577 0.01469C148.272 0.00981 147.96 0.00395 147.655 0.002C147.296 0 146.931 0 146.571 0V0.00013Z" transform="translate(0 0.000976562) scale(4)" fill="#A6A6A6"/>
<path d="M7.57182 38.25C7.26714 38.25 6.96977 38.2461 6.66753 38.2393C6.04131 38.2311 5.41656 38.1766 4.79839 38.0762C4.22198 37.9769 3.66359 37.7923 3.14165 37.5283C2.62449 37.2665 2.1528 36.9233 1.74465 36.5117C1.33059 36.105 0.985867 35.6332 0.72414 35.1152C0.459529 34.5938 0.276403 34.0349 0.18114 33.458C0.0782639 32.8381 0.0226039 32.2113 0.01464 31.583C0.00830001 31.3721 -2.02751e-08 30.6699 -2.02751e-08 30.6699V7.56934C-2.02751e-08 7.56934 0.00884002 6.87793 0.01469 6.6748C0.0223156 6.04748 0.0776519 5.42165 0.18022 4.80273C0.275659 4.22425 0.458927 3.66375 0.72368 3.14063C0.984445 2.62294 1.32725 2.15086 1.73882 1.74268C2.14992 1.33062 2.62312 0.985604 3.14116 0.72021C3.6619 0.457094 4.21924 0.273733 4.79448 0.17627C5.41468 0.0748361 6.0416 0.0199961 6.66999 0.01221L7.57231 0H146.777L147.69 0.0127C148.313 0.0200992 148.934 0.07445 149.549 0.17529C150.13 0.273975 150.693 0.458616 151.22 0.72314C152.258 1.25799 153.102 2.10416 153.635 3.14307C153.895 3.66258 154.076 4.21851 154.17 4.79199C154.274 5.41599 154.332 6.04674 154.344 6.6792C154.347 6.9624 154.347 7.2666 154.347 7.56934C154.355 7.94434 154.355 8.30127 154.355 8.66113V29.5898C154.355 29.9531 154.355 30.3076 154.347 30.665C154.347 30.9902 154.347 31.2881 154.343 31.5947C154.331 32.2159 154.274 32.8354 154.172 33.4482C154.078 34.0293 153.896 34.5925 153.632 35.1182C153.368 35.6306 153.025 36.0983 152.616 36.5039C152.208 36.9177 151.735 37.2629 151.217 37.5264C150.692 37.7924 150.129 37.9777 149.549 38.0762C148.931 38.1772 148.306 38.2317 147.68 38.2393C147.387 38.2461 147.08 38.25 146.782 38.25L145.698 38.252L7.57182 38.25Z" transform="translate(3.49219 3.50195) scale(4)" fill="black"/>
<path d="M14.7973 6.32767C14.8081 5.49301 15.0298 4.67463 15.4418 3.94868C15.8538 3.22273 16.4428 2.61279 17.1539 2.17561C16.7021 1.53045 16.1062 0.999512 15.4134 0.62496C14.7205 0.250407 13.9499 0.0425631 13.1627 0.0179335C11.4835 -0.158327 9.85552 1.02276 8.99981 1.02276C8.12754 1.02276 6.81004 0.0354334 5.39131 0.0646234C4.47364 0.0942715 3.57929 0.361125 2.79541 0.839183C2.01154 1.31724 1.36486 1.9902 0.918393 2.79249C-1.01561 6.14091 0.426982 11.062 2.27959 13.7686C3.20649 15.0939 4.28977 16.5744 5.70722 16.5219C7.09428 16.4643 7.61232 15.6374 9.28662 15.6374C10.9454 15.6374 11.4314 16.5219 12.8776 16.4885C14.366 16.4643 15.3038 15.1573 16.1981 13.8194C16.8641 12.875 17.3766 11.8313 17.7166 10.7268C16.8518 10.3611 16.1139 9.74894 15.5948 8.96664C15.0757 8.18435 14.7983 7.26654 14.7973 6.32767Z" transform="translate(39.8867 55.8936) scale(4)" fill="white"/>
<path d="M3.24656 3.49062C4.05808 2.51641 4.45789 1.26423 4.36108 1.5686e-07C3.12124 0.130221 1.97599 0.72278 1.1535 1.65961C0.751355 2.11728 0.443358 2.64971 0.247113 3.22648C0.0508672 3.80325 -0.0297777 4.41304 0.00978693 5.021C0.629926 5.02739 1.24343 4.89297 1.80409 4.62788C2.36476 4.3628 2.85796 3.97395 3.24656 3.49062Z" transform="translate(75.1641 34.8828) scale(4)" fill="white"/>
<path d="M10.8008 12.418V3.27835H10.7402L6.99708 12.3233H5.56836L1.81543 3.27835H1.75584V12.418H-2.09961e-07V2.04468e-07H2.22949L6.24804 9.80176H6.3164L10.3271 2.04468e-07H12.5644V12.418L10.8008 12.418Z" transform="translate(141.393 72.3145) scale(4)" fill="white"/>
<path d="M-9.15527e-08 6.59184C-9.15527e-08 5.00884 1.21289 4.05278 3.36523 3.92384L5.84375 3.78614V3.09766C5.84375 2.09082 5.18066 1.52246 4.05275 1.52246C3.63499 1.4669 3.21131 1.56571 2.86124 1.80036C2.51116 2.035 2.25875 2.38934 2.15138 2.79687H0.413101C0.464861 1.16113 1.9883 8.18481e-07 4.10451 8.18481e-07C6.26467 8.18481e-07 7.69338 1.17871 7.69338 2.96V9.16508H5.91213V7.67583H5.86913C5.58386 8.1808 5.16816 8.59985 4.66549 8.88915C4.16281 9.17846 3.59165 9.32738 3.01171 9.32036C2.63083 9.35762 2.24636 9.31482 1.88301 9.1947C1.51965 9.07457 1.18543 8.87978 0.901817 8.62283C0.618202 8.36589 0.39146 8.05246 0.236153 7.70269C0.0808454 7.35292 0.000405376 6.97454 -9.15527e-08 6.59184ZM5.84375 5.77446V5.07719L3.61426 5.21489C2.50391 5.28423 1.87598 5.76567 1.87598 6.54009C1.87598 7.33209 2.53028 7.84868 3.52832 7.84868C3.81737 7.86829 4.10743 7.82983 4.38139 7.73557C4.65534 7.64131 4.90766 7.49316 5.12345 7.29985C5.33925 7.10653 5.51416 6.87197 5.63787 6.61C5.76158 6.34802 5.83159 6.06392 5.84377 5.77446H5.84375Z" transform="translate(197.584 85.3262) scale(4)" fill="white"/>
<path d="M6.40234 3.23958C6.32109 2.74434 6.05654 2.29777 5.66124 1.98858C5.26593 1.67939 4.76878 1.5302 4.26855 1.57063C2.83984 1.57063 1.89355 2.76692 1.89355 4.65168C1.89355 6.57941 2.84863 7.74055 4.28515 7.74055C4.77873 7.78998 5.27258 7.64928 5.66599 7.34714C6.0594 7.045 6.32275 6.60418 6.40234 6.11455H8.19234C8.08098 7.05078 7.60858 7.90656 6.87572 8.49971C6.14286 9.09287 5.20743 9.37655 4.26855 9.29036C1.68655 9.29036 -6.40869e-07 7.52571 -6.40869e-07 4.65169C-6.40869e-07 1.83724 1.68652 0.0130241 4.251 0.0130241C5.19676 -0.0671767 6.13644 0.225287 6.86964 0.828048C7.60284 1.43081 8.07155 2.29617 8.1758 3.23958H6.40234Z" transform="translate(233.963 85.2744) scale(4)" fill="white"/>
<path d="M7.875 9.06155H3.1416L2.00488 12.418H2.31934e-07L4.4834 2.04468e-07H6.5664L11.0498 12.418H9.0107L7.875 9.06155ZM3.63184 7.51272H7.38384L5.53423 2.06545H5.48247L3.63184 7.51272Z" transform="translate(283.537 72.3145) scale(4)" fill="white"/>
<path d="M8.52832 4.62375C8.52832 7.43723 7.02246 9.24484 4.75 9.24484C4.17435 9.27495 3.60185 9.14235 3.09805 8.86221C2.59426 8.58207 2.17953 8.16573 1.90137 7.66084H1.85837V12.1452H1.79443e-06V0.0964002H1.79883V1.60226H1.83301C2.12396 1.09979 2.54569 0.685602 3.05332 0.403756C3.56095 0.12191 4.1355 -0.0170463 4.71582 0.00166986C7.01367 0.00167986 8.52832 1.81808 8.52832 4.62375ZM6.61816 4.62375C6.61816 2.79075 5.67089 1.58566 4.22558 1.58566C2.80566 1.58566 1.85058 2.81613 1.85058 4.62375C1.85058 6.44797 2.80566 7.66965 4.22558 7.66965C5.6709 7.66965 6.61816 6.47336 6.61816 4.62375Z" transform="translate(332.354 85.3857) scale(4)" fill="white"/>
<path d="M8.52835 4.62375C8.52835 7.43723 7.02249 9.24484 4.75003 9.24484C4.17437 9.27495 3.60187 9.14235 3.09808 8.86221C2.59429 8.58207 2.17957 8.16573 1.9014 7.66084H1.8584V12.1452H-2.60254e-06V0.0964001H1.79883V1.60226H1.83301C2.12397 1.09979 2.5457 0.685604 3.05333 0.403758C3.56096 0.121912 4.13549 -0.0170454 4.71582 0.00166968C7.0137 0.00167968 8.52835 1.81808 8.52835 4.62375ZM6.61819 4.62375C6.61819 2.79075 5.67092 1.58566 4.22561 1.58566C2.80569 1.58566 1.85061 2.81613 1.85061 4.62375C1.85061 6.44797 2.80569 7.66965 4.22561 7.66965C5.67093 7.66965 6.6182 6.47336 6.6182 4.62375H6.61819Z" transform="translate(372.213 85.3857) scale(4)" fill="white"/>
<path d="M1.90237 9.16509C2.04007 10.3965 3.23637 11.2051 4.87112 11.2051C6.43753 11.2051 7.56448 10.3965 7.56448 9.28614C7.56448 8.32227 6.88479 7.74514 5.27542 7.34962L3.66605 6.96192C1.38578 6.41114 0.327178 5.34473 0.327178 3.61426C0.327178 1.47168 2.19437 3.44238e-07 4.84573 3.44238e-07C7.46973 3.44238e-07 9.26858 1.47168 9.32913 3.61426H7.45313C7.34083 2.375 6.31641 1.62696 4.81934 1.62696C3.32227 1.62696 2.29785 2.3838 2.29785 3.48536C2.29785 4.36329 2.95216 4.87989 4.55274 5.27536L5.9209 5.6113C8.46875 6.21384 9.52735 7.2373 9.52735 9.05368C9.52735 11.3769 7.67676 12.832 4.7334 12.832C1.97949 12.832 0.120119 11.4111 -9.10645e-07 9.165L1.90237 9.16509Z" transform="translate(425.061 71.4863) scale(4)" fill="white"/>
<path d="M3.1836 8.72803e-07V2.14258H4.90528V3.61426H3.1836V8.60547C3.1836 9.38086 3.52833 9.74219 4.28516 9.74219C4.48955 9.73863 4.69361 9.72427 4.89649 9.69919V11.1621C4.55622 11.2257 4.21036 11.2545 3.86426 11.248C2.03126 11.248 1.31641 10.5595 1.31641 8.80368V3.61426H-3.46436e-06V2.14258H1.31641V8.72803e-07H3.1836Z" transform="translate(466.479 77.2012) scale(4)" fill="white"/>
<path d="M3.72314e-06 4.63867C3.72314e-06 1.79004 1.67773 4.09546e-07 4.29395 4.09546e-07C6.91895 4.09546e-07 8.58886 1.79 8.58886 4.63867C8.58886 7.49512 6.92774 9.27734 4.29395 9.27734C1.66115 9.27734 3.72314e-06 7.49511 3.72314e-06 4.63867ZM6.69531 4.63867C6.69531 2.68457 5.7998 1.53125 4.29394 1.53125C2.78808 1.53125 1.89257 2.69336 1.89257 4.63867C1.89257 6.60058 2.78808 7.74512 4.29394 7.74512C5.7998 7.74512 6.69532 6.60058 6.69532 4.63867H6.69531Z" transform="translate(490.084 85.3262) scale(4)" fill="white"/>
<path d="M6.92383e-06 0.0963143H1.77245V1.63731H1.81547C1.93539 1.15603 2.21733 0.730696 2.61391 0.432811C3.0105 0.134926 3.49755 -0.0173529 3.99319 0.00157249C4.20735 0.000824723 4.42092 0.0240849 4.62991 0.0709141V1.80919C4.35954 1.72658 4.0775 1.68865 3.79491 1.69689C3.52494 1.68594 3.25578 1.73354 3.00594 1.83643C2.7561 1.93932 2.53148 2.09505 2.34751 2.29294C2.16354 2.49083 2.02456 2.72619 1.94013 2.98286C1.8557 3.23953 1.82783 3.51143 1.85841 3.77989V9.15001H6.92383e-06V0.0963143Z" transform="translate(530.572 85.3867) scale(4)" fill="white"/>
<path d="M8.16699 6.50586C7.91699 8.14941 6.3164 9.27734 4.26855 9.27734C1.63476 9.27734 -4.89746e-06 7.51269 -4.89746e-06 4.68164C-4.89746e-06 1.8418 1.64354 8.72803e-07 4.19042 8.72803e-07C6.6953 8.72803e-07 8.2705 1.7207 8.2705 4.46582V5.10254H1.87599V5.21484C1.84647 5.54804 1.88819 5.88371 1.99836 6.19955C2.10854 6.51539 2.28465 6.80417 2.51501 7.04672C2.74537 7.28927 3.02469 7.48003 3.33444 7.60633C3.64418 7.73264 3.97725 7.7916 4.31153 7.77929C4.75069 7.82044 5.1914 7.71873 5.56811 7.48929C5.94482 7.25985 6.23741 6.91493 6.40235 6.50585L8.16699 6.50586ZM1.88476 3.80371H6.41113C6.42781 3.50411 6.38238 3.2043 6.27771 2.92309C6.17303 2.64189 6.01136 2.38535 5.80284 2.16958C5.59432 1.95382 5.34345 1.78348 5.06597 1.66926C4.7885 1.55505 4.49042 1.49942 4.19042 1.50586C3.88779 1.50406 3.58781 1.5622 3.30776 1.67694C3.02772 1.79169 2.77318 1.96075 2.55882 2.17439C2.34446 2.38802 2.17454 2.64199 2.05885 2.92164C1.94316 3.20129 1.884 3.50108 1.88478 3.80372L1.88476 3.80371Z" transform="translate(550.693 85.3262) scale(4)" fill="white"/>
<path d="M2.15527 0.00677079C2.54489 -0.0211884 2.93585 0.0376716 3.29996 0.179105C3.66407 0.320537 3.99226 0.541018 4.26084 0.824643C4.52943 1.10827 4.73172 1.44797 4.85312 1.81924C4.97452 2.19051 5.01201 2.5841 4.96289 2.97161C4.96289 4.87786 3.93262 5.97361 2.15527 5.97361H1.32568e-06V0.00677079H2.15527ZM0.926751 5.12977H2.05175C2.33016 5.14641 2.60877 5.10076 2.86731 4.99615C3.12585 4.89154 3.35781 4.73059 3.5463 4.52502C3.73479 4.31946 3.87508 4.07445 3.95694 3.80783C4.0388 3.54121 4.06018 3.25969 4.01952 2.98377C4.05723 2.70894 4.03368 2.42917 3.95056 2.1645C3.86745 1.89984 3.72681 1.65683 3.53875 1.4529C3.35069 1.24897 3.11984 1.08917 2.86276 0.98493C2.60568 0.880693 2.32873 0.83461 2.05175 0.849981H0.926751V5.12977Z" transform="translate(142.684 34.8975) scale(4)" fill="white"/>
<path d="M0.0100445 2.33638C-0.0182646 2.04046 0.0155884 1.74189 0.109429 1.45982C0.203269 1.17775 0.355024 0.918412 0.554966 0.698429C0.754908 0.478447 0.998623 0.302681 1.27047 0.182406C1.54232 0.0621302 1.83631 2.12805e-07 2.13358 2.12805e-07C2.43085 2.12805e-07 2.72484 0.0621302 2.99669 0.182406C3.26854 0.302681 3.51225 0.478447 3.71219 0.698429C3.91213 0.918412 4.06389 1.17775 4.15773 1.45982C4.25157 1.74189 4.28542 2.04046 4.25711 2.33638C4.28596 2.6326 4.25251 2.93158 4.15892 3.21411C4.06533 3.49663 3.91366 3.75645 3.71367 3.97686C3.51368 4.19728 3.26978 4.37341 2.99766 4.49395C2.72553 4.61448 2.4312 4.67675 2.13358 4.67675C1.83596 4.67675 1.54162 4.61448 1.2695 4.49395C0.997378 4.37341 0.753483 4.19728 0.55349 3.97686C0.353497 3.75645 0.201831 3.49663 0.108239 3.21411C0.0146465 2.93158 -0.0188018 2.6326 0.0100445 2.33638ZM3.34304 2.33638C3.34304 1.36031 2.90456 0.789509 2.13504 0.789509C1.36258 0.789509 0.928044 1.36031 0.928044 2.33639C0.928044 3.32028 1.36261 3.88668 2.13504 3.88668C2.90457 3.88667 3.34306 3.31636 3.34306 2.33638H3.34304Z" transform="translate(166.682 40.4326) scale(4)" fill="white"/>
<path d="M5.0039 4.50293H4.08203L3.15137 1.18652H3.08106L2.1543 4.50293H1.24121L-1.17432e-06 4.04053e-07H0.90137L1.70801 3.436H1.77442L2.7002 4.04053e-07H3.55274L4.47852 3.436H4.54883L5.35156 4.04053e-07H6.24023L5.0039 4.50293Z" transform="translate(186.277 40.7803) scale(4)" fill="white"/>
<path d="M8.51318e-06 0.091353H0.85547V0.806682H0.92188C1.03453 0.549762 1.22454 0.33439 1.46541 0.190584C1.70628 0.0467778 1.98602 -0.0182965 2.26563 0.00443224C2.48473 -0.0120407 2.70473 0.0209949 2.90933 0.101091C3.11392 0.181187 3.29788 0.306291 3.44756 0.467135C3.59724 0.627979 3.70882 0.820439 3.77402 1.03026C3.83922 1.24008 3.85638 1.46188 3.82422 1.67923V4.59423H2.93555V1.90239C2.93555 1.17876 2.6211 0.818893 1.96387 0.818893C1.81511 0.811965 1.66661 0.837283 1.52856 0.893113C1.3905 0.948943 1.26615 1.03396 1.16403 1.14235C1.0619 1.25073 0.984418 1.37992 0.936891 1.52105C0.889363 1.66218 0.872913 1.81192 0.888669 1.96V4.59428H8.83789e-07L8.51318e-06 0.091353Z" transform="translate(215.414 40.415) scale(4)" fill="white"/>
<path d="M-9.26514e-07 2.74658e-07H0.888671V6.26074H-9.26514e-07V2.74658e-07Z" transform="translate(236.375 33.749) scale(4)" fill="white"/>
<path d="M0.0100439 2.33638C-0.0182652 2.04046 0.0155878 1.74189 0.109428 1.45982C0.203269 1.17775 0.355028 0.918412 0.55497 0.698429C0.754912 0.478447 0.998623 0.302681 1.27047 0.182406C1.54232 0.0621302 1.83631 2.12805e-07 2.13358 2.12805e-07C2.43085 2.12805e-07 2.72483 0.0621302 2.99668 0.182406C3.26854 0.302681 3.51225 0.478447 3.71219 0.698429C3.91213 0.918412 4.06389 1.17775 4.15773 1.45982C4.25157 1.74189 4.28542 2.04046 4.25711 2.33638C4.28596 2.6326 4.25252 2.93158 4.15892 3.21411C4.06533 3.49663 3.91367 3.75645 3.71367 3.97686C3.51368 4.19728 3.26978 4.37341 2.99766 4.49395C2.72554 4.61448 2.4312 4.67675 2.13358 4.67675C1.83596 4.67675 1.54162 4.61448 1.2695 4.49395C0.997377 4.37341 0.753483 4.19728 0.55349 3.97686C0.353496 3.75645 0.20183 3.49663 0.108238 3.21411C0.0146458 2.93158 -0.0188025 2.6326 0.0100439 2.33638ZM3.34304 2.33638C3.34304 1.36031 2.90456 0.789509 2.13504 0.789509C1.36258 0.789509 0.928047 1.36031 0.928047 2.33639C0.928047 3.32028 1.36261 3.88668 2.13504 3.88668C2.90457 3.88667 3.34305 3.31636 3.34305 2.33638H3.34304Z" transform="translate(244.83 40.4326) scale(4)" fill="white"/>
<path d="M3.51318e-06 3.3164C3.51318e-06 2.50585 0.603521 2.03857 1.6748 1.97216L2.89453 1.90185V1.51318C2.89453 1.03759 2.58008 0.76904 1.97266 0.76904C1.47657 0.76904 1.13282 0.95117 1.03418 1.26953H0.173832C0.264652 0.49609 0.992188 -3.07007e-07 2.01367 -3.07007e-07C3.14258 -3.07007e-07 3.7793 0.562 3.7793 1.51318V4.58984H2.92383V3.95703H2.85352C2.7108 4.18402 2.5104 4.36907 2.27278 4.49328C2.03515 4.61749 1.76882 4.67641 1.50098 4.66403C1.31195 4.68369 1.12089 4.66352 0.940128 4.60483C0.759367 4.54613 0.592913 4.4502 0.451496 4.32323C0.310078 4.19626 0.19684 4.04107 0.119075 3.86765C0.0413106 3.69424 0.000748286 3.50645 3.51318e-06 3.3164ZM2.89453 2.93163V2.55517L1.79492 2.62548C1.1748 2.66698 0.893551 2.87792 0.893551 3.27489C0.893551 3.68016 1.24511 3.916 1.72855 3.916C1.87019 3.93034 2.01328 3.91604 2.14928 3.87395C2.28529 3.83186 2.41144 3.76284 2.52022 3.671C2.62901 3.57915 2.7182 3.46637 2.7825 3.33935C2.84681 3.21233 2.88491 3.07367 2.89453 2.93163Z" transform="translate(265.602 40.4326) scale(4)" fill="white"/>
<path d="M-8.61816e-07 4.00734C-8.61816e-07 2.58449 0.73145 1.68312 1.86914 1.68312C2.15056 1.67015 2.42985 1.73756 2.67438 1.87745C2.9189 2.01735 3.11855 2.22395 3.25 2.47312H3.31641V2.74658e-07H4.20508V6.26074H3.35352V5.54931H3.28321C3.1416 5.7968 2.93499 6.00084 2.68574 6.13932C2.43648 6.2778 2.15409 6.34545 1.86915 6.33495C0.723627 6.335 -8.61816e-07 5.43361 -8.61816e-07 4.00734ZM0.917998 4.00734C0.917998 4.96242 1.3682 5.53713 2.12113 5.53713C2.87013 5.53713 3.33304 4.95413 3.33304 4.01125C3.33304 3.07277 2.86527 2.48146 2.12113 2.48146C1.37304 2.48146 0.91796 3.06007 0.91796 4.00734H0.917998Z" transform="translate(285.391 33.749) scale(4)" fill="white"/>
<path d="M0.0100176 2.33646C-0.0182698 2.04052 0.015604 1.74194 0.109467 1.45986C0.20333 1.17778 0.355114 0.918429 0.555077 0.698442C0.755039 0.478454 0.998768 0.302686 1.27064 0.182409C1.54251 0.0621314 1.83651 3.99286e-07 2.1338 3.99286e-07C2.43108 3.99286e-07 2.72509 0.0621314 2.99696 0.182409C3.26883 0.302686 3.51256 0.478454 3.71252 0.698442C3.91249 0.918429 4.06427 1.17778 4.15813 1.45986C4.252 1.74194 4.28587 2.04052 4.25758 2.33646C4.28639 2.6327 4.25291 2.93168 4.15929 3.21421C4.06567 3.49673 3.91398 3.75654 3.71397 3.97695C3.51395 4.19736 3.27004 4.37348 2.99791 4.49401C2.72578 4.61454 2.43143 4.67681 2.1338 4.67681C1.83617 4.67681 1.54183 4.61454 1.26969 4.49401C0.997557 4.37348 0.753647 4.19736 0.553635 3.97695C0.353623 3.75654 0.201936 3.49673 0.108315 3.21421C0.0146934 2.93168 -0.0187922 2.6327 0.0100176 2.33646ZM3.34302 2.33646C3.34302 1.36039 2.90454 0.789593 2.13502 0.789593C1.36256 0.789593 0.928017 1.36039 0.928017 2.33647C0.928017 3.32036 1.36259 3.88676 2.13502 3.88676C2.90451 3.88675 3.34303 3.31644 3.34303 2.33646H3.34302Z" transform="translate(316.877 40.4326) scale(4)" fill="white"/>
<path d="M-1.14746e-06 0.091353H0.855468V0.806682H0.921881C1.03454 0.549762 1.22454 0.33439 1.46541 0.190584C1.70628 0.0467778 1.98602 -0.0182965 2.26563 0.00443224C2.48473 -0.0120407 2.70473 0.0209949 2.90932 0.101091C3.11392 0.181187 3.29788 0.306291 3.44756 0.467135C3.59725 0.627979 3.70882 0.820439 3.77402 1.03026C3.83923 1.24008 3.85638 1.46188 3.82422 1.67923V4.59423H2.93555V1.90239C2.93555 1.17876 2.6211 0.818893 1.96387 0.818893C1.81512 0.811965 1.66661 0.837283 1.52856 0.893113C1.3905 0.948943 1.26615 1.03396 1.16402 1.14235C1.0619 1.25073 0.984416 1.37992 0.936889 1.52105C0.889361 1.66218 0.872915 1.81192 0.888671 1.96V4.59428H-1.14746e-06V0.091353Z" transform="translate(338.678 40.415) scale(4)" fill="white"/>
<path d="M1.60449 4.6875e-07V1.1416H2.58008V1.89014H1.60449V4.20557C1.60449 4.67725 1.79883 4.88379 2.24121 4.88379C2.35446 4.88343 2.46761 4.87658 2.58008 4.86328V5.60351C2.42049 5.63206 2.25879 5.64725 2.09668 5.64892C1.1084 5.64892 0.714841 5.30126 0.714841 4.4331V1.8901H-2.58057e-06V1.14156H0.714841V4.6875e-07H1.60449Z" transform="translate(367.643 36.2959) scale(4)" fill="white"/>
<path d="M2.73193e-06 2.74658e-07H0.880862V2.48145H0.951167C1.0693 2.22213 1.26452 2.00554 1.51022 1.86119C1.75592 1.71684 2.04014 1.65176 2.32417 1.67481C2.54213 1.66295 2.76002 1.69934 2.9623 1.78138C3.16458 1.86342 3.34626 1.9891 3.49438 2.14943C3.6425 2.30977 3.75341 2.50082 3.81919 2.70896C3.88498 2.91709 3.90401 3.13718 3.87495 3.35352V6.26075H2.98539V3.57275C2.98539 2.85351 2.65039 2.48925 2.0225 2.48925C1.86976 2.47672 1.71613 2.49772 1.57235 2.55077C1.42858 2.60383 1.29813 2.68766 1.19013 2.79639C1.08214 2.90513 0.999212 3.03615 0.947146 3.18029C0.895081 3.32443 0.875138 3.4782 0.888713 3.63085V6.26073H4.08789e-05L2.73193e-06 2.74658e-07Z" transform="translate(382.818 33.749) scale(4)" fill="white"/>
<path d="M4.05046 3.3741C3.92972 3.78563 3.66812 4.14162 3.31143 4.37977C2.95474 4.61792 2.52567 4.72307 2.09928 4.67683C1.80262 4.68466 1.5078 4.62784 1.2353 4.51031C0.9628 4.39278 0.719138 4.21736 0.521228 3.99622C0.323318 3.77508 0.175905 3.51353 0.0892138 3.2297C0.00252232 2.94588 -0.0213642 2.6466 0.0192064 2.35262C-0.0202985 2.05773 0.00400858 1.7578 0.0904955 1.47313C0.176982 1.18845 0.323629 0.925686 0.520496 0.702612C0.717363 0.479539 0.959859 0.301367 1.23157 0.18016C1.50328 0.0589523 1.79786 -0.00246132 2.09537 7.56723e-05C3.3483 7.56723e-05 4.10416 0.856075 4.10416 2.27008V2.58017H0.924472V2.62997C0.910557 2.79521 0.931331 2.96154 0.985454 3.11829C1.03958 3.27504 1.12586 3.41875 1.23877 3.54021C1.35167 3.66166 1.48872 3.75818 1.64111 3.82358C1.7935 3.88898 1.95787 3.92181 2.12369 3.91997C2.33627 3.94548 2.55163 3.90721 2.74239 3.81C2.93315 3.71279 3.09069 3.56105 3.19498 3.37407L4.05046 3.3741ZM0.924449 1.92293H3.19886C3.21007 1.7718 3.18953 1.62 3.13857 1.47728C3.08761 1.33456 3.00737 1.20408 2.90298 1.09422C2.79859 0.984367 2.67238 0.897562 2.53245 0.839386C2.39252 0.781211 2.24197 0.752952 2.09047 0.756425C1.93677 0.754494 1.78423 0.783352 1.64186 0.841297C1.49949 0.899241 1.37017 0.985101 1.2615 1.09381C1.15283 1.20253 1.06703 1.33189 1.00915 1.47429C0.951268 1.61669 0.922474 1.76923 0.924472 1.92293H0.924449Z" transform="translate(402.844 40.4326) scale(4)" fill="white"/>
</svg>
