<?xml version="1.0" encoding="utf-8"?>
<!-- Generator: Adobe Illustrator 22.0.1, SVG Export Plug-In . SVG Version: 6.00 Build 0)  -->
<svg version="1.1" id="Layer_1" xmlns="http://www.w3.org/2000/svg" xmlns:xlink="http://www.w3.org/1999/xlink" x="0px" y="0px"
	 viewBox="0 0 493.1 374" style="enable-background:new 0 0 493.1 374;" xml:space="preserve">
<style type="text/css">
	.st0{display:none;}
	.st1{display:inline;fill:url(#SVGID_1_);}
	.st2{display:inline;}
	.st3{opacity:0.25;fill:url(#SVGID_2_);enable-background:new    ;}
	.st4{opacity:0.65;fill:url(#SVGID_3_);enable-background:new    ;}
	.st5{opacity:0.5;fill:url(#SVGID_4_);enable-background:new    ;}
	.st6{display:inline;fill:url(#SVGID_5_);}
	.st7{display:inline;fill:url(#SVGID_6_);}
	.st8{display:inline;opacity:0.67;fill:url(#SVGID_7_);enable-background:new    ;}
	.st9{fill:url(#SVGID_8_);}
	.st10{fill:url(#SVGID_9_);}
	.st11{fill:url(#SVGID_10_);}
	.st12{fill:url(#SVGID_11_);}
	.st13{fill:url(#SVGID_12_);}
	.st14{fill:url(#SVGID_13_);}
	.st15{fill:url(#SVGID_14_);}
</style>
<g class="st0">
	
		<linearGradient id="SVGID_1_" gradientUnits="userSpaceOnUse" x1="8057.2505" y1="-454.3" x2="8125.6504" y2="-454.3" gradientTransform="matrix(-1 0 0 -1 8361.6504 -328)">
		<stop  offset="0" style="stop-color:#FFA959"/>
		<stop  offset="0.4307" style="stop-color:#FFB05E"/>
		<stop  offset="1" style="stop-color:#FFC16B"/>
	</linearGradient>
	<polygon class="st1" points="304.4,126.4 270.4,106.5 236,126.4 270.2,146.1 	"/>
	<g class="st2">
		
			<linearGradient id="SVGID_2_" gradientUnits="userSpaceOnUse" x1="8057.1504" y1="-459.25" x2="8125.6748" y2="-459.25" gradientTransform="matrix(-1 0 0 -1 8361.6504 -328)">
			<stop  offset="0" style="stop-color:#FFA959"/>
			<stop  offset="0.4307" style="stop-color:#FFB05E"/>
			<stop  offset="1" style="stop-color:#FFC16B"/>
		</linearGradient>
		<polygon class="st3" points="304.5,131.3 270.3,111.5 235.9,131.2 270.2,151 		"/>
		
			<linearGradient id="SVGID_3_" gradientUnits="userSpaceOnUse" x1="237.7984" y1="-492.8048" x2="297.7984" y2="-467.8048" gradientTransform="matrix(1 0 0 -1 0 -328)">
			<stop  offset="0" style="stop-color:#FFA959"/>
			<stop  offset="0.4307" style="stop-color:#FFB05E"/>
			<stop  offset="1" style="stop-color:#FFC16B"/>
		</linearGradient>
		<polygon class="st4" points="304.5,131.3 270.2,151 235.9,131.2 270.2,185.7 		"/>
		
			<linearGradient id="SVGID_4_" gradientUnits="userSpaceOnUse" x1="8091.4502" y1="-486.45" x2="8125.7129" y2="-486.45" gradientTransform="matrix(-1 0 0 -1 8361.6504 -328)">
			<stop  offset="0" style="stop-color:#FFA959"/>
			<stop  offset="0.4307" style="stop-color:#FFB05E"/>
			<stop  offset="1" style="stop-color:#FFC16B"/>
		</linearGradient>
		<polygon class="st5" points="235.9,131.2 270.2,151 270.2,185.7 		"/>
	</g>
	
		<linearGradient id="SVGID_5_" gradientUnits="userSpaceOnUse" x1="280.3018" y1="-510.0518" x2="266.5518" y2="-434.3018" gradientTransform="matrix(1 0 0 -1 0 -328)">
		<stop  offset="0" style="stop-color:#FFA959"/>
		<stop  offset="0.4307" style="stop-color:#FFB05E"/>
		<stop  offset="1" style="stop-color:#FFC16B"/>
	</linearGradient>
	<polygon class="st6" points="270.2,146.1 304.4,126.4 270.2,65.5 236,126.4 	"/>
	
		<linearGradient id="SVGID_6_" gradientUnits="userSpaceOnUse" x1="8091.4502" y1="-433.8" x2="8125.6504" y2="-433.8" gradientTransform="matrix(-1 0 0 -1 8361.6504 -328)">
		<stop  offset="0" style="stop-color:#FFA959"/>
		<stop  offset="0.4307" style="stop-color:#FFB05E"/>
		<stop  offset="1" style="stop-color:#FFC16B"/>
	</linearGradient>
	<polygon class="st7" points="236,126.4 270.2,65.5 270.2,146.1 	"/>
	
		<linearGradient id="SVGID_7_" gradientUnits="userSpaceOnUse" x1="304.4" y1="-453.95" x2="236" y2="-453.95" gradientTransform="matrix(1 0 0 -1 0 -328)">
		<stop  offset="0" style="stop-color:#FFA959"/>
		<stop  offset="0.4307" style="stop-color:#FFB05E"/>
		<stop  offset="1" style="stop-color:#FFC16B"/>
	</linearGradient>
	<polygon class="st8" points="270.2,146.1 236,126.4 270.2,105.8 304.4,126.4 	"/>
</g>
<linearGradient id="SVGID_8_" gradientUnits="userSpaceOnUse" x1="348.6" y1="-476.6624" x2="348.6" y2="-472.7501" gradientTransform="matrix(1 0 0 -1 0 -328)">
	<stop  offset="0" style="stop-color:#FFA959"/>
	<stop  offset="0.4307" style="stop-color:#FFB05E"/>
	<stop  offset="1" style="stop-color:#FFC16B"/>
</linearGradient>
<path class="st9" d="M350.2,146.1c0,0.9-0.7,1.6-1.6,1.6s-1.6-0.7-1.6-1.6c0-0.9,0.7-1.6,1.6-1.6S350.2,145.3,350.2,146.1z"/>
<linearGradient id="SVGID_9_" gradientUnits="userSpaceOnUse" x1="338.2" y1="-403.8197" x2="338.2" y2="-399.9074" gradientTransform="matrix(1 0 0 -1 0 -328)">
	<stop  offset="0" style="stop-color:#FFA959"/>
	<stop  offset="0.4307" style="stop-color:#FFB05E"/>
	<stop  offset="1" style="stop-color:#FFC16B"/>
</linearGradient>
<path class="st10" d="M339.8,73.3c0,0.9-0.7,1.6-1.6,1.6s-1.6-0.7-1.6-1.6s0.7-1.6,1.6-1.6S339.8,72.4,339.8,73.3z"/>
<linearGradient id="SVGID_10_" gradientUnits="userSpaceOnUse" x1="164.6" y1="-492.0808" x2="164.6" y2="-488.1685" gradientTransform="matrix(1 0 0 -1 0 -328)">
	<stop  offset="0" style="stop-color:#FFA959"/>
	<stop  offset="0.4307" style="stop-color:#FFB05E"/>
	<stop  offset="1" style="stop-color:#FFC16B"/>
</linearGradient>
<path class="st11" d="M166.2,161.5c0,0.9-0.7,1.6-1.6,1.6s-1.6-0.7-1.6-1.6c0-0.9,0.7-1.6,1.6-1.6S166.2,160.7,166.2,161.5z"/>
<linearGradient id="SVGID_11_" gradientUnits="userSpaceOnUse" x1="146.2" y1="-425.0135" x2="146.2" y2="-421.1012" gradientTransform="matrix(1 0 0 -1 0 -328)">
	<stop  offset="0" style="stop-color:#FFA959"/>
	<stop  offset="0.4307" style="stop-color:#FFB05E"/>
	<stop  offset="1" style="stop-color:#FFC16B"/>
</linearGradient>
<path class="st12" d="M147.8,94.5c0,0.9-0.7,1.6-1.6,1.6c-0.9,0-1.6-0.7-1.6-1.6s0.7-1.6,1.6-1.6S147.8,93.6,147.8,94.5z"/>
<linearGradient id="SVGID_12_" gradientUnits="userSpaceOnUse" x1="312.5" y1="-433.2632" x2="312.5" y2="-431.6315" gradientTransform="matrix(1 0 0 -1 0 -328)">
	<stop  offset="0" style="stop-color:#FFA959"/>
	<stop  offset="0.4307" style="stop-color:#FFB05E"/>
	<stop  offset="1" style="stop-color:#FFC16B"/>
</linearGradient>
<circle class="st13" cx="312.5" cy="104.2" r="0.7"/>
<linearGradient id="SVGID_13_" gradientUnits="userSpaceOnUse" x1="242.2" y1="-354.4209" x2="242.2" y2="-351.9087" gradientTransform="matrix(1 0 0 -1 0 -328)">
	<stop  offset="0" style="stop-color:#FFA959"/>
	<stop  offset="0.4307" style="stop-color:#FFB05E"/>
	<stop  offset="1" style="stop-color:#FFC16B"/>
</linearGradient>
<path class="st14" d="M243.2,24.8c0,0.6-0.5,1-1,1s-1-0.5-1-1c0-0.6,0.5-1,1-1S243.2,24.2,243.2,24.8z"/>
<linearGradient id="SVGID_14_" gradientUnits="userSpaceOnUse" x1="300.6" y1="-488.1932" x2="300.6" y2="-485.681" gradientTransform="matrix(1 0 0 -1 0 -328)">
	<stop  offset="0" style="stop-color:#FFA959"/>
	<stop  offset="0.4307" style="stop-color:#FFB05E"/>
	<stop  offset="1" style="stop-color:#FFC16B"/>
</linearGradient>
<path class="st15" d="M301.6,158.6c0,0.6-0.5,1-1,1c-0.6,0-1-0.5-1-1c0-0.6,0.5-1,1-1S301.6,158,301.6,158.6z"/>
<g id="Layer_2_1_">
</g>
</svg>
