<?xml version="1.0" encoding="utf-8"?>
<!-- Generator: Adobe Illustrator 22.0.1, SVG Export Plug-In . SVG Version: 6.00 Build 0)  -->
<svg version="1.1" id="Layer_1" xmlns="http://www.w3.org/2000/svg" xmlns:xlink="http://www.w3.org/1999/xlink" x="0px" y="0px"
	 viewBox="0 0 493.1 374" style="enable-background:new 0 0 493.1 374;" xml:space="preserve">
<style type="text/css">
	.st0{display:none;}
	.st1{display:inline;fill:url(#SVGID_1_);}
	.st2{display:inline;}
	.st3{opacity:0.25;fill:url(#SVGID_2_);enable-background:new    ;}
	.st4{opacity:0.65;fill:url(#SVGID_3_);enable-background:new    ;}
	.st5{opacity:0.5;fill:url(#SVGID_4_);enable-background:new    ;}
	.st6{display:inline;fill:url(#SVGID_5_);}
	.st7{display:inline;fill:url(#SVGID_6_);}
	.st8{display:inline;opacity:0.67;fill:url(#SVGID_7_);enable-background:new    ;}
	.st9{fill:#FFC16B;}
	.st10{opacity:0.2;fill:url(#SVGID_8_);enable-background:new    ;}
	.st11{fill:url(#SVGID_9_);}
	.st12{fill:url(#SVGID_10_);}
	.st13{opacity:0.39;fill:url(#SVGID_11_);enable-background:new    ;}
	.st14{fill:url(#SVGID_12_);}
	.st15{fill:url(#SVGID_13_);}
	.st16{fill:url(#SVGID_14_);}
	.st17{fill:url(#SVGID_15_);}
	.st18{fill:#FFFFFF;}
	.st19{fill:url(#SVGID_16_);}
	.st20{fill:url(#SVGID_17_);}
	.st21{opacity:0.44;fill:url(#SVGID_18_);enable-background:new    ;}
	.st22{fill:url(#SVGID_19_);}
	.st23{fill:url(#SVGID_20_);}
	.st24{fill:url(#SVGID_21_);}
	.st25{fill:url(#SVGID_22_);}
	.st26{fill:url(#SVGID_23_);}
	.st27{fill:url(#SVGID_24_);}
	.st28{fill:url(#SVGID_25_);}
	.st29{fill:url(#SVGID_26_);}
	.st30{fill:url(#SVGID_27_);}
	.st31{fill:url(#SVGID_28_);}
	.st32{fill:url(#SVGID_29_);}
	.st33{fill:url(#SVGID_30_);}
	.st34{fill:url(#SVGID_31_);}
	.st35{fill:url(#SVGID_32_);}
</style>
<g class="st0">
	
		<linearGradient id="SVGID_1_" gradientUnits="userSpaceOnUse" x1="9481.25" y1="830.3" x2="9549.6504" y2="830.3" gradientTransform="matrix(-1 0 0 1 9785.6504 -704)">
		<stop  offset="0" style="stop-color:#FFA959"/>
		<stop  offset="0.4307" style="stop-color:#FFB05E"/>
		<stop  offset="1" style="stop-color:#FFC16B"/>
	</linearGradient>
	<polygon class="st1" points="304.4,126.4 270.4,106.5 236,126.4 270.2,146.1 	"/>
	<g class="st2">
		
			<linearGradient id="SVGID_2_" gradientUnits="userSpaceOnUse" x1="9481.1504" y1="835.25" x2="9549.6748" y2="835.25" gradientTransform="matrix(-1 0 0 1 9785.6504 -704)">
			<stop  offset="0" style="stop-color:#FFA959"/>
			<stop  offset="0.4307" style="stop-color:#FFB05E"/>
			<stop  offset="1" style="stop-color:#FFC16B"/>
		</linearGradient>
		<polygon class="st3" points="304.5,131.3 270.3,111.5 235.9,131.2 270.2,151 		"/>
		
			<linearGradient id="SVGID_3_" gradientUnits="userSpaceOnUse" x1="237.7984" y1="868.8048" x2="297.7984" y2="843.8048" gradientTransform="matrix(1 0 0 1 0 -704)">
			<stop  offset="0" style="stop-color:#FFA959"/>
			<stop  offset="0.4307" style="stop-color:#FFB05E"/>
			<stop  offset="1" style="stop-color:#FFC16B"/>
		</linearGradient>
		<polygon class="st4" points="304.5,131.3 270.2,151 235.9,131.2 270.2,185.7 		"/>
		
			<linearGradient id="SVGID_4_" gradientUnits="userSpaceOnUse" x1="9515.4502" y1="862.45" x2="9549.7129" y2="862.45" gradientTransform="matrix(-1 0 0 1 9785.6504 -704)">
			<stop  offset="0" style="stop-color:#FFA959"/>
			<stop  offset="0.4307" style="stop-color:#FFB05E"/>
			<stop  offset="1" style="stop-color:#FFC16B"/>
		</linearGradient>
		<polygon class="st5" points="235.9,131.2 270.2,151 270.2,185.7 		"/>
	</g>
	
		<linearGradient id="SVGID_5_" gradientUnits="userSpaceOnUse" x1="280.3018" y1="886.0518" x2="266.5518" y2="810.3018" gradientTransform="matrix(1 0 0 1 0 -704)">
		<stop  offset="0" style="stop-color:#FFA959"/>
		<stop  offset="0.4307" style="stop-color:#FFB05E"/>
		<stop  offset="1" style="stop-color:#FFC16B"/>
	</linearGradient>
	<polygon class="st6" points="270.2,146.1 304.4,126.4 270.2,65.5 236,126.4 	"/>
	
		<linearGradient id="SVGID_6_" gradientUnits="userSpaceOnUse" x1="9515.4502" y1="809.8" x2="9549.6504" y2="809.8" gradientTransform="matrix(-1 0 0 1 9785.6504 -704)">
		<stop  offset="0" style="stop-color:#FFA959"/>
		<stop  offset="0.4307" style="stop-color:#FFB05E"/>
		<stop  offset="1" style="stop-color:#FFC16B"/>
	</linearGradient>
	<polygon class="st7" points="236,126.4 270.2,65.5 270.2,146.1 	"/>
	
		<linearGradient id="SVGID_7_" gradientUnits="userSpaceOnUse" x1="304.4" y1="829.95" x2="236" y2="829.95" gradientTransform="matrix(1 0 0 1 0 -704)">
		<stop  offset="0" style="stop-color:#FFA959"/>
		<stop  offset="0.4307" style="stop-color:#FFB05E"/>
		<stop  offset="1" style="stop-color:#FFC16B"/>
	</linearGradient>
	<polygon class="st8" points="270.2,146.1 236,126.4 270.2,105.8 304.4,126.4 	"/>
</g>
<g>
	<path class="st9" d="M385.5,329.4c-3.9,0-7.7-0.8-10.5-2.4l-91.5-52.8c-2.7-1.6-4.2-3.8-4.2-6.2c0-2.9,2.2-5.8,6-8l88-50.8
		c7.1-4.1,18-4.6,24.2-1L489,261c2.7,1.6,4.2,3.8,4.2,6.2c0,2.9-2.2,5.8-6,8l-88,50.8C395.2,328.2,390.2,329.4,385.5,329.4z
		 M375.1,326.6c6.1,3.5,16.8,3.1,23.8-1l88-50.8c3.7-2.1,5.8-4.9,5.8-7.7c0-2.3-1.4-4.3-4.1-5.8l-91.5-52.8
		c-6.1-3.5-16.8-3.1-23.8,1l-88,50.8c-3.7,2.1-5.8,4.9-5.8,7.7c0,2.3,1.4,4.3,4.1,5.8L375.1,326.6z"/>
	<path class="st9" d="M106.2,329.4c-3.9,0-7.7-0.8-10.5-2.4L4.2,274.2C1.5,272.6,0,270.4,0,268c0-2.9,2.2-5.8,6-8l88-50.8
		c7.1-4.1,18-4.6,24.2-1l91.5,52.8c2.7,1.6,4.2,3.8,4.2,6.2c0,2.9-2.2,5.8-6,8l-88,50.8C116,328.2,111,329.4,106.2,329.4z
		 M107.6,206.1c-4.7,0-9.6,1.1-13.5,3.4l-88,50.8c-3.7,2.1-5.8,4.9-5.8,7.7c0,2.3,1.4,4.3,4.1,5.8l91.5,52.8
		c6.1,3.5,16.8,3.1,23.8-1l88-50.8c3.7-2.1,5.8-4.9,5.8-7.7c0-2.3-1.4-4.3-4.1-5.8L118,208.5C115.2,206.9,111.5,206.1,107.6,206.1z"
		/>
	<g>
		
			<linearGradient id="SVGID_8_" gradientUnits="userSpaceOnUse" x1="247.4035" y1="1055.6252" x2="247.4035" y2="906.9301" gradientTransform="matrix(1 0 0 1 0 -704)">
			<stop  offset="0" style="stop-color:#FFA959"/>
			<stop  offset="0.4307" style="stop-color:#FFB05E"/>
			<stop  offset="1" style="stop-color:#FFC16B"/>
		</linearGradient>
		<path class="st10" d="M382,284.3l-118.8-68.6c-3.9-2.3-9.2-3.4-14.8-3.4c-6.7,0-13.8,1.6-19.3,4.8l-113.8,65.7
			c-5.3,3.1-8.3,7.1-8.2,11.1c0.1,3.1,2.1,6,5.7,8.1l118.8,68.6c8.7,5,24,4.4,34.1-1.4l113.8-65.7c5.4-3.1,8.4-7.2,8.2-11.3
			C387.6,289.1,385.6,286.3,382,284.3z"/>
		
			<linearGradient id="SVGID_9_" gradientUnits="userSpaceOnUse" x1="204.9537" y1="975.7424" x2="451.8523" y2="975.7424" gradientTransform="matrix(1 0 0 1 0 -704)">
			<stop  offset="0" style="stop-color:#FF7A59"/>
			<stop  offset="0.2473" style="stop-color:#FD7B52"/>
			<stop  offset="0.6029" style="stop-color:#F97F3F"/>
			<stop  offset="1" style="stop-color:#F28522"/>
		</linearGradient>
		<path class="st11" d="M381.9,262.9l-118.8-68.6c-3.9-2.3-9.2-3.4-14.8-3.4c-6.7,0-13.8,1.6-19.3,4.8l-113.8,65.7
			c-5.3,3.1-8.3,7.1-8.2,11.1c0.1,3.1,2.1,6,5.7,8.1l118.8,68.6c8.7,5,24,4.4,34.1-1.4L379.4,282c5.4-3.1,8.4-7.2,8.2-11.3
			C387.5,267.7,385.5,264.9,381.9,262.9z"/>
		
			<linearGradient id="SVGID_10_" gradientUnits="userSpaceOnUse" x1="247.4035" y1="1030.9854" x2="247.4035" y2="882.2903" gradientTransform="matrix(1 0 0 1 0 -704)">
			<stop  offset="0" style="stop-color:#FFA959"/>
			<stop  offset="0.4307" style="stop-color:#FFB05E"/>
			<stop  offset="1" style="stop-color:#FFC16B"/>
		</linearGradient>
		<path class="st12" d="M382,259.6L263.2,191c-3.9-2.3-9.2-3.4-14.8-3.4c-6.7,0-13.8,1.6-19.3,4.8l-113.8,65.7
			c-5.3,3.1-8.3,7.1-8.2,11.1c0.1,3.1,2.1,6,5.7,8.1l118.8,68.6c8.7,5,24,4.4,34.1-1.4l113.8-65.7c5.4-3.1,8.4-7.2,8.2-11.3
			C387.6,264.4,385.6,261.7,382,259.6z"/>
		
			<linearGradient id="SVGID_11_" gradientUnits="userSpaceOnUse" x1="128" y1="967.719" x2="322.925" y2="967.719" gradientTransform="matrix(1 0 0 1 0 -704)">
			<stop  offset="0" style="stop-color:#FF7A59"/>
			<stop  offset="0.2473" style="stop-color:#FD7B52"/>
			<stop  offset="0.6029" style="stop-color:#F97F3F"/>
			<stop  offset="1" style="stop-color:#F28522"/>
		</linearGradient>
		<path class="st13" d="M298.4,297.4c-32.7,18.9-90.6,14.3-126.5,2.2C133.6,286.7,128,276.8,128,265c0-17.5,26.2-27.7,51.8-36.1
			c35.9-11.8,85.8-18.8,118.6,0.1C331.1,247.9,331.1,278.5,298.4,297.4z"/>
		
			<linearGradient id="SVGID_12_" gradientUnits="userSpaceOnUse" x1="169" y1="962.7" x2="325.8" y2="962.7" gradientTransform="matrix(1 0 0 1 0 -704)">
			<stop  offset="0" style="stop-color:#FFA959"/>
			<stop  offset="0.4307" style="stop-color:#FFB05E"/>
			<stop  offset="1" style="stop-color:#FFC16B"/>
		</linearGradient>
		<ellipse class="st14" cx="247.4" cy="258.7" rx="78.4" ry="45.3"/>
		
			<linearGradient id="SVGID_13_" gradientUnits="userSpaceOnUse" x1="169" y1="959.3" x2="325.8" y2="959.3" gradientTransform="matrix(1 0 0 1 0 -704)">
			<stop  offset="0" style="stop-color:#FF7A59"/>
			<stop  offset="0.2473" style="stop-color:#FD7B52"/>
			<stop  offset="0.6029" style="stop-color:#F97F3F"/>
			<stop  offset="1" style="stop-color:#F28522"/>
		</linearGradient>
		<ellipse class="st15" cx="247.4" cy="255.3" rx="78.4" ry="45.3"/>
		
			<linearGradient id="SVGID_14_" gradientUnits="userSpaceOnUse" x1="171.9" y1="952.375" x2="323" y2="952.375" gradientTransform="matrix(1 0 0 1 0 -704)">
			<stop  offset="0" style="stop-color:#FFA959"/>
			<stop  offset="0.4307" style="stop-color:#FFB05E"/>
			<stop  offset="1" style="stop-color:#FFC16B"/>
		</linearGradient>
		<path class="st16" d="M171.9,203v47.1l0,0c0,11.2,7.3,22.4,22.1,30.9c29.5,17,77.4,17,106.9,0c14.7-8.5,22-19.5,22.1-30.6l0,0V203
			H171.9z"/>
		
			<linearGradient id="SVGID_15_" gradientUnits="userSpaceOnUse" x1="192.8643" y1="905.4" x2="422.6296" y2="905.4" gradientTransform="matrix(1 0 0 1 0 -704)">
			<stop  offset="0" style="stop-color:#FFC16B"/>
			<stop  offset="0.2902" style="stop-color:#FEB05B"/>
			<stop  offset="0.7084" style="stop-color:#FC9D49"/>
			<stop  offset="1" style="stop-color:#FC9642"/>
		</linearGradient>
		<ellipse class="st17" cx="247.4" cy="201.4" rx="75.5" ry="43.6"/>
		<path class="st18" d="M247.3,237.5c-17.9,0-35.8-3.9-49.5-11.8c-13.3-7.7-20.6-17.9-20.6-28.7c0-10.9,7.3-21,20.6-28.7
			c27.3-15.8,71.7-15.8,99,0c13.3,7.7,20.6,17.9,20.6,28.7c0,10.9-7.3,21-20.6,28.7l-0.1-0.2l0.1,0.2
			C283.1,233.5,265.2,237.5,247.3,237.5z M247.3,156.9c-17.8,0-35.7,3.9-49.2,11.8c-13.1,7.6-20.3,17.6-20.3,28.3
			s7.2,20.7,20.3,28.3c27.2,15.7,71.3,15.7,98.5,0c13.1-7.6,20.3-17.6,20.3-28.3s-7.2-20.7-20.3-28.3
			C283,160.8,265.1,156.9,247.3,156.9z"/>
		
			<linearGradient id="SVGID_16_" gradientUnits="userSpaceOnUse" x1="192.018" y1="915.175" x2="310.0181" y2="915.175" gradientTransform="matrix(1 0 0 1 0 -704)">
			<stop  offset="0" style="stop-color:#FF7A59"/>
			<stop  offset="0.2473" style="stop-color:#FD7B52"/>
			<stop  offset="0.6029" style="stop-color:#F97F3F"/>
			<stop  offset="1" style="stop-color:#F28522"/>
		</linearGradient>
		<path class="st19" d="M182.6,190.5v4l0,0c0,9.6,6.3,19.2,18.9,26.5c25.3,14.6,66.3,14.6,91.6,0c12.6-7.3,18.8-16.7,18.9-26.3l0,0
			v-4.3H182.6V190.5z"/>
		
			<linearGradient id="SVGID_17_" gradientUnits="userSpaceOnUse" x1="247.4" y1="826.8315" x2="247.4" y2="910.0094" gradientTransform="matrix(1 0 0 1 0 -704)">
			<stop  offset="0" style="stop-color:#FFA959"/>
			<stop  offset="0.4307" style="stop-color:#FFB05E"/>
			<stop  offset="1" style="stop-color:#FFC16B"/>
		</linearGradient>
		<ellipse class="st20" cx="247.4" cy="190.5" rx="64.8" ry="37.4"/>
		
			<linearGradient id="SVGID_18_" gradientUnits="userSpaceOnUse" x1="247.3" y1="866.4035" x2="247.3" y2="900.9061" gradientTransform="matrix(1 0 0 1 0 -704)">
			<stop  offset="0" style="stop-color:#FFA959"/>
			<stop  offset="0.4307" style="stop-color:#FFB05E"/>
			<stop  offset="1" style="stop-color:#FFC16B"/>
		</linearGradient>
		<ellipse class="st21" cx="247.3" cy="190.5" rx="26.9" ry="15.5"/>
		
			<linearGradient id="SVGID_19_" gradientUnits="userSpaceOnUse" x1="247.8" y1="873.013" x2="247.8" y2="898.7864" gradientTransform="matrix(1 0 0 1 0 -704)">
			<stop  offset="0" style="stop-color:#FFA959"/>
			<stop  offset="0.4307" style="stop-color:#FFB05E"/>
			<stop  offset="1" style="stop-color:#FFC16B"/>
		</linearGradient>
		<ellipse class="st22" cx="247.8" cy="190" rx="20.1" ry="11.6"/>
		<g>
			
				<linearGradient id="SVGID_20_" gradientUnits="userSpaceOnUse" x1="247.4" y1="719.1163" x2="247.4" y2="955.9777" gradientTransform="matrix(1 0 0 1 0 -704)">
				<stop  offset="0.2247" style="stop-color:#FFFFFF;stop-opacity:0"/>
				<stop  offset="0.3556" style="stop-color:#FFF7EC;stop-opacity:0.1687"/>
				<stop  offset="0.6209" style="stop-color:#FFE2BB;stop-opacity:0.511"/>
				<stop  offset="0.9941" style="stop-color:#FFC26C;stop-opacity:0.9924"/>
				<stop  offset="1" style="stop-color:#FFC16B"/>
			</linearGradient>
			<path class="st23" d="M312.2,10.2H182.6v179.9c0,9.6,6.3,19.1,19,26.4c25.3,14.6,66.3,14.6,91.6,0c12.6-7.3,19-16.9,19-26.4l0,0
				V10.2z"/>
			
				<linearGradient id="SVGID_21_" gradientUnits="userSpaceOnUse" x1="270.2" y1="719.1451" x2="270.2" y2="956.0058" gradientTransform="matrix(1 0 0 1 0 -704)">
				<stop  offset="0.2247" style="stop-color:#FFFFFF;stop-opacity:0"/>
				<stop  offset="0.3556" style="stop-color:#FFF7EC;stop-opacity:0.1687"/>
				<stop  offset="0.6209" style="stop-color:#FFE2BB;stop-opacity:0.511"/>
				<stop  offset="0.9941" style="stop-color:#FFC26C;stop-opacity:0.9924"/>
				<stop  offset="1" style="stop-color:#FFC16B"/>
			</linearGradient>
			<path class="st24" d="M291.8,10.2h-43.2v217.3c15.6-0.1,31-3.5,43.2-10.1V10.2z"/>
		</g>
		<path class="st18" d="M287,284.1l0.3-0.2c1-0.6,1.9-2.2,1.9-3.6v-36.9c0-1.4-0.8-2-1.9-1.4l-0.3,0.2c-1,0.6-1.9,2.2-1.9,3.6v36.9
			C285.1,284.1,286,284.7,287,284.1z"/>
		
			<linearGradient id="SVGID_22_" gradientUnits="userSpaceOnUse" x1="287.15" y1="999.1001" x2="287.15" y2="965.3697" gradientTransform="matrix(1 0 0 1 0 -704)">
			<stop  offset="0" style="stop-color:#FF7A59"/>
			<stop  offset="0.2473" style="stop-color:#FD7B52"/>
			<stop  offset="0.6029" style="stop-color:#F97F3F"/>
			<stop  offset="1" style="stop-color:#F28522"/>
		</linearGradient>
		<path class="st25" d="M287,284.1l0.3-0.2c1-0.6,1.9-2.2,1.9-3.6v-11.2c0-1.4-0.8-2-1.9-1.4L287,268c-1,0.6-1.9,2.2-1.9,3.6v11.2
			C285.1,284.1,286,284.7,287,284.1z"/>
		<path class="st18" d="M303.1,238.1c0,0.4,0.3,0.6,0.7,0.4c0.4-0.2,0.7-0.7,0.7-1.1c0-0.4-0.3-0.6-0.7-0.4
			C303.4,237.1,303.1,237.6,303.1,238.1z"/>
		<path class="st18" d="M298.1,241c0,0.4,0.3,0.6,0.7,0.4c0.4-0.2,0.7-0.7,0.7-1.1c0-0.4-0.3-0.6-0.7-0.4
			C298.4,240,298.1,240.5,298.1,241z"/>
		<path class="st18" d="M303.1,243.5c0,0.4,0.3,0.6,0.7,0.4c0.4-0.2,0.7-0.7,0.7-1.1c0-0.4-0.3-0.6-0.7-0.4S303.1,243.1,303.1,243.5
			z"/>
		<path class="st18" d="M298.1,246.4c0,0.4,0.3,0.6,0.7,0.4c0.4-0.2,0.7-0.7,0.7-1.1c0-0.4-0.3-0.6-0.7-0.4S298.1,246,298.1,246.4z"
			/>
		
			<linearGradient id="SVGID_23_" gradientUnits="userSpaceOnUse" x1="363.4" y1="910.1619" x2="363.4" y2="985.7194" gradientTransform="matrix(1 0 0 1 0 -704)">
			<stop  offset="0.2247" style="stop-color:#FFFFFF;stop-opacity:0"/>
			<stop  offset="0.3556" style="stop-color:#FFF7EC;stop-opacity:0.1687"/>
			<stop  offset="0.6209" style="stop-color:#FFE2BB;stop-opacity:0.511"/>
			<stop  offset="0.9941" style="stop-color:#FFC26C;stop-opacity:0.9924"/>
			<stop  offset="1" style="stop-color:#FFC16B"/>
		</linearGradient>
		<path class="st26" d="M372.3,204.6h-17.8v64.2c0,1.3,0.9,2.6,2.6,3.6c3.5,2,9.1,2,12.6,0c1.7-1,2.6-2.3,2.6-3.6l0,0L372.3,204.6
			L372.3,204.6z"/>
		<path class="st18" d="M357.1,272.4c3.5,2,9.1,2,12.6,0s3.5-5.3,0-7.3s-9.1-2-12.6,0S353.6,270.4,357.1,272.4z"/>
		
			<linearGradient id="SVGID_24_" gradientUnits="userSpaceOnUse" x1="205.0838" y1="1071.5848" x2="301.77" y2="1010.9711" gradientTransform="matrix(1 0 0 1 0 -704)">
			<stop  offset="0" style="stop-color:#FFA959"/>
			<stop  offset="0.4307" style="stop-color:#FFB05E"/>
			<stop  offset="1" style="stop-color:#FFC16B"/>
		</linearGradient>
		<path class="st27" d="M262.5,326l23.3-13.5l3.5,2L266,328L262.5,326z M260.3,331.3l3.5-2l-3.5-2l-3.5,2L260.3,331.3z M254.5,334.6
			l3.5-2l-3.5-2l-3.5,2L254.5,334.6z M249.2,337.7l3.5-2l-3.5-2l-3.5,2L249.2,337.7z M271.6,331.2l23.3-13.5l-3.5-2L268,329.2
			L271.6,331.2z M265.8,334.5l3.5-2l-3.5-2l-3.5,2L265.8,334.5z M260,337.8l3.5-2l-3.5-2l-3.5,2L260,337.8z M254.7,340.9l3.5-2
			l-3.5-2l-3.5,2L254.7,340.9z"/>
		
			<linearGradient id="SVGID_25_" gradientUnits="userSpaceOnUse" x1="-3084.7031" y1="8495.6035" x2="-2993.803" y2="8495.6035" gradientTransform="matrix(0 1 -1 0 8693.4033 3135.9031)">
			<stop  offset="0.101" style="stop-color:#FFFFFF;stop-opacity:0.1"/>
			<stop  offset="0.1993" style="stop-color:#FFF2DF;stop-opacity:0.3216"/>
			<stop  offset="0.4139" style="stop-color:#FFCF8D;stop-opacity:0.8057"/>
			<stop  offset="0.5" style="stop-color:#FFC16B"/>
			<stop  offset="1" style="stop-color:#FFFFFF;stop-opacity:0.1"/>
		</linearGradient>
		<rect x="197.1" y="51.2" class="st28" width="1.4" height="90.9"/>
		
			<linearGradient id="SVGID_26_" gradientUnits="userSpaceOnUse" x1="-3104.9031" y1="8393.8037" x2="-3020.4031" y2="8393.8037" gradientTransform="matrix(0 1 -1 0 8693.4033 3135.9031)">
			<stop  offset="0.101" style="stop-color:#FFFFFF;stop-opacity:0.1"/>
			<stop  offset="0.1993" style="stop-color:#FFF2DF;stop-opacity:0.3216"/>
			<stop  offset="0.4139" style="stop-color:#FFCF8D;stop-opacity:0.8057"/>
			<stop  offset="0.5" style="stop-color:#FFC16B"/>
			<stop  offset="1" style="stop-color:#FFFFFF;stop-opacity:0.1"/>
		</linearGradient>
		<rect x="298.9" y="31" class="st29" width="1.4" height="84.5"/>
		
			<linearGradient id="SVGID_27_" gradientUnits="userSpaceOnUse" x1="-3017.9031" y1="8473.2031" x2="-2932.603" y2="8473.2031" gradientTransform="matrix(0 1 -1 0 8693.4033 3135.9031)">
			<stop  offset="0.101" style="stop-color:#FFFFFF;stop-opacity:0.1"/>
			<stop  offset="0.1993" style="stop-color:#FFF2DF;stop-opacity:0.3216"/>
			<stop  offset="0.4139" style="stop-color:#FFCF8D;stop-opacity:0.8057"/>
			<stop  offset="0.5" style="stop-color:#FFC16B"/>
			<stop  offset="1" style="stop-color:#FFFFFF;stop-opacity:0.1"/>
		</linearGradient>
		<rect x="219.5" y="118" class="st30" width="1.4" height="85.3"/>
		
			<linearGradient id="SVGID_28_" gradientUnits="userSpaceOnUse" x1="-3135.9031" y1="8434.9033" x2="-3026.4031" y2="8434.9033" gradientTransform="matrix(0 1 -1 0 8693.4033 3135.9031)">
			<stop  offset="0.101" style="stop-color:#FFFFFF;stop-opacity:0.1"/>
			<stop  offset="0.1993" style="stop-color:#FFF2DF;stop-opacity:0.3216"/>
			<stop  offset="0.4139" style="stop-color:#FFCF8D;stop-opacity:0.8057"/>
			<stop  offset="0.5" style="stop-color:#FFC16B"/>
			<stop  offset="1" style="stop-color:#FFFFFF;stop-opacity:0.1"/>
		</linearGradient>
		<rect x="257.8" class="st31" width="1.4" height="109.5"/>
		<path class="st18" d="M208.6,167.6c0,0.6-0.5,1-1,1s-1-0.5-1-1c0-0.6,0.5-1,1-1S208.6,167,208.6,167.6z"/>
		<path class="st18" d="M266.3,213.4c0,0.6-0.5,1-1,1c-0.6,0-1-0.5-1-1c0-0.6,0.5-1,1-1S266.3,212.8,266.3,213.4z"/>
		
			<linearGradient id="SVGID_29_" gradientUnits="userSpaceOnUse" x1="-120.336" y1="2764.0952" x2="-120.336" y2="2729.4983" gradientTransform="matrix(0.866 0.5 0 1.1547 308.661 -2846.2881)">
			<stop  offset="0" style="stop-color:#FF7A59"/>
			<stop  offset="0.2473" style="stop-color:#FD7B52"/>
			<stop  offset="0.6029" style="stop-color:#F97F3F"/>
			<stop  offset="1" style="stop-color:#F28522"/>
		</linearGradient>
		<path class="st32" d="M204.4,275.4L204.4,275.4c-0.3-0.2-0.4-0.5-0.4-0.8v-31.2c0-0.3,0.2-0.4,0.4-0.3h0.1
			c0.2,0.1,0.4,0.5,0.4,0.7V275C204.8,275.4,204.6,275.6,204.4,275.4z"/>
		
			<linearGradient id="SVGID_30_" gradientUnits="userSpaceOnUse" x1="-117.1028" y1="2764.0952" x2="-117.1028" y2="2729.4983" gradientTransform="matrix(0.866 0.5 0 1.1547 308.661 -2846.2881)">
			<stop  offset="0" style="stop-color:#FF7A59"/>
			<stop  offset="0.2473" style="stop-color:#FD7B52"/>
			<stop  offset="0.6029" style="stop-color:#F97F3F"/>
			<stop  offset="1" style="stop-color:#F28522"/>
		</linearGradient>
		<path class="st33" d="M207.2,277L207.2,277c-0.3-0.2-0.4-0.5-0.4-0.8V245c0-0.3,0.2-0.4,0.4-0.3h0.1c0.2,0.1,0.4,0.5,0.4,0.7v31.2
			C207.6,277,207.4,277.1,207.2,277z"/>
		
			<linearGradient id="SVGID_31_" gradientUnits="userSpaceOnUse" x1="-113.985" y1="2764.0952" x2="-113.985" y2="2729.4983" gradientTransform="matrix(0.866 0.5 0 1.1547 308.661 -2846.2881)">
			<stop  offset="0" style="stop-color:#FF7A59"/>
			<stop  offset="0.2473" style="stop-color:#FD7B52"/>
			<stop  offset="0.6029" style="stop-color:#F97F3F"/>
			<stop  offset="1" style="stop-color:#F28522"/>
		</linearGradient>
		<path class="st34" d="M209.9,278.6L209.9,278.6c-0.3-0.2-0.4-0.5-0.4-0.8v-31.2c0-0.3,0.2-0.4,0.4-0.3h0.1
			c0.2,0.1,0.4,0.5,0.4,0.7v31.2C210.3,278.6,210.1,278.7,209.9,278.6z"/>
		
			<linearGradient id="SVGID_32_" gradientUnits="userSpaceOnUse" x1="-110.7517" y1="2764.0952" x2="-110.7517" y2="2729.4983" gradientTransform="matrix(0.866 0.5 0 1.1547 308.661 -2846.2881)">
			<stop  offset="0" style="stop-color:#FF7A59"/>
			<stop  offset="0.2473" style="stop-color:#FD7B52"/>
			<stop  offset="0.6029" style="stop-color:#F97F3F"/>
			<stop  offset="1" style="stop-color:#F28522"/>
		</linearGradient>
		<path class="st35" d="M212.7,280.2L212.7,280.2c-0.3-0.2-0.4-0.5-0.4-0.8v-31.2c0-0.3,0.2-0.4,0.4-0.3h0.1
			c0.2,0.1,0.4,0.5,0.4,0.7v31.2C213.1,280.2,212.9,280.3,212.7,280.2z"/>
	</g>
</g>
<g id="Layer_2_1_">
</g>
</svg>
