<?xml version="1.0" encoding="utf-8"?>
<!-- Generator: Adobe Illustrator 22.0.1, SVG Export Plug-In . SVG Version: 6.00 Build 0)  -->
<svg version="1.1" id="Layer_1" xmlns="http://www.w3.org/2000/svg" xmlns:xlink="http://www.w3.org/1999/xlink" x="0px" y="0px"
	 viewBox="0 0 493.1 374" style="enable-background:new 0 0 493.1 374;" xml:space="preserve">
<style type="text/css">
	.st0{display:none;}
	.st1{display:inline;fill:url(#SVGID_1_);}
	.st2{display:inline;}
	.st3{opacity:0.25;fill:url(#SVGID_2_);enable-background:new    ;}
	.st4{opacity:0.65;fill:url(#SVGID_3_);enable-background:new    ;}
	.st5{opacity:0.5;fill:url(#SVGID_4_);enable-background:new    ;}
	.st6{display:inline;fill:url(#SVGID_5_);}
	.st7{display:inline;fill:url(#SVGID_6_);}
	.st8{display:inline;opacity:0.67;fill:url(#SVGID_7_);enable-background:new    ;}
	.st9{fill:url(#SVGID_8_);}
	.st10{fill:url(#SVGID_9_);}
	.st11{fill:url(#SVGID_10_);}
	.st12{fill:url(#SVGID_11_);}
	.st13{fill:url(#SVGID_12_);}
	.st14{fill:url(#SVGID_13_);}
	.st15{fill:url(#SVGID_14_);}
	.st16{fill:url(#SVGID_15_);}
</style>
<g class="st0">
	
		<linearGradient id="SVGID_1_" gradientUnits="userSpaceOnUse" x1="9481.25" y1="830.3" x2="9549.6504" y2="830.3" gradientTransform="matrix(-1 0 0 1 9785.6504 -704)">
		<stop  offset="0" style="stop-color:#FFA959"/>
		<stop  offset="0.4307" style="stop-color:#FFB05E"/>
		<stop  offset="1" style="stop-color:#FFC16B"/>
	</linearGradient>
	<polygon class="st1" points="304.4,126.4 270.4,106.5 236,126.4 270.2,146.1 	"/>
	<g class="st2">
		
			<linearGradient id="SVGID_2_" gradientUnits="userSpaceOnUse" x1="9481.1504" y1="835.25" x2="9549.6748" y2="835.25" gradientTransform="matrix(-1 0 0 1 9785.6504 -704)">
			<stop  offset="0" style="stop-color:#FFA959"/>
			<stop  offset="0.4307" style="stop-color:#FFB05E"/>
			<stop  offset="1" style="stop-color:#FFC16B"/>
		</linearGradient>
		<polygon class="st3" points="304.5,131.3 270.3,111.5 235.9,131.2 270.2,151 		"/>
		
			<linearGradient id="SVGID_3_" gradientUnits="userSpaceOnUse" x1="237.7984" y1="868.8048" x2="297.7984" y2="843.8048" gradientTransform="matrix(1 0 0 1 0 -704)">
			<stop  offset="0" style="stop-color:#FFA959"/>
			<stop  offset="0.4307" style="stop-color:#FFB05E"/>
			<stop  offset="1" style="stop-color:#FFC16B"/>
		</linearGradient>
		<polygon class="st4" points="304.5,131.3 270.2,151 235.9,131.2 270.2,185.7 		"/>
		
			<linearGradient id="SVGID_4_" gradientUnits="userSpaceOnUse" x1="9515.4502" y1="862.45" x2="9549.7129" y2="862.45" gradientTransform="matrix(-1 0 0 1 9785.6504 -704)">
			<stop  offset="0" style="stop-color:#FFA959"/>
			<stop  offset="0.4307" style="stop-color:#FFB05E"/>
			<stop  offset="1" style="stop-color:#FFC16B"/>
		</linearGradient>
		<polygon class="st5" points="235.9,131.2 270.2,151 270.2,185.7 		"/>
	</g>
	
		<linearGradient id="SVGID_5_" gradientUnits="userSpaceOnUse" x1="280.3018" y1="886.0518" x2="266.5518" y2="810.3018" gradientTransform="matrix(1 0 0 1 0 -704)">
		<stop  offset="0" style="stop-color:#FFA959"/>
		<stop  offset="0.4307" style="stop-color:#FFB05E"/>
		<stop  offset="1" style="stop-color:#FFC16B"/>
	</linearGradient>
	<polygon class="st6" points="270.2,146.1 304.4,126.4 270.2,65.5 236,126.4 	"/>
	
		<linearGradient id="SVGID_6_" gradientUnits="userSpaceOnUse" x1="9515.4502" y1="809.8" x2="9549.6504" y2="809.8" gradientTransform="matrix(-1 0 0 1 9785.6504 -704)">
		<stop  offset="0" style="stop-color:#FFA959"/>
		<stop  offset="0.4307" style="stop-color:#FFB05E"/>
		<stop  offset="1" style="stop-color:#FFC16B"/>
	</linearGradient>
	<polygon class="st7" points="236,126.4 270.2,65.5 270.2,146.1 	"/>
	
		<linearGradient id="SVGID_7_" gradientUnits="userSpaceOnUse" x1="304.4" y1="829.95" x2="236" y2="829.95" gradientTransform="matrix(1 0 0 1 0 -704)">
		<stop  offset="0" style="stop-color:#FFA959"/>
		<stop  offset="0.4307" style="stop-color:#FFB05E"/>
		<stop  offset="1" style="stop-color:#FFC16B"/>
	</linearGradient>
	<polygon class="st8" points="270.2,146.1 236,126.4 270.2,105.8 304.4,126.4 	"/>
</g>
<linearGradient id="SVGID_8_" gradientUnits="userSpaceOnUse" x1="341.3" y1="933.2224" x2="341.3" y2="929.3101" gradientTransform="matrix(1 0 0 1 0 -704)">
	<stop  offset="0" style="stop-color:#FFA959"/>
	<stop  offset="0.4307" style="stop-color:#FFB05E"/>
	<stop  offset="1" style="stop-color:#FFC16B"/>
</linearGradient>
<path class="st9" d="M342.9,226.7c0,0.9-0.7,1.6-1.6,1.6s-1.6-0.7-1.6-1.6s0.7-1.6,1.6-1.6C342.2,225.1,342.9,225.8,342.9,226.7z"/>
<linearGradient id="SVGID_9_" gradientUnits="userSpaceOnUse" x1="386.2" y1="902.0371" x2="386.2" y2="898.1248" gradientTransform="matrix(1 0 0 1 0 -704)">
	<stop  offset="0" style="stop-color:#FFA959"/>
	<stop  offset="0.4307" style="stop-color:#FFB05E"/>
	<stop  offset="1" style="stop-color:#FFC16B"/>
</linearGradient>
<path class="st10" d="M387.8,195.5c0,0.9-0.7,1.6-1.6,1.6s-1.6-0.7-1.6-1.6c0-0.9,0.7-1.6,1.6-1.6S387.8,194.6,387.8,195.5z"/>
<linearGradient id="SVGID_10_" gradientUnits="userSpaceOnUse" x1="124.8" y1="924.9289" x2="124.8" y2="921.0166" gradientTransform="matrix(1 0 0 1 0 -704)">
	<stop  offset="0" style="stop-color:#FFA959"/>
	<stop  offset="0.4307" style="stop-color:#FFB05E"/>
	<stop  offset="1" style="stop-color:#FFC16B"/>
</linearGradient>
<path class="st11" d="M126.4,218.4c0,0.9-0.7,1.6-1.6,1.6s-1.6-0.7-1.6-1.6s0.7-1.6,1.6-1.6C125.6,216.8,126.4,217.5,126.4,218.4z"
	/>
<linearGradient id="SVGID_11_" gradientUnits="userSpaceOnUse" x1="114.7" y1="848.6243" x2="114.7" y2="844.712" gradientTransform="matrix(1 0 0 1 0 -704)">
	<stop  offset="0" style="stop-color:#FFA959"/>
	<stop  offset="0.4307" style="stop-color:#FFB05E"/>
	<stop  offset="1" style="stop-color:#FFC16B"/>
</linearGradient>
<path class="st12" d="M116.3,142.1c0,0.9-0.7,1.6-1.6,1.6s-1.6-0.7-1.6-1.6s0.7-1.6,1.6-1.6C115.6,140.5,116.3,141.2,116.3,142.1z"
	/>
<linearGradient id="SVGID_12_" gradientUnits="userSpaceOnUse" x1="207.2" y1="788.4731" x2="207.2" y2="785.9609" gradientTransform="matrix(1 0 0 1 0 -704)">
	<stop  offset="0" style="stop-color:#FFA959"/>
	<stop  offset="0.4307" style="stop-color:#FFB05E"/>
	<stop  offset="1" style="stop-color:#FFC16B"/>
</linearGradient>
<path class="st13" d="M208.2,82.8c0,0.6-0.5,1-1,1c-0.6,0-1-0.5-1-1c0-0.6,0.5-1,1-1S208.2,82.3,208.2,82.8z"/>
<linearGradient id="SVGID_13_" gradientUnits="userSpaceOnUse" x1="267.9" y1="764.5145" x2="267.9" y2="762.0023" gradientTransform="matrix(1 0 0 1 0 -704)">
	<stop  offset="0" style="stop-color:#FFA959"/>
	<stop  offset="0.4307" style="stop-color:#FFB05E"/>
	<stop  offset="1" style="stop-color:#FFC16B"/>
</linearGradient>
<path class="st14" d="M268.9,58.9c0,0.6-0.5,1-1,1c-0.6,0-1-0.5-1-1s0.5-1,1-1S268.9,58.3,268.9,58.9z"/>
<linearGradient id="SVGID_14_" gradientUnits="userSpaceOnUse" x1="282.8" y1="741.3835" x2="282.8" y2="738.8712" gradientTransform="matrix(1 0 0 1 0 -704)">
	<stop  offset="0" style="stop-color:#FFA959"/>
	<stop  offset="0.4307" style="stop-color:#FFB05E"/>
	<stop  offset="1" style="stop-color:#FFC16B"/>
</linearGradient>
<path class="st15" d="M283.8,35.8c0,0.6-0.5,1-1,1c-0.6,0-1-0.5-1-1c0-0.6,0.5-1,1-1C283.3,34.7,283.8,35.2,283.8,35.8z"/>
<linearGradient id="SVGID_15_" gradientUnits="userSpaceOnUse" x1="190.5" y1="751.8575" x2="190.5" y2="749.3452" gradientTransform="matrix(1 0 0 1 0 -704)">
	<stop  offset="0" style="stop-color:#FFA959"/>
	<stop  offset="0.4307" style="stop-color:#FFB05E"/>
	<stop  offset="1" style="stop-color:#FFC16B"/>
</linearGradient>
<circle class="st16" cx="190.5" cy="46.2" r="1"/>
<g id="Layer_2_1_">
</g>
</svg>
