<?xml version="1.0" encoding="UTF-8"?>
<svg width="157px" height="40px" viewBox="0 0 157 40" version="1.1" xmlns="http://www.w3.org/2000/svg" xmlns:xlink="http://www.w3.org/1999/xlink">
    <!-- Generator: Sketch 52.2 (67145) - http://www.bohemiancoding.com/sketch -->
    <title>Download_on_the_Mac_App_Store_Badge_US-UK_blk_092917</title>
    <desc>Created with Sketch.</desc>
    <defs>
        <polygon id="path-1" points="0 0.04 156.1 0.04 156.1 40 0 40"></polygon>
    </defs>
    <g id="Page-1" stroke="none" stroke-width="1" fill="none" fill-rule="evenodd">
        <g id="00.Live-Prices-Copy" transform="translate(-484.000000, -1658.000000)">
            <g id="Group" transform="translate(484.000000, 1624.000000)">
                <g id="Group-6" transform="translate(0.000000, 34.000000)">
                    <g id="Download_on_the_Mac_App_Store_Badge_US-UK_blk_092917">
                        <g id="Group-3">
                            <mask id="mask-2" fill="white">
                                <use xlink:href="#path-1"></use>
                            </mask>
                            <g id="Clip-2"></g>
                            <path d="M146.571,0 L9.535,0 C9.168,0 8.806,0 8.44,0.002 C8.134,0.004 7.83,0.01 7.521,0.015 C6.855,0.031 6.182,0.072 5.517,0.191 C4.848,0.309 4.226,0.509 3.616,0.818 C3.018,1.125 2.471,1.523 1.998,1.997 C1.519,2.471 1.123,3.02 0.819,3.618 C0.508,4.227 0.311,4.852 0.194,5.521 C0.074,6.184 0.032,6.854 0.015,7.523 C0.006,7.83 0.005,8.138 0,8.444 C0,8.807 0,9.17 0,9.536 L0,30.465 C0,30.834 0,31.195 0,31.559 C0.005,31.869 0.006,32.17 0.015,32.48 C0.032,33.15 0.074,33.82 0.194,34.482 C0.311,35.152 0.508,35.78 0.819,36.387 C1.123,36.982 1.519,37.531 1.998,38.001 C2.471,38.479 3.018,38.876 3.616,39.18 C4.226,39.492 4.848,39.69 5.517,39.811 C6.182,39.93 6.855,39.969 7.521,39.987 C7.83,39.994 8.134,39.998 8.44,39.998 C8.806,40 9.168,40 9.535,40 L146.571,40 C146.93,40 147.295,40 147.655,39.998 C147.959,39.998 148.272,39.994 148.577,39.987 C149.247,39.969 149.918,39.93 150.577,39.811 C151.247,39.69 151.87,39.492 152.485,39.18 C153.083,38.876 153.629,38.479 154.102,38.001 C154.579,37.531 154.975,36.982 155.284,36.387 C155.59,35.78 155.79,35.152 155.903,34.482 C156.026,33.82 156.065,33.15 156.088,32.48 C156.092,32.17 156.092,31.869 156.092,31.559 C156.1,31.195 156.1,30.834 156.1,30.465 L156.1,9.536 C156.1,9.17 156.1,8.807 156.092,8.444 C156.092,8.138 156.092,7.83 156.088,7.523 C156.065,6.854 156.026,6.184 155.903,5.521 C155.79,4.852 155.59,4.227 155.284,3.618 C154.975,3.02 154.579,2.471 154.102,1.997 C153.629,1.523 153.083,1.125 152.485,0.818 C151.87,0.509 151.247,0.309 150.577,0.191 C149.918,0.072 149.247,0.031 148.577,0.015 C148.272,0.01 147.959,0.004 147.655,0.002 C147.295,0 146.93,0 146.571,0" id="Fill-1" fill="#A9AAA9" mask="url(#mask-2)"></path>
                        </g>
                        <path d="M8.445,39.125 C8.14,39.125 7.843,39.121 7.541,39.114 C6.981,39.099 6.318,39.067 5.671,38.951 C5.061,38.841 4.519,38.661 4.015,38.403 C3.493,38.139 3.024,37.797 2.618,37.387 C2.204,36.98 1.863,36.514 1.597,35.99 C1.338,35.485 1.161,34.943 1.054,34.333 C0.932,33.66 0.901,32.978 0.888,32.458 C0.881,32.247 0.873,31.545 0.873,31.545 L0.873,8.444 C0.873,8.444 0.882,7.753 0.888,7.55 C0.901,7.026 0.932,6.344 1.053,5.678 C1.16,5.064 1.337,4.522 1.597,4.016 C1.862,3.491 2.203,3.022 2.612,2.618 C3.025,2.204 3.496,1.861 4.014,1.595 C4.528,1.334 5.069,1.156 5.668,1.051 C6.341,0.931 7.023,0.9 7.543,0.887 L8.445,0.875 L147.65,0.875 L148.563,0.888 C149.076,0.9 149.758,0.931 150.421,1.05 C151.024,1.156 151.569,1.335 152.092,1.598 C152.605,1.861 153.075,2.204 153.484,2.614 C153.893,3.02 154.236,3.492 154.507,4.018 C154.765,4.529 154.941,5.071 155.042,5.667 C155.159,6.298 155.195,6.946 155.216,7.554 C155.219,7.837 155.219,8.142 155.219,8.444 C155.227,8.819 155.227,9.176 155.227,9.536 L155.227,30.465 C155.227,30.828 155.227,31.183 155.219,31.54 C155.219,31.865 155.219,32.163 155.215,32.47 C155.195,33.059 155.159,33.706 155.044,34.323 C154.941,34.936 154.765,35.478 154.504,35.993 C154.235,36.513 153.892,36.982 153.489,37.379 C153.076,37.797 152.607,38.138 152.089,38.401 C151.571,38.665 151.042,38.84 150.421,38.951 C149.781,39.067 149.118,39.099 148.552,39.114 C148.259,39.121 147.953,39.125 147.655,39.125 L146.571,39.127 L8.445,39.125" id="Fill-4" fill="#000000"></path>
                        <path d="M24.769,20.301 C24.744,17.55 27.021,16.211 27.126,16.148 C25.836,14.268 23.836,14.011 23.134,13.991 C21.455,13.814 19.827,14.996 18.971,14.996 C18.099,14.996 16.782,14.008 15.363,14.038 C13.537,14.066 11.827,15.124 10.89,16.766 C8.956,20.114 10.398,25.035 12.251,27.741 C13.178,29.067 14.261,30.548 15.679,30.495 C17.066,30.438 17.584,29.61 19.258,29.61 C20.917,29.61 21.403,30.495 22.849,30.462 C24.337,30.438 25.275,29.13 26.17,27.792 C27.241,26.273 27.671,24.776 27.688,24.7 C27.653,24.688 24.797,23.599 24.769,20.301" id="Fill-5" fill="#FFFFFE"></path>
                        <path d="M22.037,12.211 C22.783,11.278 23.293,10.009 23.152,8.72 C22.072,8.768 20.722,9.467 19.944,10.38 C19.256,11.184 18.642,12.502 18.8,13.741 C20.013,13.832 21.259,13.129 22.037,12.211" id="Fill-6" fill="#FFFFFE"></path>
                        <polyline id="Fill-7" fill="#FFFFFE" points="46.149 30.496 46.149 21.356 46.088 21.356 42.345 30.401 40.917 30.401 37.164 21.356 37.104 21.356 37.104 30.496 35.348 30.496 35.348 18.078 37.578 18.078 41.596 27.88 41.665 27.88 45.675 18.078 47.913 18.078 47.913 30.496 46.149 30.496"></polyline>
                        <path d="M55.24,27.105 L55.24,26.408 L53.01,26.546 C51.9,26.615 51.272,27.097 51.272,27.871 C51.272,28.663 51.926,29.18 52.924,29.18 C54.224,29.18 55.24,28.284 55.24,27.105 Z M49.396,27.923 C49.396,26.34 50.609,25.384 52.761,25.255 L55.24,25.117 L55.24,24.429 C55.24,23.422 54.577,22.854 53.449,22.854 C52.416,22.854 51.694,23.345 51.547,24.128 L49.809,24.128 C49.861,22.492 51.384,21.331 53.501,21.331 C55.661,21.331 57.089,22.51 57.089,24.291 L57.089,30.496 L55.308,30.496 L55.308,29.007 L55.265,29.007 C54.74,30.014 53.595,30.651 52.408,30.651 C50.635,30.651 49.396,29.55 49.396,27.923 Z" id="Fill-8" fill="#FFFFFE"></path>
                        <path d="M64.893,24.558 C64.73,23.603 63.981,22.889 62.759,22.889 C61.331,22.889 60.384,24.085 60.384,25.97 C60.384,27.898 61.339,29.059 62.776,29.059 C63.929,29.059 64.687,28.482 64.893,27.433 L66.683,27.433 C66.477,29.334 64.954,30.608 62.759,30.608 C60.177,30.608 58.491,28.844 58.491,25.97 C58.491,23.155 60.177,21.331 62.742,21.331 C65.066,21.331 66.511,22.794 66.666,24.558 L64.893,24.558" id="Fill-9" fill="#FFFFFE"></path>
                        <path d="M74.516,25.591 L78.268,25.591 L76.419,20.144 L76.367,20.144 L74.516,25.591 Z M78.759,27.14 L74.026,27.14 L72.889,30.496 L70.884,30.496 L75.368,18.078 L77.451,18.078 L81.934,30.496 L79.895,30.496 L78.759,27.14 Z" id="Fill-10" fill="#FFFFFE"></path>
                        <path d="M89.707,25.97 C89.707,24.137 88.759,22.932 87.314,22.932 C85.894,22.932 84.939,24.162 84.939,25.97 C84.939,27.794 85.894,29.016 87.314,29.016 C88.759,29.016 89.707,27.819 89.707,25.97 Z M91.617,25.97 C91.617,28.783 90.111,30.591 87.838,30.591 C86.548,30.591 85.524,30.014 84.99,29.007 L84.947,29.007 L84.947,33.491 L83.088,33.491 L83.088,21.442 L84.887,21.442 L84.887,22.948 L84.921,22.948 C85.438,21.977 86.54,21.348 87.804,21.348 C90.102,21.348 91.617,23.164 91.617,25.97 Z" id="Fill-11" fill="#FFFFFE"></path>
                        <path d="M99.671,25.97 C99.671,24.137 98.724,22.932 97.279,22.932 C95.859,22.932 94.904,24.162 94.904,25.97 C94.904,27.794 95.859,29.016 97.279,29.016 C98.724,29.016 99.671,27.819 99.671,25.97 Z M101.582,25.97 C101.582,28.783 100.076,30.591 97.803,30.591 C96.513,30.591 95.489,30.014 94.955,29.007 L94.912,29.007 L94.912,33.491 L93.053,33.491 L93.053,21.442 L94.852,21.442 L94.852,22.948 L94.886,22.948 C95.403,21.977 96.504,21.348 97.769,21.348 C100.067,21.348 101.582,23.164 101.582,25.97 Z" id="Fill-12" fill="#FFFFFE"></path>
                        <path d="M108.168,27.036 C108.305,28.268 109.501,29.076 111.136,29.076 C112.703,29.076 113.83,28.268 113.83,27.157 C113.83,26.193 113.15,25.616 111.541,25.221 L109.931,24.833 C107.651,24.282 106.592,23.216 106.592,21.485 C106.592,19.343 108.459,17.871 111.111,17.871 C113.735,17.871 115.534,19.343 115.594,21.485 L113.718,21.485 C113.606,20.246 112.582,19.498 111.084,19.498 C109.587,19.498 108.563,20.255 108.563,21.356 C108.563,22.234 109.217,22.751 110.818,23.147 L112.186,23.482 C114.734,24.085 115.793,25.108 115.793,26.925 C115.793,29.248 113.942,30.703 110.999,30.703 C108.245,30.703 106.385,29.282 106.265,27.036 L108.168,27.036" id="Fill-13" fill="#FFFFFE"></path>
                        <path d="M119.803,19.3 L119.803,21.442 L121.525,21.442 L121.525,22.914 L119.803,22.914 L119.803,27.905 C119.803,28.681 120.148,29.042 120.905,29.042 C121.094,29.042 121.396,29.016 121.516,28.999 L121.516,30.462 C121.31,30.514 120.897,30.548 120.484,30.548 C118.651,30.548 117.936,29.859 117.936,28.104 L117.936,22.914 L116.62,22.914 L116.62,21.442 L117.936,21.442 L117.936,19.3 L119.803,19.3" id="Fill-14" fill="#FFFFFE"></path>
                        <path d="M129.216,25.97 C129.216,24.016 128.321,22.862 126.815,22.862 C125.309,22.862 124.414,24.024 124.414,25.97 C124.414,27.932 125.309,29.076 126.815,29.076 C128.321,29.076 129.216,27.932 129.216,25.97 Z M122.521,25.97 C122.521,23.121 124.199,21.331 126.815,21.331 C129.44,21.331 131.11,23.121 131.11,25.97 C131.11,28.826 129.449,30.608 126.815,30.608 C124.182,30.608 122.521,28.826 122.521,25.97 Z" id="Fill-15" fill="#FFFFFE"></path>
                        <path d="M132.643,21.442 L134.416,21.442 L134.416,22.983 L134.459,22.983 C134.743,21.959 135.569,21.348 136.636,21.348 C136.903,21.348 137.126,21.383 137.273,21.417 L137.273,23.155 C137.126,23.095 136.799,23.043 136.438,23.043 C135.242,23.043 134.501,23.853 134.501,25.126 L134.501,30.496 L132.643,30.496 L132.643,21.442" id="Fill-16" fill="#FFFFFE"></path>
                        <path d="M139.558,25.135 L144.084,25.135 C144.042,23.749 143.155,22.837 141.864,22.837 C140.582,22.837 139.653,23.767 139.558,25.135 Z M145.84,27.837 C145.59,29.481 143.99,30.608 141.942,30.608 C139.308,30.608 137.673,28.844 137.673,26.013 C137.673,23.173 139.317,21.331 141.864,21.331 C144.369,21.331 145.944,23.052 145.944,25.797 L145.944,26.434 L139.549,26.434 L139.549,26.546 C139.549,28.095 140.522,29.11 141.985,29.11 C143.017,29.11 143.827,28.62 144.076,27.837 L145.84,27.837 Z" id="Fill-17" fill="#FFFFFE"></path>
                        <path d="M36.598,13.854 L37.723,13.854 C38.971,13.854 39.69,13.077 39.69,11.708 C39.69,10.36 38.959,9.574 37.723,9.574 L36.598,9.574 L36.598,13.854 Z M37.826,8.731 C39.596,8.731 40.634,9.818 40.634,11.696 C40.634,13.602 39.604,14.698 37.826,14.698 L35.671,14.698 L35.671,8.731 L37.826,8.731 Z" id="Fill-18" fill="#FFFFFE"></path>
                        <path d="M45.014,12.444 C45.014,11.468 44.575,10.898 43.806,10.898 C43.033,10.898 42.599,11.468 42.599,12.444 C42.599,13.428 43.033,13.995 43.806,13.995 C44.575,13.995 45.014,13.424 45.014,12.444 Z M41.681,12.444 C41.681,10.993 42.491,10.108 43.806,10.108 C45.117,10.108 45.928,10.993 45.928,12.444 C45.928,13.904 45.121,14.785 43.806,14.785 C42.487,14.785 41.681,13.904 41.681,12.444 Z" id="Fill-19" fill="#FFFFFE"></path>
                        <polyline id="Fill-20" fill="#FFFFFE" points="51.573 14.698 50.651 14.698 49.721 11.381 49.65 11.381 48.724 14.698 47.811 14.698 46.569 10.195 47.471 10.195 48.277 13.631 48.344 13.631 49.27 10.195 50.122 10.195 51.048 13.631 51.118 13.631 51.921 10.195 52.81 10.195 51.573 14.698"></polyline>
                        <path d="M53.854,10.195 L54.709,10.195 L54.709,10.91 L54.775,10.91 C54.994,10.41 55.441,10.108 56.119,10.108 C57.124,10.108 57.678,10.711 57.678,11.783 L57.678,14.698 L56.789,14.698 L56.789,12.006 C56.789,11.282 56.475,10.922 55.817,10.922 C55.16,10.922 54.742,11.361 54.742,12.063 L54.742,14.698 L53.854,14.698 L53.854,10.195" id="Fill-21" fill="#FFFFFE"></path>
                        <polygon id="Fill-22" fill="#FFFFFE" points="59.094 14.698 59.983 14.698 59.983 8.437 59.094 8.437"></polygon>
                        <path d="M64.551,12.444 C64.551,11.468 64.112,10.898 63.343,10.898 C62.57,10.898 62.136,11.468 62.136,12.444 C62.136,13.428 62.57,13.995 63.343,13.995 C64.112,13.995 64.551,13.424 64.551,12.444 Z M61.218,12.444 C61.218,10.993 62.028,10.108 63.343,10.108 C64.654,10.108 65.465,10.993 65.465,12.444 C65.465,13.904 64.658,14.785 63.343,14.785 C62.024,14.785 61.218,13.904 61.218,12.444 Z" id="Fill-23" fill="#FFFFFE"></path>
                        <path d="M69.295,13.04 L69.295,12.663 L68.195,12.733 C67.575,12.775 67.294,12.986 67.294,13.383 C67.294,13.788 67.646,14.024 68.129,14.024 C68.799,14.024 69.295,13.598 69.295,13.04 Z M66.4,13.424 C66.4,12.614 67.004,12.146 68.075,12.08 L69.295,12.01 L69.295,11.621 C69.295,11.146 68.98,10.877 68.373,10.877 C67.877,10.877 67.533,11.059 67.435,11.377 L66.574,11.377 C66.665,10.604 67.393,10.108 68.414,10.108 C69.543,10.108 70.18,10.67 70.18,11.621 L70.18,14.698 L69.324,14.698 L69.324,14.065 L69.254,14.065 C68.985,14.516 68.493,14.772 67.901,14.772 C67.033,14.772 66.4,14.247 66.4,13.424 Z" id="Fill-24" fill="#FFFFFE"></path>
                        <path d="M72.266,12.444 C72.266,13.399 72.716,13.974 73.469,13.974 C74.218,13.974 74.681,13.391 74.681,12.448 C74.681,11.51 74.213,10.918 73.469,10.918 C72.721,10.918 72.266,11.497 72.266,12.444 Z M71.348,12.444 C71.348,11.021 72.079,10.12 73.217,10.12 C73.833,10.12 74.354,10.414 74.598,10.91 L74.664,10.91 L74.664,8.437 L75.553,8.437 L75.553,14.698 L74.701,14.698 L74.701,13.986 L74.631,13.986 C74.362,14.479 73.837,14.772 73.217,14.772 C72.071,14.772 71.348,13.871 71.348,12.444 Z" id="Fill-25" fill="#FFFFFE"></path>
                        <path d="M82.562,12.444 C82.562,11.468 82.124,10.898 81.354,10.898 C80.582,10.898 80.147,11.468 80.147,12.444 C80.147,13.428 80.582,13.995 81.354,13.995 C82.124,13.995 82.562,13.424 82.562,12.444 Z M79.229,12.444 C79.229,10.993 80.04,10.108 81.354,10.108 C82.666,10.108 83.477,10.993 83.477,12.444 C83.477,13.904 82.67,14.785 81.354,14.785 C80.036,14.785 79.229,13.904 79.229,12.444 Z" id="Fill-26" fill="#FFFFFE"></path>
                        <path d="M84.67,10.195 L85.525,10.195 L85.525,10.91 L85.591,10.91 C85.81,10.41 86.257,10.108 86.935,10.108 C87.94,10.108 88.494,10.711 88.494,11.783 L88.494,14.698 L87.605,14.698 L87.605,12.006 C87.605,11.282 87.291,10.922 86.633,10.922 C85.976,10.922 85.558,11.361 85.558,12.063 L85.558,14.698 L84.67,14.698 L84.67,10.195" id="Fill-27" fill="#FFFFFE"></path>
                        <path d="M93.515,9.074 L93.515,10.215 L94.491,10.215 L94.491,10.964 L93.515,10.964 L93.515,13.279 C93.515,13.751 93.71,13.958 94.152,13.958 C94.289,13.958 94.367,13.949 94.491,13.937 L94.491,14.677 C94.346,14.702 94.18,14.723 94.007,14.723 C93.019,14.723 92.626,14.375 92.626,13.507 L92.626,10.964 L91.911,10.964 L91.911,10.215 L92.626,10.215 L92.626,9.074 L93.515,9.074" id="Fill-28" fill="#FFFFFE"></path>
                        <path d="M95.705,8.437 L96.586,8.437 L96.586,10.918 L96.656,10.918 C96.874,10.414 97.35,10.112 98.029,10.112 C98.988,10.112 99.58,10.72 99.58,11.791 L99.58,14.698 L98.69,14.698 L98.69,12.01 C98.69,11.291 98.355,10.926 97.727,10.926 C96.999,10.926 96.593,11.386 96.593,12.068 L96.593,14.698 L95.705,14.698 L95.705,8.437" id="Fill-29" fill="#FFFFFE"></path>
                        <path d="M101.635,12.031 L103.91,12.031 C103.889,11.324 103.459,10.864 102.801,10.864 C102.144,10.864 101.685,11.328 101.635,12.031 Z M104.761,13.482 C104.559,14.289 103.839,14.785 102.81,14.785 C101.52,14.785 100.73,13.9 100.73,12.46 C100.73,11.021 101.537,10.108 102.806,10.108 C104.059,10.108 104.815,10.964 104.815,12.378 L104.815,12.688 L101.635,12.688 L101.635,12.738 C101.665,13.527 102.124,14.028 102.834,14.028 C103.373,14.028 103.741,13.833 103.906,13.482 L104.761,13.482 Z" id="Fill-30" fill="#FFFFFE"></path>
                    </g>
                </g>
            </g>
        </g>
    </g>
</svg>