<?xml version="1.0" encoding="UTF-8"?>
<svg width="120px" height="40px" viewBox="0 0 120 40" version="1.1" xmlns="http://www.w3.org/2000/svg" xmlns:xlink="http://www.w3.org/1999/xlink">
    <!-- Generator: Sketch 52.2 (67145) - http://www.bohemiancoding.com/sketch -->
    <title>Download_on_the_App_Store_Badge_US-UK_blk_092917</title>
    <desc>Created with Sketch.</desc>
    <defs>
        <polygon id="path-1" points="0 0.04 119.664 0.04 119.664 40 0 40"></polygon>
    </defs>
    <g id="Page-1" stroke="none" stroke-width="1" fill="none" fill-rule="evenodd">
        <g id="00.Live-Prices-Copy" transform="translate(-671.000000, -1658.000000)">
            <g id="Group" transform="translate(484.000000, 1624.000000)">
                <g id="Group-6" transform="translate(0.000000, 34.000000)">
                    <g id="Download_on_the_App_Store_Badge_US-UK_blk_092917" transform="translate(187.000000, 0.000000)">
                        <g id="Group-3">
                            <mask id="mask-2" fill="white">
                                <use xlink:href="#path-1"></use>
                            </mask>
                            <g id="Clip-2"></g>
                            <path d="M110.134,0 L9.535,0 C9.168,0 8.806,0 8.44,0.002 C8.134,0.004 7.83,0.01 7.521,0.015 C6.855,0.031 6.182,0.072 5.517,0.191 C4.848,0.309 4.226,0.509 3.616,0.818 C3.018,1.125 2.471,1.523 1.998,1.997 C1.519,2.471 1.123,3.02 0.819,3.618 C0.508,4.227 0.311,4.852 0.194,5.521 C0.074,6.184 0.032,6.854 0.015,7.523 C0.006,7.83 0.005,8.138 0,8.444 C0,8.807 0,9.17 0,9.536 L0,30.465 C0,30.834 0,31.195 0,31.559 C0.005,31.869 0.006,32.17 0.015,32.48 C0.032,33.15 0.074,33.82 0.194,34.482 C0.311,35.152 0.508,35.78 0.819,36.387 C1.123,36.982 1.519,37.531 1.998,38.001 C2.471,38.479 3.018,38.876 3.616,39.18 C4.226,39.492 4.848,39.69 5.517,39.811 C6.182,39.93 6.855,39.969 7.521,39.987 C7.83,39.994 8.134,39.998 8.44,39.998 C8.806,40 9.168,40 9.535,40 L110.134,40 C110.495,40 110.859,40 111.218,39.998 C111.524,39.998 111.836,39.994 112.141,39.987 C112.811,39.969 113.483,39.93 114.141,39.811 C114.811,39.69 115.433,39.492 116.049,39.18 C116.646,38.876 117.193,38.479 117.667,38.001 C118.142,37.531 118.539,36.982 118.847,36.387 C119.154,35.78 119.354,35.152 119.466,34.482 C119.59,33.82 119.628,33.15 119.653,32.48 C119.656,32.17 119.656,31.869 119.656,31.559 C119.664,31.195 119.664,30.834 119.664,30.465 L119.664,9.536 C119.664,9.17 119.664,8.807 119.656,8.444 C119.656,8.138 119.656,7.83 119.653,7.523 C119.628,6.854 119.59,6.184 119.466,5.521 C119.354,4.852 119.154,4.227 118.847,3.618 C118.539,3.02 118.142,2.471 117.667,1.997 C117.193,1.523 116.646,1.125 116.049,0.818 C115.433,0.509 114.811,0.309 114.141,0.191 C113.483,0.072 112.811,0.031 112.141,0.015 C111.836,0.01 111.524,0.004 111.218,0.002 C110.859,0 110.495,0 110.134,0" id="Fill-1" fill="#A9AAA9" mask="url(#mask-2)"></path>
                        </g>
                        <path d="M8.5772013,38.9980132 C8.27199179,38.9980132 7.97478778,38.9940395 7.67258033,38.9870856 C7.11219566,38.9721845 6.44874024,38.9403953 5.8012958,38.8251595 C5.19087679,38.7158841 4.64850448,38.53707 4.14415828,38.2807696 C3.62179971,38.0185088 3.15247755,37.6787619 2.74619866,37.2714629 C2.33191428,36.8671442 1.99068004,36.4042142 1.72449732,35.8836662 C1.46531941,35.3819931 1.28819783,34.8435637 1.18112433,34.2375823 C1.05904053,33.569016 1.02801923,32.8915089 1.0150103,32.3749346 C1.0080055,32.1653247 1,31.4679494 1,31.4679494 L1,8.51913625 C1,8.51913625 1.00900618,7.83268849 1.0150103,7.63102583 C1.02801923,7.11047788 1.05904053,6.43297083 1.18012364,5.77135836 C1.28719714,5.16140333 1.46431873,4.62297396 1.72449732,4.12030743 C1.98967936,3.59876608 2.33091359,3.1328558 2.74019454,2.73151731 C3.15347824,2.32024469 3.62480177,1.97950434 4.14315759,1.71525672 C4.65751066,1.45597616 5.19888228,1.2791488 5.79729306,1.17484053 C6.47175604,1.05563108 7.15422451,1.0248353 7.6745817,1.01192095 L8.5772013,1 L111.415794,1 L112.329421,1.01291436 C112.842773,1.0248353 113.526243,1.05563108 114.189698,1.17384712 C114.792112,1.2791488 115.338487,1.45696957 115.861846,1.71823695 C116.375198,1.97950434 116.84452,2.32024469 117.253801,2.72754366 C117.665084,3.13086897 118.006318,3.59975949 118.278505,4.12229426 C118.536682,4.62992785 118.711802,5.16835721 118.814873,5.76043083 C118.929952,6.38727387 118.965977,7.03100491 118.987992,7.63499948 C118.990994,7.9161351 118.990994,8.2191258 118.990994,8.51913625 C119,8.8916658 119,9.24631392 119,9.60394228 L119,30.3950643 C119,30.7556729 119,31.1083342 118.990994,31.4629823 C118.990994,31.7858413 118.990994,32.0818781 118.986991,32.3868556 C118.965977,32.9719753 118.929952,33.614713 118.815874,34.2276482 C118.711802,34.8366099 118.536682,35.3750392 118.275503,35.8866464 C118.006318,36.4032207 117.663082,36.869131 117.259805,37.2635156 C116.845521,37.6787619 116.376199,38.0175154 115.859844,38.2787828 C115.339487,38.5410436 114.810124,38.7148907 114.189698,38.8251595 C113.549258,38.9403953 112.885803,38.9721845 112.319414,38.9870856 C112.027214,38.9940395 111.719002,38.9980132 111.420797,38.9980132 L110.336053,39 L8.5772013,38.9980132" id="Fill-4" fill="#000000"></path>
                        <path d="M25.0342579,20.5105725 C25.0088576,17.6802309 27.3223193,16.3026128 27.4290007,16.2377958 C26.1183438,14.3035746 24.0863177,14.0391625 23.3730766,14.0185857 C21.6671907,13.8364808 20.0131215,15.0525709 19.1434143,15.0525709 C18.2574509,15.0525709 16.9193617,14.036076 15.4776392,14.0669412 C13.6223994,14.0957488 11.8850171,15.1842626 10.9330129,16.8736195 C8.96804363,20.3181793 10.4341505,25.3811059 12.3158066,28.1651498 C13.2576507,29.529393 14.3579928,31.0531065 15.7986993,30.9985779 C17.2079094,30.939934 17.7342042,30.0880536 19.43501,30.0880536 C21.1205757,30.0880536 21.614358,30.9985779 23.0835129,30.9646262 C24.5953403,30.939934 25.5483605,29.5942099 26.4576922,28.2176206 C27.5458422,26.6548111 27.9827278,25.1146361 28,25.0364442 C27.9644395,25.0240981 25.0627063,23.9036902 25.0342579,20.5105725" id="Fill-5" fill="#FFFFFE"></path>
                        <path d="M21.9651576,12.4709141 C22.6432595,11.5432822 23.1068412,10.2815836 22.9786745,9 C21.9969721,9.04772383 20.769844,9.74270204 20.0626546,10.650449 C19.4372738,11.4498231 18.8791577,12.7602398 19.0227772,13.992111 C20.1253745,14.0825874 21.2579683,13.3836322 21.9651576,12.4709141" id="Fill-6" fill="#FFFFFE"></path>
                        <path d="M37.6155656,25.2601063 L41.3505882,25.2601063 L39.5089593,19.9964568 L39.45819,19.9964568 L37.6155656,25.2601063 Z M41.8393665,26.7569657 L37.1277828,26.7569657 L35.9959276,30 L34,30 L38.4637104,18 L40.5372851,18 L45,30 L42.9702262,30 L41.8393665,26.7569657 Z" id="Fill-7" fill="#FFFFFE"></path>
                        <path d="M53.9845234,25.5675698 C53.9845234,23.7561558 52.9841716,22.5653463 51.4593739,22.5653463 C49.9609567,22.5653463 48.9532184,23.7808614 48.9532184,25.5675698 C48.9532184,27.3700898 49.9609567,28.5776991 51.4593739,28.5776991 C52.9841716,28.5776991 53.9845234,27.3947954 53.9845234,25.5675698 Z M56,25.5675698 C56,28.347443 54.4108336,30.1341514 52.0123109,30.1341514 C50.6510728,30.1341514 49.5705241,29.5639463 49.0070348,28.5688051 L48.9616602,28.5688051 L48.9616602,33 L47,33 L47,21.092893 L48.8983468,21.092893 L48.8983468,22.5811579 L48.9342244,22.5811579 C49.4797749,21.6215927 50.642631,21 51.9764333,21 C54.4013366,21 56,22.7946142 56,25.5675698 Z" id="Fill-8" fill="#FFFFFE"></path>
                        <path d="M63.9842871,25.5675698 C63.9842871,23.7561558 62.9848734,22.5653463 61.4598968,22.5653463 C59.9613039,22.5653463 58.9534475,23.7808614 58.9534475,25.5675698 C58.9534475,27.3700898 59.9613039,28.5776991 61.4598968,28.5776991 C62.9848734,28.5776991 63.9842871,27.3947954 63.9842871,25.5675698 Z M66,25.5675698 C66,28.347443 64.4117026,30.1341514 62.0128987,30.1341514 C60.6515009,30.1341514 59.5708255,29.5639463 59.0072702,28.5688051 L58.9618902,28.5688051 L58.9618902,33 L57,33 L57,21.092893 L58.8985694,21.092893 L58.8985694,22.5811579 L58.9344512,22.5811579 C59.4800657,21.6215927 60.6420028,21 61.9770169,21 C64.4022045,21 66,22.7946142 66,25.5675698 Z" id="Fill-9" fill="#FFFFFE"></path>
                        <path d="M71.9972712,27.2849906 C72.1410579,28.5331203 73.3973552,29.3516989 75.1123006,29.3516989 C76.756927,29.3516989 77.9397565,28.5331203 77.9397565,27.4075748 C77.9397565,26.4309539 77.2260705,25.8463996 75.5373636,25.4462282 L73.8476071,25.0531484 C71.4546599,24.4949345 70.343199,23.4149782 70.343199,21.6613155 C70.343199,19.4912718 72.3037364,18 75.0860621,18 C77.8400504,18 79.7281696,19.4912718 79.7911419,21.6613155 L77.8222082,21.6613155 C77.7046599,20.4060941 76.6288833,19.6483011 75.0587741,19.6483011 C73.4865659,19.6483011 72.4118388,20.415212 72.4118388,21.5306266 C72.4118388,22.4201216 73.0982368,22.9438903 74.7785474,23.3450748 L76.2143157,23.6844607 C78.888539,24.2953554 80,25.3317488 80,27.1725374 C80,29.5259507 78.0573048,31 74.9685139,31 C72.0780856,31 70.1259446,29.5603959 70,27.2849906 L71.9972712,27.2849906" id="Fill-10" fill="#FFFFFE"></path>
                        <path d="M83.2446483,19 L83.2446483,21.0947724 L85,21.0947724 L85,22.5343172 L83.2446483,22.5343172 L83.2446483,27.4152738 C83.2446483,28.1741643 83.5963303,28.5272048 84.3679918,28.5272048 C84.5606524,28.5272048 84.8685015,28.5017781 84.9908257,28.4851529 L84.9908257,29.9158962 C84.7808359,29.9667496 84.3598369,30 83.9388379,30 C82.0703364,30 81.3414883,29.3261913 81.3414883,27.6098862 L81.3414883,22.5343172 L80,22.5343172 L80,21.0947724 L81.3414883,21.0947724 L81.3414883,19 L83.2446483,19" id="Fill-11" fill="#FFFFFE"></path>
                        <path d="M93.0153685,25.5004851 C93.0153685,23.6048291 92.077541,22.4852862 90.4994761,22.4852862 C88.9214111,22.4852862 87.9846315,23.6125903 87.9846315,25.5004851 C87.9846315,27.4039021 88.9214111,28.5137437 90.4994761,28.5137437 C92.077541,28.5137437 93.0153685,27.4039021 93.0153685,25.5004851 Z M86,25.5004851 C86,22.7365528 87.7582955,21 90.4994761,21 C93.2500873,21 95,22.7365528 95,25.5004851 C95,28.2712084 93.259518,30 90.4994761,30 C87.740482,30 86,28.2712084 86,25.5004851 Z" id="Fill-12" fill="#FFFFFE"></path>
                        <path d="M96,21.0924792 L97.9146868,21.0924792 L97.9146868,22.6085483 L97.9611231,22.6085483 C98.2678186,21.601115 99.1598272,21 100.312095,21 C100.600432,21 100.841253,21.0344338 101,21.0678837 L101,22.7777656 C100.841253,22.7187363 100.488121,22.6675776 100.098272,22.6675776 C98.8066955,22.6675776 98.0075594,23.4644731 98.0075594,24.716878 L98.0075594,30 L96,30 L96,21.0924792" id="Fill-13" fill="#FFFFFE"></path>
                        <path d="M102.823238,24.6904172 L107.200943,24.6904172 C107.159352,23.3458014 106.302382,22.4610327 105.053682,22.4610327 C103.813686,22.4610327 102.915125,23.363264 102.823238,24.6904172 Z M108.899408,27.3117387 C108.657599,28.9066509 107.110023,30 105.129126,30 C102.581429,30 101,28.2886709 101,25.5422011 C101,22.7870001 102.590134,21 105.053682,21 C107.476605,21 109,22.669613 109,25.3326506 L109,25.9506306 L102.814533,25.9506306 L102.814533,26.0592864 C102.814533,27.5620351 103.755652,28.5467285 105.170717,28.5467285 C106.168903,28.5467285 106.952364,28.0713593 107.193205,27.3117387 L108.899408,27.3117387 Z" id="Fill-14" fill="#FFFFFE"></path>
                        <path d="M36.9339109,14.1513323 L38.067298,14.1513323 C39.3246021,14.1513323 40.0489623,13.3700352 40.0489623,11.9934641 C40.0489623,10.638009 39.3125126,9.84766214 38.067298,9.84766214 L36.9339109,9.84766214 L36.9339109,14.1513323 Z M38.1710659,9 C39.9542615,9 41,10.0930116 41,11.9813977 C41,13.8979387 39.9623212,15 38.1710659,15 L36,15 L36,9 L38.1710659,9 Z" id="Fill-15" fill="#FFFFFE"></path>
                        <path d="M45.1391571,12.4973273 C45.1391571,11.4539235 44.7256887,10.8445585 44.0014128,10.8445585 C43.2733694,10.8445585 42.8646103,11.4539235 42.8646103,12.4973273 C42.8646103,13.5492837 43.2733694,14.1554415 44.0014128,14.1554415 C44.7256887,14.1554415 45.1391571,13.5450075 45.1391571,12.4973273 Z M42,12.4973273 C42,10.9461193 42.7628915,10 44.0014128,10 C45.2361667,10 46,10.9461193 46,12.4973273 C46,14.0581569 45.2399341,15 44.0014128,15 C42.7591241,15 42,14.0581569 42,12.4973273 Z" id="Fill-16" fill="#FFFFFE"></path>
                        <polyline id="Fill-17" fill="#FFFFFE" points="51.8107675 15 50.9243711 15 50.0302836 11.3168998 49.9620253 11.3168998 49.0717834 15 48.1940394 15 47 10 47.8671687 10 48.6420445 13.8152343 48.7064573 13.8152343 49.5966992 10 50.4157988 10 51.3060407 13.8152343 51.3733376 13.8152343 52.1453293 10 53 10 51.8107675 15"></polyline>
                        <path d="M54,10.0947712 L54.8943515,10.0947712 L54.8943515,10.8736383 L54.9633891,10.8736383 C55.1924686,10.328976 55.6600418,10 56.3692469,10 C57.4205021,10 58,10.6568627 58,11.8246187 L58,15 L57.0700837,15 L57.0700837,12.0675381 C57.0700837,11.2788671 56.7416318,10.8867102 56.0533473,10.8867102 C55.3661088,10.8867102 54.9288703,11.3649237 54.9288703,12.1296296 L54.9288703,15 L54,15 L54,10.0947712" id="Fill-18" fill="#FFFFFE"></path>
                        <polygon id="Fill-19" fill="#FFFFFE" points="59 14 59.889 14 59.889 8 59 8"></polygon>
                        <path d="M64.1391571,12.4973273 C64.1391571,11.4539235 63.7256887,10.8445585 63.0014128,10.8445585 C62.2733694,10.8445585 61.8646103,11.4539235 61.8646103,12.4973273 C61.8646103,13.5492837 62.2733694,14.1554415 63.0014128,14.1554415 C63.7256887,14.1554415 64.1391571,13.5450075 64.1391571,12.4973273 Z M61,12.4973273 C61,10.9461193 61.7628915,10 63.0014128,10 C64.2361667,10 65,10.9461193 65,12.4973273 C65,14.0581569 64.2399341,15 63.0014128,15 C61.7591241,15 61,14.0581569 61,12.4973273 Z" id="Fill-20" fill="#FFFFFE"></path>
                        <path d="M69.0632442,13.1432247 L69.0632442,12.7390652 L67.8999735,12.8141081 C67.2437153,12.8591338 66.9462821,13.0853345 66.9462821,13.5109348 C66.9462821,13.9451115 67.3178089,14.1981132 67.8290553,14.1981132 C68.5382376,14.1981132 69.0632442,13.7414237 69.0632442,13.1432247 Z M66,13.5548885 C66,12.6865352 66.6382641,12.1848199 67.7729558,12.1140652 L69.0632442,12.0390223 L69.0632442,11.6219983 C69.0632442,11.1127787 68.7308812,10.8243997 68.0883832,10.8243997 C67.5633766,10.8243997 67.1992591,11.0195111 67.0944694,11.3604202 L66.1841757,11.3604202 C66.2804975,10.5317324 67.0500132,10 68.1317809,10 C69.326806,10 70,10.6024871 70,11.6219983 L70,14.920669 L69.0949987,14.920669 L69.0949987,14.2420669 L69.0198465,14.2420669 C68.7361736,14.7255575 68.2154009,15 67.5887801,15 C66.6700185,15 66,14.4371784 66,13.5548885 Z" id="Fill-21" fill="#FFFFFE"></path>
                        <path d="M71.8732461,11.7951066 C71.8732461,12.6996054 72.301308,13.2441989 73.0175981,13.2441989 C73.7300832,13.2441989 74.1705113,12.6920284 74.1705113,11.798895 C74.1705113,10.9104972 73.725327,10.3498027 73.0175981,10.3498027 C72.3060642,10.3498027 71.8732461,10.8981847 71.8732461,11.7951066 Z M71,11.7951066 C71,10.447356 71.6963139,9.59400158 72.7778835,9.59400158 C73.3648038,9.59400158 73.859453,9.87245462 74.0915577,10.3422257 L74.1552913,10.3422257 L74.1552913,8 L75,8 L75,13.9299132 L74.1904875,13.9299132 L74.1904875,13.2555643 L74.1229489,13.2555643 C73.8680143,13.7224941 73.3676576,14 72.7778835,14 C71.6887039,14 71,13.1466456 71,11.7951066 Z" id="Fill-22" fill="#FFFFFE"></path>
                        <path d="M82.1391571,12.4973273 C82.1391571,11.4539235 81.7256887,10.8445585 81.0014128,10.8445585 C80.2733694,10.8445585 79.8646103,11.4539235 79.8646103,12.4973273 C79.8646103,13.5492837 80.2733694,14.1554415 81.0014128,14.1554415 C81.7256887,14.1554415 82.1391571,13.5450075 82.1391571,12.4973273 Z M79,12.4973273 C79,10.9461193 79.7638333,10 81.0014128,10 C82.2361667,10 83,10.9461193 83,12.4973273 C83,14.0581569 82.2399341,15 81.0014128,15 C79.7600659,15 79,14.0581569 79,12.4973273 Z" id="Fill-23" fill="#FFFFFE"></path>
                        <path d="M85,10.0947712 L85.8943515,10.0947712 L85.8943515,10.8736383 L85.9633891,10.8736383 C86.1924686,10.328976 86.6600418,10 87.3692469,10 C88.4205021,10 89,10.6568627 89,11.8246187 L89,15 L88.0700837,15 L88.0700837,12.0675381 C88.0700837,11.2788671 87.7416318,10.8867102 87.0533473,10.8867102 C86.3661088,10.8867102 85.9288703,11.3649237 85.9288703,12.1296296 L85.9288703,15 L85,15 L85,10.0947712" id="Fill-24" fill="#FFFFFE"></path>
                        <path d="M93.8651163,9 L93.8651163,10.2118959 L95,10.2118959 L95,11.0074349 L93.8651163,11.0074349 L93.8651163,13.4662772 C93.8651163,13.9676049 94.0918605,14.1874668 94.605814,14.1874668 C94.7651163,14.1874668 94.855814,14.1779076 95,14.165162 L95,14.9511418 C94.8313953,14.9776952 94.6383721,15 94.4372093,15 C93.2883721,15 92.8313953,14.6303771 92.8313953,13.708444 L92.8313953,11.0074349 L92,11.0074349 L92,10.2118959 L92.8313953,10.2118959 L92.8313953,9 L93.8651163,9" id="Fill-25" fill="#FFFFFE"></path>
                        <path d="M96,8 L96.9094194,8 L96.9094194,10.3775755 L96.9816774,10.3775755 C97.2067097,9.89458553 97.6980645,9.60517489 98.3989677,9.60517489 C99.3889032,9.60517489 100,10.1878294 100,11.214183 L100,14 L99.0812903,14 L99.0812903,11.4240537 C99.0812903,10.7350264 98.7354839,10.385242 98.0872258,10.385242 C97.3357419,10.385242 96.9166452,10.8260661 96.9166452,11.4796358 L96.9166452,14 L96,14 L96,8" id="Fill-26" fill="#FFFFFE"></path>
                        <path d="M101.886169,12.055805 L104.113831,12.055805 C104.093268,11.2999786 103.672215,10.8082104 103.027907,10.8082104 C102.384578,10.8082104 101.935129,11.3042549 101.886169,12.055805 Z M104.947124,13.607013 C104.749327,14.4697456 104.044308,15 103.03672,15 C101.773562,15 101,14.0538807 101,12.5144323 C101,10.976053 101.790208,10 103.032803,10 C104.259731,10 105,10.9151165 105,12.4267693 L105,12.7581783 L101.886169,12.7581783 L101.886169,12.8116314 C101.915545,13.6551208 102.364994,14.1907205 103.06022,14.1907205 C103.588005,14.1907205 103.948348,13.9822536 104.109914,13.607013 L104.947124,13.607013 Z" id="Fill-27" fill="#FFFFFE"></path>
                    </g>
                </g>
            </g>
        </g>
    </g>
</svg>