<svg xmlns="http://www.w3.org/2000/svg" width="25" height="25" viewBox="0 0 25 25">
    <path fill="#FFA959" fill-rule="evenodd" d="M12.5 1.724L5.88 8.345l2.434 2.435L12.5 6.595l4.187 4.188 2.436-2.436L12.5 1.724zM1.724 12.5l2.435 2.435L6.595 12.5 4.16 10.064 1.724 12.5zm16.681.001l2.435 2.435 2.436-2.435-2.435-2.435-2.436 2.435zM12.5 18.405l4.187-4.187 2.437 2.434h-.001L12.5 23.277l-6.621-6.62-.003-.004 2.438-2.432 4.186 4.185zm2.47-5.906h.002l-.001.002-2.471 2.472-2.47-2.47-.003-.003.004-.003.433-.433.21-.21 1.826-1.827L14.97 12.5h-.001z"/>
</svg>
