<svg xmlns="http://www.w3.org/2000/svg" width="25" height="25" viewBox="0 0 25 25">
    <path fill="#FFA959" fill-rule="evenodd" d="M16.469 10.527c-.474 1.94-3.399.954-4.347.712l.836-3.43c.949.242 4.005.694 3.51 2.718m-.518 5.534c-.52 2.134-4.034.98-5.173.691l.922-3.781c1.14.29 4.793.865 4.251 3.09m3.84-5.504c.304-2.083-1.248-3.203-3.37-3.95l.688-2.822-1.68-.429-.67 2.748a67.403 67.403 0 0 0-1.347-.324l.674-2.766-1.679-.428-.689 2.822c-.366-.085-.725-.17-1.073-.258l.002-.009-2.318-.591-.447 1.835s1.247.292 1.22.31c.681.174.804.634.783.999L9.1 10.909c.047.012.108.03.175.057l-.177-.045-1.1 4.504c-.083.211-.294.529-.77.408.017.025-1.222-.312-1.222-.312l-.834 1.967 2.187.557c.407.104.806.213 1.198.316l-.695 2.854 1.679.429.689-2.825c.459.127.904.245 1.34.356l-.687 2.81 1.68.429.696-2.85c2.866.555 5.022.331 5.928-2.318.731-2.133-.036-3.364-1.544-4.167 1.098-.258 1.926-.997 2.146-2.522"/>
</svg>
