<svg xmlns="http://www.w3.org/2000/svg" width="25" height="25" viewBox="0 0 25 25">
    <path fill="#FFA959" fill-rule="evenodd" d="M12.482 3.87c4.983 0 8.998 3.964 9.07 8.77 0 3.544-2.151 6.596-5.198 8-.072.034-.108.034-.144 0-.036-.036-.036-.106-.036-.106V12.676c0-2-1.649-3.614-3.692-3.614-.789 0-1.506.245-2.115.666-.072.07-.143.07-.18.036-.035-.036-.035-.14-.035-.14V4.395c0-.035.036-.106.072-.176.035-.07.071-.105.179-.105.645-.175 1.362-.246 2.08-.246zm2.294 11.718c.036.035.036.14.072.14v5.262c0 .07-.036.175-.072.21a.5.5 0 0 1-.143.106 8.792 8.792 0 0 1-2.15.246c-4.984 0-9.035-3.965-9.035-8.841V3.729c0-.105.036-.175.072-.21s.108-.07.215-.07H8.54c.036 0 .107 0 .179.035.036.07.072.14.072.21v8.981c0 2 1.649 3.614 3.692 3.614.789 0 1.542-.28 2.151-.701.072-.036.108-.036.143 0z"/>
</svg>
