<svg xmlns="http://www.w3.org/2000/svg" width="25" height="25" viewBox="0 0 25 25">
    <path fill="#FFA959" fill-rule="evenodd" d="M9.998 8.695c1.358 0 2.674.054 3.984-.016 1.24-.066 2.092-.995 2.167-2.195.072-1.145-.706-2.205-1.945-2.318-1.383-.125-2.786-.028-4.206-.028v4.557zm.004 7.126c1.473 0 2.904-.02 4.47-.02 1.332-.074 2.199-1.155 2.188-2.514-.01-1.272-.92-2.303-2.227-2.374-1.43-.076-4.386-.05-4.431-.05v4.958zM5.172 3.826V1.724c.165 0 6.312.006 9.23.006 1.558.021 2.935.544 3.991 1.77 1.279 1.484 1.384 4.634-1.077 5.963a8.27 8.27 0 0 0-.205.13c.462.301.95.541 1.34.89 2.486 2.209 1.653 6.145-1.566 7.315a7.105 7.105 0 0 1-2.27.427H5.193v-2.097c1.599-.383 2.39-1.193 2.428-2.48.048-1.664-.507-2.343-2.442-2.958V8.846c1.584-.358 2.42-1.203 2.443-2.464.023-1.288-.764-2.122-2.45-2.556zm.085 20.312V21.94h14.544v2.197H5.257z"/>
</svg>
