<svg xmlns="http://www.w3.org/2000/svg" width="25" height="25" viewBox="0 0 25 25">
    <path fill="#FFA959" fill-rule="evenodd" d="M11.621 3.448h9.068v2.268h-8.893c-.052 0-.104.006-.158.006-1.818 0-3.524.701-4.803 1.981A6.74 6.74 0 0 0 4.853 12.5c0 1.813.7 3.517 1.978 4.795a6.755 6.755 0 0 0 4.79 1.986v-.002h9.069v2.267h-8.88c-.055 0-.114.007-.171.007a9 9 0 0 1-6.408-2.657 8.991 8.991 0 0 1-2.645-6.397c0-2.418.936-4.69 2.64-6.396A8.997 8.997 0 0 1 11.62 3.45v-.003zm.013 3.958h2.885l2.252 2.266H11.8c-.054 0-.11.011-.166.011A2.82 2.82 0 0 0 8.815 12.5a2.823 2.823 0 0 0 2.819 2.82h5.097l-2.28 2.267h-2.817A5.092 5.092 0 0 1 6.55 12.5c0-2.74 2.179-4.981 4.896-5.082.061-.01.124-.013.189-.013zm5.132 0h3.923v2.266h-1.67l-2.253-2.266zm2.228 7.914h1.695v2.267h-3.977l2.282-2.267zm-7.36-3.957h6.811l1.125 1.132-1.143 1.134h-6.793a1.133 1.133 0 1 1 0-2.266z"/>
</svg>
