<svg xmlns="http://www.w3.org/2000/svg" width="88" height="88" viewBox="0 0 88 88">
    <defs>
        <linearGradient id="a" x1="0%" y1="50%" y2="50%">
            <stop offset="0%" stop-color="#FFB347"/>
            <stop offset="100%" stop-color="#F56945"/>
        </linearGradient>
    </defs>
    <g fill="none" fill-rule="evenodd">
        <rect width="88" height="88" fill="url(#a)" rx="30.8"/>
        <path fill="#FFF" d="M44.286 43.673L40.09 24.828a1.317 1.317 0 0 1 1.094-1.586 21.556 21.556 0 0 1 9.224.613 21.842 21.842 0 0 1 9.334 5.513 21.354 21.354 0 0 1 5.528 9.56c.773 2.887.933 5.928.475 8.879a1.314 1.314 0 0 1-1.586 1.075L45.283 44.67a1.314 1.314 0 0 1-.997-.997zm18.699 9.196c.625.145.95.839.657 1.41-1.872 3.644-4.777 6.7-8.422 8.805-5.002 2.885-10.794 3.661-16.31 2.186a21.62 21.62 0 0 1-7.038-3.348.987.987 0 0 1-.122-1.499l2.879-2.877a1.316 1.316 0 0 1 1.638-.177 15.244 15.244 0 0 0 8.2 2.38 15.171 15.171 0 0 0 10.789-4.467 15.255 15.255 0 0 0 2.19-2.774c.297-.479.865-.717 1.414-.59l4.125.951zm-31.51 1.559L28.6 57.299a.987.987 0 0 1-1.495-.115C24.444 53.535 23 49.114 23 44.494c0-5.773 2.224-11.174 6.262-15.209a21.579 21.579 0 0 1 5.44-3.948.987.987 0 0 1 1.409.658l.946 4.094a1.312 1.312 0 0 1-.593 1.413 15.267 15.267 0 0 0-2.798 2.204 15.18 15.18 0 0 0-4.462 10.459 15.197 15.197 0 0 0 2.443 8.62c.337.52.266 1.204-.173 1.643z"/>
    </g>
</svg>
