<?xml version="1.0" encoding="utf-8"?>
<!-- Generator: Adobe Illustrator 23.0.0, SVG Export Plug-In . SVG Version: 6.00 Build 0)  -->
<svg version="1.1" id="Layer_1" xmlns="http://www.w3.org/2000/svg" xmlns:xlink="http://www.w3.org/1999/xlink" x="0px" y="0px"
	 viewBox="0 0 493.1 374" style="enable-background:new 0 0 493.1 374;" xml:space="preserve">
<style type="text/css">
	.st0{enable-background:new    ;}
	.st1{fill:#F28522;}
	.st2{clip-path:url(#SVGID_2_);}
	.st3{fill:#FFA959;}
</style>
<g>
	<g>
		<g>
			<g class="st0">
				<g>
					<path class="st1" d="M266.2,172.2l-1.7-1.7l-0.1-0.1c-1-1.1-1.5-2.5-1.5-4.2l1.7,1.7c-0.1,1.7,0.4,3,1.5,4.2
						C266.1,172.1,266.1,172.1,266.2,172.2z"/>
				</g>
				<g>
					<polygon class="st1" points="264.6,167.9 262.9,166.2 263,160.8 264.7,162.6 					"/>
				</g>
				<g>
					<path class="st1" d="M276.6,150.6l-1.7-1.7c1.9-0.8,3.4-1.8,4.6-3l1.7,1.7C280,148.8,278.4,149.8,276.6,150.6z"/>
				</g>
				<g>
					<path class="st1" d="M279.2,136.4l1.7,1.7c0.2,0.3,0.5,0.5,0.7,0.8c1,1.3,1.4,2.8,1.4,4.6c0,1.5-0.7,2.8-1.8,4.1l-1.7-1.7
						c1.2-1.2,1.8-2.6,1.8-4.1c0.1-1.8-0.4-3.3-1.4-4.6C279.7,136.9,279.5,136.6,279.2,136.4z"/>
				</g>
				<g>
					<path class="st1" d="M288.8,128.5l1.7,1.7c-2.7-2.8-7.1-4.9-13.1-6.3l-1.7-1.7C281.7,123.6,286.1,125.7,288.8,128.5z"/>
				</g>
				<g>
					<polygon class="st1" points="265.1,151.4 263.4,149.7 263.9,131.1 265.7,132.8 					"/>
				</g>
				<g>
					<path class="st1" d="M246.9,154.8l-1.7-1.7c-1.4-1.4-2.1-3-2-4.7c0-1.5,0.6-2.7,1.7-3.9c1.1-1.1,2.4-1.7,4-1.7
						c1.2,0,2.3,0.4,3.2,1.1c1.9,1.6,3.8,2.8,5.5,3.8c1.8,0.9,3.7,1.5,5.8,1.9l1.7,1.7c-2.1-0.3-4-0.9-5.8-1.9
						c-1.8-0.9-3.6-2.2-5.5-3.8c-0.9-0.8-2-1.1-3.2-1.1c-1.5,0-2.8,0.6-4,1.7c-1.1,1.1-1.7,2.4-1.7,3.9
						C244.8,151.9,245.5,153.4,246.9,154.8z"/>
				</g>
				<g>
					<path class="st1" d="M290.5,99.6l1.7,1.7c-0.2-0.2-0.5-0.5-0.8-0.7l-1.7-1.7C290,99.2,290.3,99.4,290.5,99.6z"/>
				</g>
				<g>
					<path class="st1" d="M260.2,118.3l-1.7-1.7c1.3,1.3,3.2,2.3,5.8,3.1l1.7,1.7C263.4,120.6,261.5,119.6,260.2,118.3z"/>
				</g>
				<g>
					<path class="st1" d="M278.3,94.7l-1.7-1.7c5.4,1,9.8,2.9,13.2,5.9l1.7,1.7C288,97.7,283.6,95.7,278.3,94.7z"/>
				</g>
				<g>
					<polygon class="st1" points="266,121.4 264.3,119.6 264.8,103.8 266.5,105.5 					"/>
				</g>
				<g>
					<polygon class="st1" points="266.8,94.4 265.1,92.6 265.2,89.5 266.9,91.2 					"/>
				</g>
				<g>
					<path class="st1" d="M275.1,85.2l1.7,1.7c-1-1-2.3-1.6-3.9-1.6s-3.1,0.6-4.2,1.7s-1.7,2.5-1.8,4.1l-1.7-1.7
						c0.1-1.6,0.7-3,1.8-4.1c1.1-1.1,2.6-1.7,4.2-1.7C272.8,83.7,274.1,84.2,275.1,85.2z"/>
				</g>
				<g>
					<path class="st1" d="M251.6,126.3l-1.7-1.7c-3.2-3.2-4.7-7.4-4.5-12.7c0.2-5.3,2.1-9.6,5.7-13c3.7-3.4,8.3-5.5,14-6.2l1.7,1.7
						c-5.7,0.8-10.4,2.8-14,6.2c-3.7,3.4-5.6,7.7-5.7,13C246.9,118.9,248.4,123.1,251.6,126.3z"/>
				</g>
				<g>
					<path class="st1" d="M290.6,130.4c2.7,2.8,4,7,3.8,12.4c-0.2,4.9-1.9,9-5.3,12.4s-7.7,5.6-12.9,6.8l-0.2,5.9
						c-0.1,1.7-0.7,3-1.8,4.2c-1.2,1.1-2.6,1.7-4.2,1.7s-2.9-0.6-4-1.7c-1-1.1-1.5-2.5-1.5-4.2l0.2-5.3c-3.4-0.3-6.5-1.1-9.3-2.2
						c-2.8-1.1-5.5-2.9-8.1-5.1c-1.7-1.5-2.5-3.2-2.4-5.1c0-1.5,0.6-2.7,1.7-3.9c1.1-1.1,2.4-1.7,4-1.7c1.2,0,2.3,0.4,3.2,1.1
						c1.9,1.6,3.8,2.8,5.5,3.8c1.8,0.9,3.7,1.5,5.8,1.9l0.6-18.6c-12.7-2.3-18.9-8.7-18.6-19.2c0.2-5.3,2.1-9.6,5.7-13
						c3.7-3.4,8.3-5.5,14-6.2l0.1-3.2c0.1-1.6,0.7-3,1.8-4.1c1.1-1.1,2.6-1.7,4.2-1.7s2.9,0.6,4,1.7c1,1.1,1.5,2.5,1.5,4.1l-0.1,3.5
						c5.4,1,9.8,2.9,13.2,5.9c1.8,1.5,2.7,3.1,2.6,5.1c0,1.5-0.6,2.7-1.7,3.9c-1.1,1.1-2.4,1.7-3.9,1.7c-0.9,0-1.8-0.3-2.5-0.9
						c-1.9-1.6-4.5-3-8-4.1l-0.5,17.6C283.5,125.4,287.9,127.6,290.6,130.4z M266,121.4l0.5-15.8c-2.6,0.5-4.6,1.4-6,2.8
						c-1.4,1.3-2.1,3-2.2,4.9c-0.1,2.1,0.6,3.8,1.9,5.1C261.5,119.6,263.4,120.6,266,121.4 M281.1,147.5c1.2-1.2,1.8-2.6,1.8-4.1
						c0.1-1.8-0.4-3.3-1.4-4.6s-2.5-2.4-4.6-3.3l-0.5,15C278.4,149.8,280,148.8,281.1,147.5"/>
					<g class="st0">
						<g>
							<g>
								<g>
									<defs>
										<path id="SVGID_1_" d="M290.6,130.4c2.7,2.8,4,7,3.8,12.4c-0.2,4.9-1.9,9-5.3,12.4s-7.7,5.6-12.9,6.8l-0.2,5.9
											c-0.1,1.7-0.7,3-1.8,4.2c-1.2,1.1-2.6,1.7-4.2,1.7s-2.9-0.6-4-1.7c-1-1.1-1.5-2.5-1.5-4.2l0.2-5.3
											c-3.4-0.3-6.5-1.1-9.3-2.2c-2.8-1.1-5.5-2.9-8.1-5.1c-1.7-1.5-2.5-3.2-2.4-5.1c0-1.5,0.6-2.7,1.7-3.9
											c1.1-1.1,2.4-1.7,4-1.7c1.2,0,2.3,0.4,3.2,1.1c1.9,1.6,3.8,2.8,5.5,3.8c1.8,0.9,3.7,1.5,5.8,1.9l0.6-18.6
											c-12.7-2.3-18.9-8.7-18.6-19.2c0.2-5.3,2.1-9.6,5.7-13c3.7-3.4,8.3-5.5,14-6.2l0.1-3.2c0.1-1.6,0.7-3,1.8-4.1
											c1.1-1.1,2.6-1.7,4.2-1.7s2.9,0.6,4,1.7c1,1.1,1.5,2.5,1.5,4.1l-0.1,3.5c5.4,1,9.8,2.9,13.2,5.9c1.8,1.5,2.7,3.1,2.6,5.1
											c0,1.5-0.6,2.7-1.7,3.9c-1.1,1.1-2.4,1.7-3.9,1.7c-0.9,0-1.8-0.3-2.5-0.9c-1.9-1.6-4.5-3-8-4.1l-0.5,17.6
											C283.5,125.4,287.9,127.6,290.6,130.4z M266,121.4l0.5-15.8c-2.6,0.5-4.6,1.4-6,2.8c-1.4,1.3-2.1,3-2.2,4.9
											c-0.1,2.1,0.6,3.8,1.9,5.1C261.5,119.6,263.4,120.6,266,121.4 M281.1,147.5c1.2-1.2,1.8-2.6,1.8-4.1
											c0.1-1.8-0.4-3.3-1.4-4.6s-2.5-2.4-4.6-3.3l-0.5,15C278.4,149.8,280,148.8,281.1,147.5"/>
									</defs>
									<clipPath id="SVGID_2_">
										<use xlink:href="#SVGID_1_"  style="overflow:visible;"/>
									</clipPath>
									<g class="st2">
										<g>
											<g>
												<g>
													<polyline class="st3" points="300.5,79.9 235.4,79.9 232.5,174.8 297.6,174.8 300.5,79.9 													"/>
												</g>
											</g>
										</g>
									</g>
								</g>
							</g>
						</g>
					</g>
				</g>
			</g>
		</g>
	</g>
</g>
</svg>
