<?xml version="1.0" encoding="utf-8"?>
<!-- Generator: Adobe Illustrator 23.0.0, SVG Export Plug-In . SVG Version: 6.00 Build 0)  -->
<svg version="1.1" id="Layer_1" xmlns="http://www.w3.org/2000/svg" xmlns:xlink="http://www.w3.org/1999/xlink" x="0px" y="0px"
	 viewBox="0 0 493.1 374" style="enable-background:new 0 0 493.1 374;" xml:space="preserve">
<style type="text/css">
	.st0{fill:url(#SVGID_1_);}
	.st1{fill:url(#SVGID_2_);}
	.st2{fill:url(#SVGID_3_);}
	.st3{fill:url(#SVGID_4_);}
	.st4{fill:url(#SVGID_5_);}
	.st5{fill:url(#SVGID_6_);}
	.st6{fill:url(#SVGID_7_);}
	.st7{fill:url(#SVGID_8_);}
	.st8{fill:url(#SVGID_9_);}
	.st9{fill:#FFFFFF;}
	.st10{fill:url(#SVGID_10_);}
	.st11{opacity:0.44;fill:url(#SVGID_11_);enable-background:new    ;}
	.st12{fill:url(#SVGID_12_);}
	.st13{fill:url(#SVGID_13_);}
	.st14{fill:url(#SVGID_14_);}
	.st15{fill:url(#SVGID_15_);}
	.st16{opacity:0.67;}
	.st17{fill:url(#SVGID_16_);}
	.st18{fill:url(#SVGID_17_);}
	.st19{fill:url(#SVGID_18_);}
	.st20{fill:url(#SVGID_19_);}
	.st21{fill:url(#SVGID_20_);}
	.st22{fill:url(#SVGID_21_);}
	.st23{fill:url(#SVGID_22_);}
	.st24{fill:url(#SVGID_23_);}
	.st25{fill:url(#SVGID_24_);}
	.st26{fill:url(#SVGID_25_);}
</style>
<g>
	
		<linearGradient id="SVGID_1_" gradientUnits="userSpaceOnUse" x1="348.6" y1="852.6624" x2="348.6" y2="848.7501" gradientTransform="matrix(1 0 0 1 0 -704)">
		<stop  offset="0" style="stop-color:#FFA959"/>
		<stop  offset="0.4307" style="stop-color:#FFB05E"/>
		<stop  offset="1" style="stop-color:#FFC16B"/>
	</linearGradient>
	<path class="st0" d="M350.2,146.1c0,0.9-0.7,1.6-1.6,1.6s-1.6-0.7-1.6-1.6c0-0.9,0.7-1.6,1.6-1.6S350.2,145.3,350.2,146.1z"/>
	
		<linearGradient id="SVGID_2_" gradientUnits="userSpaceOnUse" x1="341.3" y1="933.2224" x2="341.3" y2="929.3101" gradientTransform="matrix(1 0 0 1 0 -704)">
		<stop  offset="0" style="stop-color:#FFA959"/>
		<stop  offset="0.4307" style="stop-color:#FFB05E"/>
		<stop  offset="1" style="stop-color:#FFC16B"/>
	</linearGradient>
	<path class="st1" d="M342.9,226.7c0,0.9-0.7,1.6-1.6,1.6s-1.6-0.7-1.6-1.6s0.7-1.6,1.6-1.6C342.2,225.1,342.9,225.8,342.9,226.7z"
		/>
	
		<linearGradient id="SVGID_3_" gradientUnits="userSpaceOnUse" x1="386.2" y1="902.0371" x2="386.2" y2="898.1248" gradientTransform="matrix(1 0 0 1 0 -704)">
		<stop  offset="0" style="stop-color:#FFA959"/>
		<stop  offset="0.4307" style="stop-color:#FFB05E"/>
		<stop  offset="1" style="stop-color:#FFC16B"/>
	</linearGradient>
	<path class="st2" d="M387.8,195.5c0,0.9-0.7,1.6-1.6,1.6s-1.6-0.7-1.6-1.6c0-0.9,0.7-1.6,1.6-1.6S387.8,194.6,387.8,195.5z"/>
	
		<linearGradient id="SVGID_4_" gradientUnits="userSpaceOnUse" x1="338.2" y1="779.8197" x2="338.2" y2="775.9074" gradientTransform="matrix(1 0 0 1 0 -704)">
		<stop  offset="0" style="stop-color:#FFA959"/>
		<stop  offset="0.4307" style="stop-color:#FFB05E"/>
		<stop  offset="1" style="stop-color:#FFC16B"/>
	</linearGradient>
	<path class="st3" d="M339.8,73.3c0,0.9-0.7,1.6-1.6,1.6s-1.6-0.7-1.6-1.6s0.7-1.6,1.6-1.6S339.8,72.4,339.8,73.3z"/>
	
		<linearGradient id="SVGID_5_" gradientUnits="userSpaceOnUse" x1="124.8" y1="924.9289" x2="124.8" y2="921.0166" gradientTransform="matrix(1 0 0 1 0 -704)">
		<stop  offset="0" style="stop-color:#FFA959"/>
		<stop  offset="0.4307" style="stop-color:#FFB05E"/>
		<stop  offset="1" style="stop-color:#FFC16B"/>
	</linearGradient>
	<path class="st4" d="M126.4,218.4c0,0.9-0.7,1.6-1.6,1.6s-1.6-0.7-1.6-1.6s0.7-1.6,1.6-1.6C125.6,216.8,126.4,217.5,126.4,218.4z"
		/>
	
		<linearGradient id="SVGID_6_" gradientUnits="userSpaceOnUse" x1="164.6" y1="868.0808" x2="164.6" y2="864.1685" gradientTransform="matrix(1 0 0 1 0 -704)">
		<stop  offset="0" style="stop-color:#FFA959"/>
		<stop  offset="0.4307" style="stop-color:#FFB05E"/>
		<stop  offset="1" style="stop-color:#FFC16B"/>
	</linearGradient>
	<path class="st5" d="M166.2,161.5c0,0.9-0.7,1.6-1.6,1.6s-1.6-0.7-1.6-1.6c0-0.9,0.7-1.6,1.6-1.6S166.2,160.7,166.2,161.5z"/>
	
		<linearGradient id="SVGID_7_" gradientUnits="userSpaceOnUse" x1="146.2" y1="801.0135" x2="146.2" y2="797.1012" gradientTransform="matrix(1 0 0 1 0 -704)">
		<stop  offset="0" style="stop-color:#FFA959"/>
		<stop  offset="0.4307" style="stop-color:#FFB05E"/>
		<stop  offset="1" style="stop-color:#FFC16B"/>
	</linearGradient>
	<path class="st6" d="M147.8,94.5c0,0.9-0.7,1.6-1.6,1.6c-0.9,0-1.6-0.7-1.6-1.6s0.7-1.6,1.6-1.6S147.8,93.6,147.8,94.5z"/>
	
		<linearGradient id="SVGID_8_" gradientUnits="userSpaceOnUse" x1="114.7" y1="848.6243" x2="114.7" y2="844.712" gradientTransform="matrix(1 0 0 1 0 -704)">
		<stop  offset="0" style="stop-color:#FFA959"/>
		<stop  offset="0.4307" style="stop-color:#FFB05E"/>
		<stop  offset="1" style="stop-color:#FFC16B"/>
	</linearGradient>
	<path class="st7" d="M116.3,142.1c0,0.9-0.7,1.6-1.6,1.6s-1.6-0.7-1.6-1.6s0.7-1.6,1.6-1.6C115.6,140.5,116.3,141.2,116.3,142.1z"
		/>
	
		<linearGradient id="SVGID_9_" gradientUnits="userSpaceOnUse" x1="312.5" y1="809.2632" x2="312.5" y2="807.6315" gradientTransform="matrix(1 0 0 1 0 -704)">
		<stop  offset="0" style="stop-color:#FFA959"/>
		<stop  offset="0.4307" style="stop-color:#FFB05E"/>
		<stop  offset="1" style="stop-color:#FFC16B"/>
	</linearGradient>
	<circle class="st8" cx="312.5" cy="104.2" r="0.7"/>
	<g>
		<g>
			<path class="st9" d="M247.3,237.5c-17.9,0-35.8-3.9-49.5-11.8c-13.3-7.7-20.6-17.9-20.6-28.7c0-10.9,7.3-21,20.6-28.7
				c27.3-15.8,71.7-15.8,99,0c13.3,7.7,20.6,17.9,20.6,28.7c0,10.9-7.3,21-20.6,28.7l-0.1-0.2l0.1,0.2
				C283.1,233.5,265.2,237.5,247.3,237.5z M247.3,156.9c-17.8,0-35.7,3.9-49.2,11.8c-13.1,7.6-20.3,17.6-20.3,28.3
				s7.2,20.7,20.3,28.3c27.2,15.7,71.3,15.7,98.5,0c13.1-7.6,20.3-17.6,20.3-28.3s-7.2-20.7-20.3-28.3
				C283,160.8,265.1,156.9,247.3,156.9z"/>
		</g>
		
			<linearGradient id="SVGID_10_" gradientUnits="userSpaceOnUse" x1="247.4" y1="826.8315" x2="247.4" y2="910.0094" gradientTransform="matrix(1 0 0 1 0 -704)">
			<stop  offset="0" style="stop-color:#FFA959"/>
			<stop  offset="0.4307" style="stop-color:#FFB05E"/>
			<stop  offset="1" style="stop-color:#FFC16B"/>
		</linearGradient>
		<ellipse class="st10" cx="247.4" cy="190.5" rx="64.8" ry="37.4"/>
		
			<linearGradient id="SVGID_11_" gradientUnits="userSpaceOnUse" x1="247.3" y1="866.4035" x2="247.3" y2="900.9061" gradientTransform="matrix(1 0 0 1 0 -704)">
			<stop  offset="0" style="stop-color:#FFA959"/>
			<stop  offset="0.4307" style="stop-color:#FFB05E"/>
			<stop  offset="1" style="stop-color:#FFC16B"/>
		</linearGradient>
		<ellipse class="st11" cx="247.3" cy="190.5" rx="26.9" ry="15.5"/>
		
			<linearGradient id="SVGID_12_" gradientUnits="userSpaceOnUse" x1="247.8" y1="873.013" x2="247.8" y2="898.7864" gradientTransform="matrix(1 0 0 1 0 -704)">
			<stop  offset="0" style="stop-color:#FFA959"/>
			<stop  offset="0.4307" style="stop-color:#FFB05E"/>
			<stop  offset="1" style="stop-color:#FFC16B"/>
		</linearGradient>
		<ellipse class="st12" cx="247.8" cy="190" rx="20.1" ry="11.6"/>
		<g>
			
				<linearGradient id="SVGID_13_" gradientUnits="userSpaceOnUse" x1="247.4" y1="719.1163" x2="247.4" y2="955.9777" gradientTransform="matrix(1 0 0 1 0 -704)">
				<stop  offset="0.2247" style="stop-color:#FFFFFF;stop-opacity:0"/>
				<stop  offset="0.3556" style="stop-color:#FFF7EC;stop-opacity:0.1687"/>
				<stop  offset="0.6209" style="stop-color:#FFE2BB;stop-opacity:0.511"/>
				<stop  offset="0.9941" style="stop-color:#FFC26C;stop-opacity:0.9924"/>
				<stop  offset="1" style="stop-color:#FFC16B"/>
			</linearGradient>
			<path class="st13" d="M312.2,10.2H182.6v179.9c0,9.6,6.3,19.1,19,26.4c25.3,14.6,66.3,14.6,91.6,0c12.6-7.3,19-16.9,19-26.4l0,0
				V10.2z"/>
			
				<linearGradient id="SVGID_14_" gradientUnits="userSpaceOnUse" x1="270.2" y1="719.1451" x2="270.2" y2="956.0058" gradientTransform="matrix(1 0 0 1 0 -704)">
				<stop  offset="0.2247" style="stop-color:#FFFFFF;stop-opacity:0"/>
				<stop  offset="0.3556" style="stop-color:#FFF7EC;stop-opacity:0.1687"/>
				<stop  offset="0.6209" style="stop-color:#FFE2BB;stop-opacity:0.511"/>
				<stop  offset="0.9941" style="stop-color:#FFC26C;stop-opacity:0.9924"/>
				<stop  offset="1" style="stop-color:#FFC16B"/>
			</linearGradient>
			<path class="st14" d="M291.8,10.2h-43.2v217.3c15.6-0.1,31-3.5,43.2-10.1V10.2z"/>
		</g>
		<path class="st9" d="M303.1,238.1c0,0.4,0.3,0.6,0.7,0.4c0.4-0.2,0.7-0.7,0.7-1.1c0-0.4-0.3-0.6-0.7-0.4
			C303.4,237.1,303.1,237.6,303.1,238.1z"/>
		<path class="st9" d="M298.1,241c0,0.4,0.3,0.6,0.7,0.4c0.4-0.2,0.7-0.7,0.7-1.1c0-0.4-0.3-0.6-0.7-0.4
			C298.4,240,298.1,240.5,298.1,241z"/>
		<path class="st9" d="M303.1,243.5c0,0.4,0.3,0.6,0.7,0.4c0.4-0.2,0.7-0.7,0.7-1.1c0-0.4-0.3-0.6-0.7-0.4S303.1,243.1,303.1,243.5z
			"/>
		<path class="st9" d="M298.1,246.4c0,0.4,0.3,0.6,0.7,0.4c0.4-0.2,0.7-0.7,0.7-1.1c0-0.4-0.3-0.6-0.7-0.4S298.1,246,298.1,246.4z"
			/>
		
			<linearGradient id="SVGID_15_" gradientUnits="userSpaceOnUse" x1="363.4" y1="910.1619" x2="363.4" y2="985.7194" gradientTransform="matrix(1 0 0 1 0 -704)">
			<stop  offset="0.2247" style="stop-color:#FFFFFF;stop-opacity:0"/>
			<stop  offset="0.3556" style="stop-color:#FFF7EC;stop-opacity:0.1687"/>
			<stop  offset="0.6209" style="stop-color:#FFE2BB;stop-opacity:0.511"/>
			<stop  offset="0.9941" style="stop-color:#FFC26C;stop-opacity:0.9924"/>
			<stop  offset="1" style="stop-color:#FFC16B"/>
		</linearGradient>
		<path class="st15" d="M372.3,204.6h-17.8v64.2c0,1.3,0.9,2.6,2.6,3.6c3.5,2,9.1,2,12.6,0c1.7-1,2.6-2.3,2.6-3.6l0,0L372.3,204.6
			L372.3,204.6z"/>
		<path class="st9" d="M357.1,272.4c3.5,2,9.1,2,12.6,0s3.5-5.3,0-7.3s-9.1-2-12.6,0S353.6,270.4,357.1,272.4z"/>
		<g class="st16">
			
				<linearGradient id="SVGID_16_" gradientUnits="userSpaceOnUse" x1="-3084.7031" y1="8495.6035" x2="-2993.803" y2="8495.6035" gradientTransform="matrix(0 1 -1 0 8693.4033 3135.9031)">
				<stop  offset="0.101" style="stop-color:#FFFFFF;stop-opacity:0.1"/>
				<stop  offset="0.1993" style="stop-color:#FFF2DF;stop-opacity:0.3216"/>
				<stop  offset="0.4139" style="stop-color:#FFCF8D;stop-opacity:0.8057"/>
				<stop  offset="0.5" style="stop-color:#FFC16B"/>
				<stop  offset="1" style="stop-color:#FFFFFF;stop-opacity:0.1"/>
			</linearGradient>
			<rect x="197.1" y="51.2" class="st17" width="1.4" height="90.9"/>
		</g>
		<g class="st16">
			
				<linearGradient id="SVGID_17_" gradientUnits="userSpaceOnUse" x1="-3104.9031" y1="8393.8037" x2="-3020.4031" y2="8393.8037" gradientTransform="matrix(0 1 -1 0 8693.4033 3135.9031)">
				<stop  offset="0.101" style="stop-color:#FFFFFF;stop-opacity:0.1"/>
				<stop  offset="0.1993" style="stop-color:#FFF2DF;stop-opacity:0.3216"/>
				<stop  offset="0.4139" style="stop-color:#FFCF8D;stop-opacity:0.8057"/>
				<stop  offset="0.5" style="stop-color:#FFC16B"/>
				<stop  offset="1" style="stop-color:#FFFFFF;stop-opacity:0.1"/>
			</linearGradient>
			<rect x="298.9" y="31" class="st18" width="1.4" height="84.5"/>
		</g>
		<g class="st16">
			
				<linearGradient id="SVGID_18_" gradientUnits="userSpaceOnUse" x1="-3017.9031" y1="8473.2031" x2="-2932.603" y2="8473.2031" gradientTransform="matrix(0 1 -1 0 8693.4033 3135.9031)">
				<stop  offset="0.101" style="stop-color:#FFFFFF;stop-opacity:0.1"/>
				<stop  offset="0.1993" style="stop-color:#FFF2DF;stop-opacity:0.3216"/>
				<stop  offset="0.4139" style="stop-color:#FFCF8D;stop-opacity:0.8057"/>
				<stop  offset="0.5" style="stop-color:#FFC16B"/>
				<stop  offset="1" style="stop-color:#FFFFFF;stop-opacity:0.1"/>
			</linearGradient>
			<rect x="219.5" y="118" class="st19" width="1.4" height="85.3"/>
		</g>
		<g class="st16">
			
				<linearGradient id="SVGID_19_" gradientUnits="userSpaceOnUse" x1="-3135.9031" y1="8434.9033" x2="-3026.4031" y2="8434.9033" gradientTransform="matrix(0 1 -1 0 8693.4033 3135.9031)">
				<stop  offset="0.101" style="stop-color:#FFFFFF;stop-opacity:0.1"/>
				<stop  offset="0.1993" style="stop-color:#FFF2DF;stop-opacity:0.3216"/>
				<stop  offset="0.4139" style="stop-color:#FFCF8D;stop-opacity:0.8057"/>
				<stop  offset="0.5" style="stop-color:#FFC16B"/>
				<stop  offset="1" style="stop-color:#FFFFFF;stop-opacity:0.1"/>
			</linearGradient>
			<rect x="257.8" class="st20" width="1.4" height="109.5"/>
		</g>
		
			<linearGradient id="SVGID_20_" gradientUnits="userSpaceOnUse" x1="207.2" y1="788.4731" x2="207.2" y2="785.9609" gradientTransform="matrix(1 0 0 1 0 -704)">
			<stop  offset="0" style="stop-color:#FFA959"/>
			<stop  offset="0.4307" style="stop-color:#FFB05E"/>
			<stop  offset="1" style="stop-color:#FFC16B"/>
		</linearGradient>
		<path class="st21" d="M208.2,82.8c0,0.6-0.5,1-1,1c-0.6,0-1-0.5-1-1c0-0.6,0.5-1,1-1S208.2,82.3,208.2,82.8z"/>
		
			<linearGradient id="SVGID_21_" gradientUnits="userSpaceOnUse" x1="267.9" y1="764.5145" x2="267.9" y2="762.0023" gradientTransform="matrix(1 0 0 1 0 -704)">
			<stop  offset="0" style="stop-color:#FFA959"/>
			<stop  offset="0.4307" style="stop-color:#FFB05E"/>
			<stop  offset="1" style="stop-color:#FFC16B"/>
		</linearGradient>
		<path class="st22" d="M268.9,58.9c0,0.6-0.5,1-1,1c-0.6,0-1-0.5-1-1s0.5-1,1-1S268.9,58.3,268.9,58.9z"/>
		
			<linearGradient id="SVGID_22_" gradientUnits="userSpaceOnUse" x1="282.8" y1="741.3835" x2="282.8" y2="738.8712" gradientTransform="matrix(1 0 0 1 0 -704)">
			<stop  offset="0" style="stop-color:#FFA959"/>
			<stop  offset="0.4307" style="stop-color:#FFB05E"/>
			<stop  offset="1" style="stop-color:#FFC16B"/>
		</linearGradient>
		<path class="st23" d="M283.8,35.8c0,0.6-0.5,1-1,1c-0.6,0-1-0.5-1-1c0-0.6,0.5-1,1-1C283.3,34.7,283.8,35.2,283.8,35.8z"/>
		
			<linearGradient id="SVGID_23_" gradientUnits="userSpaceOnUse" x1="242.2" y1="730.4209" x2="242.2" y2="727.9087" gradientTransform="matrix(1 0 0 1 0 -704)">
			<stop  offset="0" style="stop-color:#FFA959"/>
			<stop  offset="0.4307" style="stop-color:#FFB05E"/>
			<stop  offset="1" style="stop-color:#FFC16B"/>
		</linearGradient>
		<path class="st24" d="M243.2,24.8c0,0.6-0.5,1-1,1s-1-0.5-1-1c0-0.6,0.5-1,1-1S243.2,24.2,243.2,24.8z"/>
		
			<linearGradient id="SVGID_24_" gradientUnits="userSpaceOnUse" x1="190.5" y1="751.8575" x2="190.5" y2="749.3452" gradientTransform="matrix(1 0 0 1 0 -704)">
			<stop  offset="0" style="stop-color:#FFA959"/>
			<stop  offset="0.4307" style="stop-color:#FFB05E"/>
			<stop  offset="1" style="stop-color:#FFC16B"/>
		</linearGradient>
		<circle class="st25" cx="190.5" cy="46.2" r="1"/>
		
			<linearGradient id="SVGID_25_" gradientUnits="userSpaceOnUse" x1="300.6" y1="864.1932" x2="300.6" y2="861.681" gradientTransform="matrix(1 0 0 1 0 -704)">
			<stop  offset="0" style="stop-color:#FFA959"/>
			<stop  offset="0.4307" style="stop-color:#FFB05E"/>
			<stop  offset="1" style="stop-color:#FFC16B"/>
		</linearGradient>
		<path class="st26" d="M301.6,158.6c0,0.6-0.5,1-1,1c-0.6,0-1-0.5-1-1c0-0.6,0.5-1,1-1S301.6,158,301.6,158.6z"/>
		<path class="st9" d="M208.6,167.6c0,0.6-0.5,1-1,1s-1-0.5-1-1c0-0.6,0.5-1,1-1S208.6,167,208.6,167.6z"/>
		<path class="st9" d="M266.3,213.4c0,0.6-0.5,1-1,1c-0.6,0-1-0.5-1-1c0-0.6,0.5-1,1-1S266.3,212.8,266.3,213.4z"/>
	</g>
</g>
</svg>
