<svg xmlns="http://www.w3.org/2000/svg" width="88" height="88" viewBox="0 0 88 88">
    <defs>
        <linearGradient id="a" x1="0%" y1="50%" y2="50%">
            <stop offset="0%" stop-color="#FFB347"/>
            <stop offset="100%" stop-color="#F56945"/>
        </linearGradient>
    </defs>
    <g fill="none" fill-rule="evenodd">
        <rect width="88" height="88" fill="url(#a)" rx="30.8"/>
        <path fill="#FFF" d="M64.8 60H23.2a3.201 3.201 0 0 1-3.2-3.2V31.2c0-1.766 1.434-3.2 3.2-3.2h41.6c1.766 0 3.2 1.434 3.2 3.2v25.6c0 1.766-1.434 3.2-3.2 3.2zm-5.356-23c.86 0 1.556-.672 1.556-1.5s-.695-1.5-1.556-1.5H48.556c-.86 0-1.556.672-1.556 1.5s.695 1.5 1.556 1.5h10.888zM40.4 45c.885 0 1.6-.702 1.6-1.571V35.57c0-.867-.715-1.571-1.6-1.571H27.6c-.885 0-1.6.704-1.6 1.571v7.858c0 .869.715 1.571 1.6 1.571h12.8zm19.044 0c.86 0 1.556-.67 1.556-1.5s-.695-1.5-1.556-1.5H48.556c-.86 0-1.556.67-1.556 1.5s.695 1.5 1.556 1.5h10.888zm-.035 8c.88 0 1.591-.67 1.591-1.5s-.711-1.5-1.59-1.5H27.59c-.879 0-1.59.67-1.59 1.5s.711 1.5 1.59 1.5h31.82z"/>
    </g>
</svg>
