<svg xmlns="http://www.w3.org/2000/svg" width="88" height="88" viewBox="0 0 88 88">
    <defs>
        <linearGradient id="a" x1="0%" y1="50%" y2="50%">
            <stop offset="0%" stop-color="#FFB347"/>
            <stop offset="100%" stop-color="#F56945"/>
        </linearGradient>
    </defs>
    <g fill="none" fill-rule="evenodd">
        <rect width="88" height="88" fill="url(#a)" rx="30.8"/>
        <path fill="#FFF" d="M53 33.4a.61.61 0 0 1-.62.6H35.62a.61.61 0 0 1-.62-.6v-4.2c0-.662.556-1.2 1.241-1.2H51.76c.685 0 1.241.538 1.241 1.2v4.2zM49.478 47H38.522A1.51 1.51 0 0 1 37 45.5c0-.829.681-1.5 1.522-1.5h10.956c.84 0 1.522.671 1.522 1.5s-.681 1.5-1.522 1.5zm11.564-12.841h-3.718a.627.627 0 0 1-.62-.635v-5.08c0-2.454-1.942-4.444-4.338-4.444H35.634c-2.395 0-4.338 1.99-4.338 4.444v5.08a.627.627 0 0 1-.62.635h-3.718c-2.738 0-4.958 2.274-4.958 5.08V58.92C22 61.726 24.22 64 26.958 64h34.084C63.781 64 66 61.726 66 58.92V39.239c0-2.805-2.22-5.08-4.958-5.08z"/>
    </g>
</svg>
