<?xml version="1.0" encoding="utf-8"?>
<!-- Generator: Adobe Illustrator 23.0.0, SVG Export Plug-In . SVG Version: 6.00 Build 0)  -->
<svg version="1.1" id="Layer_1" xmlns="http://www.w3.org/2000/svg" xmlns:xlink="http://www.w3.org/1999/xlink" x="0px" y="0px"
	 viewBox="0 0 274.6 237" style="enable-background:new 0 0 274.6 237;" xml:space="preserve">
<style type="text/css">
	.st0{fill:url(#SVGID_1_);}
	.st1{fill:url(#SVGID_2_);}
	.st2{fill:url(#SVGID_3_);}
	.st3{fill:url(#SVGID_4_);}
	.st4{fill:url(#SVGID_5_);}
	.st5{fill:url(#SVGID_6_);}
	.st6{fill:url(#SVGID_7_);}
	.st7{fill:url(#SVGID_8_);}
	.st8{fill:url(#SVGID_9_);}
	.st9{fill:url(#SVGID_10_);}
	.st10{fill:url(#SVGID_11_);}
	.st11{opacity:0.67;}
	.st12{fill:url(#SVGID_12_);}
	.st13{fill:url(#SVGID_13_);}
	.st14{fill:url(#SVGID_14_);}
	.st15{fill:url(#SVGID_15_);}
	.st16{fill:url(#SVGID_16_);}
	.st17{fill:url(#SVGID_17_);}
	.st18{fill:url(#SVGID_18_);}
	.st19{fill:url(#SVGID_19_);}
	.st20{fill:url(#SVGID_20_);}
	.st21{fill:url(#SVGID_21_);}
	.st22{fill:#FFFFFF;}
</style>
<linearGradient id="SVGID_1_" gradientUnits="userSpaceOnUse" x1="235.5" y1="990.6624" x2="235.5" y2="986.7501" gradientTransform="matrix(1 0 0 1 0 -842)">
	<stop  offset="0" style="stop-color:#FFA959"/>
	<stop  offset="0.4307" style="stop-color:#FFB05E"/>
	<stop  offset="1" style="stop-color:#FFC16B"/>
</linearGradient>
<path class="st0" d="M237.1,146.1c0,0.9-0.7,1.6-1.6,1.6c-0.9,0-1.6-0.7-1.6-1.6c0-0.9,0.7-1.6,1.6-1.6
	C236.4,144.5,237.1,145.3,237.1,146.1z"/>
<linearGradient id="SVGID_2_" gradientUnits="userSpaceOnUse" x1="228.2" y1="1071.2224" x2="228.2" y2="1067.3101" gradientTransform="matrix(1 0 0 1 0 -842)">
	<stop  offset="0" style="stop-color:#FFA959"/>
	<stop  offset="0.4307" style="stop-color:#FFB05E"/>
	<stop  offset="1" style="stop-color:#FFC16B"/>
</linearGradient>
<path class="st1" d="M229.8,226.7c0,0.9-0.7,1.6-1.6,1.6c-0.9,0-1.6-0.7-1.6-1.6s0.7-1.6,1.6-1.6
	C229.1,225.1,229.8,225.8,229.8,226.7z"/>
<linearGradient id="SVGID_3_" gradientUnits="userSpaceOnUse" x1="273" y1="1040.0371" x2="273" y2="1036.1248" gradientTransform="matrix(1 0 0 1 0 -842)">
	<stop  offset="0" style="stop-color:#FFA959"/>
	<stop  offset="0.4307" style="stop-color:#FFB05E"/>
	<stop  offset="1" style="stop-color:#FFC16B"/>
</linearGradient>
<path class="st2" d="M274.6,195.5c0,0.9-0.7,1.6-1.6,1.6s-1.6-0.7-1.6-1.6c0-0.9,0.7-1.6,1.6-1.6S274.6,194.6,274.6,195.5z"/>
<linearGradient id="SVGID_4_" gradientUnits="userSpaceOnUse" x1="225.1" y1="917.8197" x2="225.1" y2="913.9074" gradientTransform="matrix(1 0 0 1 0 -842)">
	<stop  offset="0" style="stop-color:#FFA959"/>
	<stop  offset="0.4307" style="stop-color:#FFB05E"/>
	<stop  offset="1" style="stop-color:#FFC16B"/>
</linearGradient>
<path class="st3" d="M226.7,73.3c0,0.9-0.7,1.6-1.6,1.6c-0.9,0-1.6-0.7-1.6-1.6s0.7-1.6,1.6-1.6C226,71.7,226.7,72.4,226.7,73.3z"/>
<linearGradient id="SVGID_5_" gradientUnits="userSpaceOnUse" x1="11.6" y1="1062.929" x2="11.6" y2="1059.0166" gradientTransform="matrix(1 0 0 1 0 -842)">
	<stop  offset="0" style="stop-color:#FFA959"/>
	<stop  offset="0.4307" style="stop-color:#FFB05E"/>
	<stop  offset="1" style="stop-color:#FFC16B"/>
</linearGradient>
<path class="st4" d="M13.2,218.4c0,0.9-0.7,1.6-1.6,1.6c-0.9,0-1.6-0.7-1.6-1.6s0.7-1.6,1.6-1.6C12.5,216.8,13.2,217.5,13.2,218.4z"
	/>
<linearGradient id="SVGID_6_" gradientUnits="userSpaceOnUse" x1="51.5" y1="1006.0808" x2="51.5" y2="1002.1685" gradientTransform="matrix(1 0 0 1 0 -842)">
	<stop  offset="0" style="stop-color:#FFA959"/>
	<stop  offset="0.4307" style="stop-color:#FFB05E"/>
	<stop  offset="1" style="stop-color:#FFC16B"/>
</linearGradient>
<path class="st5" d="M53.1,161.5c0,0.9-0.7,1.6-1.6,1.6s-1.6-0.7-1.6-1.6c0-0.9,0.7-1.6,1.6-1.6S53.1,160.7,53.1,161.5z"/>
<linearGradient id="SVGID_7_" gradientUnits="userSpaceOnUse" x1="33.1" y1="939.0135" x2="33.1" y2="935.1012" gradientTransform="matrix(1 0 0 1 0 -842)">
	<stop  offset="0" style="stop-color:#FFA959"/>
	<stop  offset="0.4307" style="stop-color:#FFB05E"/>
	<stop  offset="1" style="stop-color:#FFC16B"/>
</linearGradient>
<path class="st6" d="M34.7,94.5c0,0.9-0.7,1.6-1.6,1.6s-1.6-0.7-1.6-1.6s0.7-1.6,1.6-1.6S34.7,93.6,34.7,94.5z"/>
<linearGradient id="SVGID_8_" gradientUnits="userSpaceOnUse" x1="1.6" y1="986.6243" x2="1.6" y2="982.712" gradientTransform="matrix(1 0 0 1 0 -842)">
	<stop  offset="0" style="stop-color:#FFA959"/>
	<stop  offset="0.4307" style="stop-color:#FFB05E"/>
	<stop  offset="1" style="stop-color:#FFC16B"/>
</linearGradient>
<path class="st7" d="M3.2,142.1c0,0.9-0.7,1.6-1.6,1.6S0,143,0,142.1s0.7-1.6,1.6-1.6C2.4,140.5,3.2,141.2,3.2,142.1z"/>
<linearGradient id="SVGID_9_" gradientUnits="userSpaceOnUse" x1="199.4" y1="947.2632" x2="199.4" y2="945.6315" gradientTransform="matrix(1 0 0 1 0 -842)">
	<stop  offset="0" style="stop-color:#FFA959"/>
	<stop  offset="0.4307" style="stop-color:#FFB05E"/>
	<stop  offset="1" style="stop-color:#FFC16B"/>
</linearGradient>
<circle class="st8" cx="199.4" cy="104.2" r="0.7"/>
<g>
	<g>
		
			<linearGradient id="SVGID_10_" gradientUnits="userSpaceOnUse" x1="134.3" y1="857.1163" x2="134.3" y2="1093.9777" gradientTransform="matrix(1 0 0 1 0 -842)">
			<stop  offset="0.2247" style="stop-color:#FFFFFF;stop-opacity:0"/>
			<stop  offset="0.3556" style="stop-color:#FFF7EC;stop-opacity:0.1687"/>
			<stop  offset="0.6209" style="stop-color:#FFE2BB;stop-opacity:0.511"/>
			<stop  offset="0.9941" style="stop-color:#FFC26C;stop-opacity:0.9924"/>
			<stop  offset="1" style="stop-color:#FFC16B"/>
		</linearGradient>
		<path class="st9" d="M199,10.2H69.5v179.9c0,9.6,6.3,19.1,19,26.4c25.3,14.6,66.3,14.6,91.6,0c12.6-7.3,19-16.9,19-26.4l0,0V10.2
			H199z"/>
		
			<linearGradient id="SVGID_11_" gradientUnits="userSpaceOnUse" x1="157.1" y1="857.1451" x2="157.1" y2="1094.0059" gradientTransform="matrix(1 0 0 1 0 -842)">
			<stop  offset="0.2247" style="stop-color:#FFFFFF;stop-opacity:0"/>
			<stop  offset="0.3556" style="stop-color:#FFF7EC;stop-opacity:0.1687"/>
			<stop  offset="0.6209" style="stop-color:#FFE2BB;stop-opacity:0.511"/>
			<stop  offset="0.9941" style="stop-color:#FFC26C;stop-opacity:0.9924"/>
			<stop  offset="1" style="stop-color:#FFC16B"/>
		</linearGradient>
		<path class="st10" d="M178.7,10.2h-43.2v217.3c15.6-0.1,31-3.5,43.2-10.1V10.2z"/>
	</g>
	<g class="st11">
		
			<linearGradient id="SVGID_12_" gradientUnits="userSpaceOnUse" x1="-3279.8152" y1="8275.5918" x2="-3188.915" y2="8275.5918" gradientTransform="matrix(0 1 -1 0 8360.292 3331.0151)">
			<stop  offset="0.101" style="stop-color:#FFFFFF;stop-opacity:0.1"/>
			<stop  offset="0.1993" style="stop-color:#FFF2DF;stop-opacity:0.3216"/>
			<stop  offset="0.4139" style="stop-color:#FFCF8D;stop-opacity:0.8057"/>
			<stop  offset="0.5" style="stop-color:#FFC16B"/>
			<stop  offset="1" style="stop-color:#FFFFFF;stop-opacity:0.1"/>
		</linearGradient>
		<rect x="84" y="51.2" class="st12" width="1.4" height="90.9"/>
	</g>
	<g class="st11">
		
			<linearGradient id="SVGID_13_" gradientUnits="userSpaceOnUse" x1="-3300.0151" y1="8173.8921" x2="-3215.5151" y2="8173.8921" gradientTransform="matrix(0 1 -1 0 8360.292 3331.0151)">
			<stop  offset="0.101" style="stop-color:#FFFFFF;stop-opacity:0.1"/>
			<stop  offset="0.1993" style="stop-color:#FFF2DF;stop-opacity:0.3216"/>
			<stop  offset="0.4139" style="stop-color:#FFCF8D;stop-opacity:0.8057"/>
			<stop  offset="0.5" style="stop-color:#FFC16B"/>
			<stop  offset="1" style="stop-color:#FFFFFF;stop-opacity:0.1"/>
		</linearGradient>
		<rect x="185.7" y="31" class="st13" width="1.4" height="84.5"/>
	</g>
	<g class="st11">
		
			<linearGradient id="SVGID_14_" gradientUnits="userSpaceOnUse" x1="-3213.0151" y1="8253.1924" x2="-3127.7151" y2="8253.1924" gradientTransform="matrix(0 1 -1 0 8360.292 3331.0151)">
			<stop  offset="0.101" style="stop-color:#FFFFFF;stop-opacity:0.1"/>
			<stop  offset="0.1993" style="stop-color:#FFF2DF;stop-opacity:0.3216"/>
			<stop  offset="0.4139" style="stop-color:#FFCF8D;stop-opacity:0.8057"/>
			<stop  offset="0.5" style="stop-color:#FFC16B"/>
			<stop  offset="1" style="stop-color:#FFFFFF;stop-opacity:0.1"/>
		</linearGradient>
		<rect x="106.4" y="118" class="st14" width="1.4" height="85.3"/>
	</g>
	<g class="st11">
		
			<linearGradient id="SVGID_15_" gradientUnits="userSpaceOnUse" x1="-3331.0151" y1="8214.9922" x2="-3221.5151" y2="8214.9922" gradientTransform="matrix(0 1 -1 0 8360.292 3331.0151)">
			<stop  offset="0.101" style="stop-color:#FFFFFF;stop-opacity:0.1"/>
			<stop  offset="0.1993" style="stop-color:#FFF2DF;stop-opacity:0.3216"/>
			<stop  offset="0.4139" style="stop-color:#FFCF8D;stop-opacity:0.8057"/>
			<stop  offset="0.5" style="stop-color:#FFC16B"/>
			<stop  offset="1" style="stop-color:#FFFFFF;stop-opacity:0.1"/>
		</linearGradient>
		<rect x="144.6" class="st15" width="1.4" height="109.5"/>
	</g>
	
		<linearGradient id="SVGID_16_" gradientUnits="userSpaceOnUse" x1="94.1" y1="926.4731" x2="94.1" y2="923.9609" gradientTransform="matrix(1 0 0 1 0 -842)">
		<stop  offset="0" style="stop-color:#FFA959"/>
		<stop  offset="0.4307" style="stop-color:#FFB05E"/>
		<stop  offset="1" style="stop-color:#FFC16B"/>
	</linearGradient>
	<path class="st16" d="M95.1,82.8c0,0.6-0.5,1-1,1s-1-0.5-1-1c0-0.6,0.5-1,1-1S95.1,82.3,95.1,82.8z"/>
	
		<linearGradient id="SVGID_17_" gradientUnits="userSpaceOnUse" x1="154.8" y1="902.5145" x2="154.8" y2="900.0023" gradientTransform="matrix(1 0 0 1 0 -842)">
		<stop  offset="0" style="stop-color:#FFA959"/>
		<stop  offset="0.4307" style="stop-color:#FFB05E"/>
		<stop  offset="1" style="stop-color:#FFC16B"/>
	</linearGradient>
	<path class="st17" d="M155.8,58.9c0,0.6-0.5,1-1,1c-0.6,0-1-0.5-1-1s0.5-1,1-1S155.8,58.3,155.8,58.9z"/>
	
		<linearGradient id="SVGID_18_" gradientUnits="userSpaceOnUse" x1="169.7" y1="879.3835" x2="169.7" y2="876.8712" gradientTransform="matrix(1 0 0 1 0 -842)">
		<stop  offset="0" style="stop-color:#FFA959"/>
		<stop  offset="0.4307" style="stop-color:#FFB05E"/>
		<stop  offset="1" style="stop-color:#FFC16B"/>
	</linearGradient>
	<path class="st18" d="M170.7,35.8c0,0.6-0.5,1-1,1s-1-0.5-1-1c0-0.6,0.5-1,1-1S170.7,35.2,170.7,35.8z"/>
	
		<linearGradient id="SVGID_19_" gradientUnits="userSpaceOnUse" x1="129.1" y1="868.4209" x2="129.1" y2="865.9087" gradientTransform="matrix(1 0 0 1 0 -842)">
		<stop  offset="0" style="stop-color:#FFA959"/>
		<stop  offset="0.4307" style="stop-color:#FFB05E"/>
		<stop  offset="1" style="stop-color:#FFC16B"/>
	</linearGradient>
	<path class="st19" d="M130.1,24.8c0,0.6-0.5,1-1,1s-1-0.5-1-1c0-0.6,0.5-1,1-1S130.1,24.2,130.1,24.8z"/>
	
		<linearGradient id="SVGID_20_" gradientUnits="userSpaceOnUse" x1="77.4" y1="889.8575" x2="77.4" y2="887.3452" gradientTransform="matrix(1 0 0 1 0 -842)">
		<stop  offset="0" style="stop-color:#FFA959"/>
		<stop  offset="0.4307" style="stop-color:#FFB05E"/>
		<stop  offset="1" style="stop-color:#FFC16B"/>
	</linearGradient>
	<circle class="st20" cx="77.4" cy="46.2" r="1"/>
	
		<linearGradient id="SVGID_21_" gradientUnits="userSpaceOnUse" x1="187.5" y1="1002.1932" x2="187.5" y2="999.681" gradientTransform="matrix(1 0 0 1 0 -842)">
		<stop  offset="0" style="stop-color:#FFA959"/>
		<stop  offset="0.4307" style="stop-color:#FFB05E"/>
		<stop  offset="1" style="stop-color:#FFC16B"/>
	</linearGradient>
	<path class="st21" d="M188.5,158.6c0,0.6-0.5,1-1,1s-1-0.5-1-1c0-0.6,0.5-1,1-1S188.5,158,188.5,158.6z"/>
	<path class="st22" d="M95.5,167.6c0,0.6-0.5,1-1,1s-1-0.5-1-1c0-0.6,0.5-1,1-1S95.5,167,95.5,167.6z"/>
	<path class="st22" d="M153.2,213.4c0,0.6-0.5,1-1,1c-0.6,0-1-0.5-1-1c0-0.6,0.5-1,1-1S153.2,212.8,153.2,213.4z"/>
</g>
</svg>
