<?xml version="1.0" encoding="utf-8"?>
<!-- Generator: Adobe Illustrator 23.0.0, SVG Export Plug-In . SVG Version: 6.00 Build 0)  -->
<svg version="1.1" id="Layer_1" xmlns="http://www.w3.org/2000/svg" xmlns:xlink="http://www.w3.org/1999/xlink" x="0px" y="0px"
	 viewBox="0 0 274.6 237" style="enable-background:new 0 0 274.6 237;" xml:space="preserve">
<style type="text/css">
	.st0{fill:#FFC16B;}
	.st1{fill:url(#SVGID_1_);}
	.st2{fill:url(#SVGID_2_);}
	.st3{opacity:0.44;fill:url(#SVGID_3_);enable-background:new    ;}
	.st4{fill:url(#SVGID_4_);}
</style>
<g>
	<path class="st0" d="M133.9,237c-17.9,0-35.8-3.9-49.5-11.8c-13.3-7.7-20.6-17.9-20.6-28.7c0-10.9,7.3-21,20.6-28.7
		c27.3-15.8,71.7-15.8,99,0c13.3,7.7,20.6,17.9,20.6,28.7c0,10.9-7.3,21-20.6,28.7l-0.1-0.2l0.1,0.2
		C169.7,233.1,151.8,237,133.9,237z M133.9,156.4c-17.8,0-35.7,3.9-49.2,11.8c-13.1,7.6-20.3,17.6-20.3,28.3s7.2,20.7,20.3,28.3
		c27.2,15.7,71.3,15.7,98.5,0c13.1-7.6,20.3-17.6,20.3-28.3s-7.2-20.7-20.3-28.3C169.5,160.4,151.7,156.4,133.9,156.4z"/>
</g>
<g>
	
		<linearGradient id="SVGID_1_" gradientUnits="userSpaceOnUse" x1="78.906" y1="1053.175" x2="196.9061" y2="1053.175" gradientTransform="matrix(1 0 0 1 0 -842)">
		<stop  offset="0" style="stop-color:#FF7A59"/>
		<stop  offset="0.2473" style="stop-color:#FD7B52"/>
		<stop  offset="0.6029" style="stop-color:#F97F3F"/>
		<stop  offset="1" style="stop-color:#F28522"/>
	</linearGradient>
	<path class="st1" d="M69.5,190.5v4l0,0c0,9.6,6.3,19.2,18.9,26.5c25.3,14.6,66.3,14.6,91.6,0c12.6-7.3,18.8-16.7,18.9-26.3l0,0
		v-4.3H69.5V190.5z"/>
	
		<linearGradient id="SVGID_2_" gradientUnits="userSpaceOnUse" x1="134.3" y1="964.8315" x2="134.3" y2="1048.0094" gradientTransform="matrix(1 0 0 1 0 -842)">
		<stop  offset="0" style="stop-color:#FFA959"/>
		<stop  offset="0.4307" style="stop-color:#FFB05E"/>
		<stop  offset="1" style="stop-color:#FFC16B"/>
	</linearGradient>
	<ellipse class="st2" cx="134.3" cy="190.5" rx="64.8" ry="37.4"/>
	
		<linearGradient id="SVGID_3_" gradientUnits="userSpaceOnUse" x1="134.2" y1="1004.4035" x2="134.2" y2="1038.9061" gradientTransform="matrix(1 0 0 1 0 -842)">
		<stop  offset="0" style="stop-color:#FFA959"/>
		<stop  offset="0.4307" style="stop-color:#FFB05E"/>
		<stop  offset="1" style="stop-color:#FFC16B"/>
	</linearGradient>
	<ellipse class="st3" cx="134.2" cy="190.5" rx="26.9" ry="15.5"/>
	
		<linearGradient id="SVGID_4_" gradientUnits="userSpaceOnUse" x1="134.7" y1="1011.013" x2="134.7" y2="1036.7864" gradientTransform="matrix(1 0 0 1 0 -842)">
		<stop  offset="0" style="stop-color:#FFA959"/>
		<stop  offset="0.4307" style="stop-color:#FFB05E"/>
		<stop  offset="1" style="stop-color:#FFC16B"/>
	</linearGradient>
	<ellipse class="st4" cx="134.7" cy="190" rx="20.1" ry="11.6"/>
</g>
</svg>
