<?xml version="1.0" encoding="utf-8"?>
<!-- Generator: Adobe Illustrator 23.0.0, SVG Export Plug-In . SVG Version: 6.00 Build 0)  -->
<svg version="1.1" id="Layer_1" xmlns="http://www.w3.org/2000/svg" xmlns:xlink="http://www.w3.org/1999/xlink" x="0px" y="0px"
	 viewBox="0 0 274.6 237" style="enable-background:new 0 0 274.6 237;" xml:space="preserve">
<style type="text/css">
	.st0{enable-background:new    ;}
	.st1{fill:#F28522;}
	.st2{clip-path:url(#SVGID_2_);}
	.st3{fill:#FFA959;}
</style>
<g>
	<g>
		<g class="st0">
			<g>
				<polygon class="st1" points="108.4,102.7 111.8,101 105.1,104.6 101.7,106.3 				"/>
			</g>
			<g>
				<path class="st1" d="M105.1,104.6l-3.4,1.7l0,0L105.1,104.6L105.1,104.6z"/>
			</g>
			<g>
				<path class="st1" d="M94.9,88.7l3.4-1.7c0.1,0,0.2-0.1,0.3-0.1l-3.4,1.7C95.1,88.6,95,88.7,94.9,88.7z"/>
			</g>
			<g>
				<polygon class="st1" points="95.2,88.6 98.5,86.9 106.1,85.5 102.7,87.2 				"/>
			</g>
			<g>
				<path class="st1" d="M106.4,85.4l-3.4,1.7c-0.1,0-0.2,0.1-0.3,0.1l3.4-1.7C106.2,85.5,106.3,85.5,106.4,85.4z"/>
			</g>
			<g>
				<path class="st1" d="M120.8,104.6l-3.4,1.7c0.4-0.2,0.6-0.6,0.5-1.1l3.4-1.7C121.4,103.9,121.1,104.4,120.8,104.6z"/>
			</g>
			<g>
				<polygon class="st1" points="116.3,97.1 119.7,95.4 121.3,103.4 117.9,105.2 				"/>
			</g>
			<g>
				<path class="st1" d="M107,79l3.4-1.7c0.1-0.1,0.3-0.1,0.4-0.1l-3.4,1.7C107.3,78.9,107.2,79,107,79z"/>
			</g>
			<g>
				<path class="st1" d="M116.6,96.2l3.4-1.7c-0.2,0.2-0.3,0.6-0.2,0.9l-3.4,1.7C116.3,96.8,116.3,96.5,116.6,96.2z"/>
			</g>
			<g>
				<path class="st1" d="M107.5,78.9l3.4-1.7c0.4,0,0.7,0.2,0.9,0.6l-3.4,1.7C108.2,79.1,107.8,78.9,107.5,78.9z"/>
			</g>
			<g>
				<polygon class="st1" points="108.4,79.5 111.8,77.8 115.8,84.9 112.5,86.7 				"/>
			</g>
			<g>
				<path class="st1" d="M112.5,86.7l3.4-1.7c0.2,0.3,0.4,0.5,0.8,0.6l-3.4,1.7C112.9,87.2,112.6,87,112.5,86.7z"/>
			</g>
			<g>
				<polygon class="st1" points="121.6,90.4 125,88.7 119.9,94.5 116.6,96.2 				"/>
			</g>
			<g>
				<polygon class="st1" points="113.2,87.2 116.6,85.5 124.3,86.9 120.9,88.6 				"/>
			</g>
			<g>
				<path class="st1" d="M120.9,88.6l3.4-1.7c0.8,0.2,1.2,1.2,0.7,1.8l-3.4,1.7C122.1,89.8,121.8,88.8,120.9,88.6z"/>
			</g>
			<g>
				<path class="st1" d="M107.5,78.9c0.4,0,0.7,0.2,0.9,0.6l4,7.2c0.2,0.3,0.4,0.5,0.8,0.6l7.7,1.4c0.8,0.2,1.2,1.2,0.7,1.8l-5,5.8
					c-0.2,0.2-0.3,0.6-0.2,0.9l1.6,8c0.1,0.7-0.3,1.2-0.9,1.2c-0.2,0-0.3,0-0.5-0.1l-7.2-3.6c-0.1-0.1-0.3-0.1-0.5-0.1
					s-0.3,0-0.4,0.1l-6.7,3.6c-0.1,0.1-0.3,0.1-0.4,0.1c-0.6,0-1.1-0.5-1.1-1.2l0.6-8c0-0.3-0.1-0.7-0.3-0.9l-5.7-5.8
					c-0.6-0.6-0.4-1.7,0.4-1.8l7.5-1.4c0.3-0.1,0.6-0.3,0.7-0.6l3.2-7.2C106.8,79.1,107.1,78.9,107.5,78.9z"/>
				<g class="st0">
					<g>
						<g>
							<g>
								<defs>
									<path id="SVGID_1_" d="M107.5,78.9c0.4,0,0.7,0.2,0.9,0.6l4,7.2c0.2,0.3,0.4,0.5,0.8,0.6l7.7,1.4c0.8,0.2,1.2,1.2,0.7,1.8
										l-5,5.8c-0.2,0.2-0.3,0.6-0.2,0.9l1.6,8c0.1,0.7-0.3,1.2-0.9,1.2c-0.2,0-0.3,0-0.5-0.1l-7.2-3.6c-0.1-0.1-0.3-0.1-0.5-0.1
										s-0.3,0-0.4,0.1l-6.7,3.6c-0.1,0.1-0.3,0.1-0.4,0.1c-0.6,0-1.1-0.5-1.1-1.2l0.6-8c0-0.3-0.1-0.7-0.3-0.9l-5.7-5.8
										c-0.6-0.6-0.4-1.7,0.4-1.8l7.5-1.4c0.3-0.1,0.6-0.3,0.7-0.6l3.2-7.2C106.8,79.1,107.1,78.9,107.5,78.9z"/>
								</defs>
								<clipPath id="SVGID_2_">
									<use xlink:href="#SVGID_1_"  style="overflow:visible;"/>
								</clipPath>
								<g class="st2">
									<g>
										<g>
											<g>
												<polyline class="st3" points="153.6,16.5 53.9,16.5 63,168.8 162.7,168.8 153.6,16.5 												"/>
											</g>
										</g>
									</g>
								</g>
							</g>
						</g>
					</g>
				</g>
			</g>
		</g>
	</g>
</g>
</svg>
