<?xml version="1.0" encoding="utf-8"?>
<!-- Generator: Adobe Illustrator 23.0.0, SVG Export Plug-In . SVG Version: 6.00 Build 0)  -->
<svg version="1.1" id="Layer_1" xmlns="http://www.w3.org/2000/svg" xmlns:xlink="http://www.w3.org/1999/xlink" x="0px" y="0px"
	 viewBox="0 0 274.6 237" style="enable-background:new 0 0 274.6 237;" xml:space="preserve">
<style type="text/css">
	.st0{enable-background:new    ;}
	.st1{fill:#F28522;}
	.st2{clip-path:url(#SVGID_2_);}
	.st3{fill:#FFA959;}
</style>
<g>
	<g>
		<g class="st0">
			<g>
				<polygon class="st1" points="160.2,73.3 153.9,71.6 160,72.9 166.3,74.7 				"/>
			</g>
			<g>
				<path class="st1" d="M160,72.9l6.3,1.7l0,0L160,72.9L160,72.9z"/>
			</g>
			<g>
				<path class="st1" d="M160,92.4l-6.3-1.7c-0.1,0-0.1,0-0.2-0.1l6.3,1.7C159.9,92.4,159.9,92.4,160,92.4z"/>
			</g>
			<g>
				<path class="st1" d="M160.2,73.3l-6.3-1.7l0,0L160.2,73.3L160.2,73.3z"/>
			</g>
			<g>
				<polygon class="st1" points="159.8,92.3 153.5,90.6 148.2,87 154.6,88.8 				"/>
			</g>
			<g>
				<path class="st1" d="M148,86.9l6.3,1.7c0.1,0,0.1,0,0.2,0.1l-6.3-1.7C148.2,87,148.1,87,148,86.9z"/>
			</g>
			<g>
				<path class="st1" d="M150.7,63.3L157,65c-0.1,0-0.1,0-0.2,0l-6.3-1.7C150.6,63.2,150.7,63.3,150.7,63.3z"/>
			</g>
			<g>
				<path class="st1" d="M156.1,65.6l-6.3-1.7c0.2-0.4,0.5-0.6,0.8-0.6l6.3,1.7C156.6,65,156.3,65.2,156.1,65.6z"/>
			</g>
			<g>
				<polygon class="st1" points="152.3,72.7 146,71 149.7,63.8 156.1,65.6 				"/>
			</g>
			<g>
				<path class="st1" d="M151.7,73.3l-6.3-1.7c0.3-0.1,0.5-0.3,0.7-0.6l6.3,1.7C152.2,73,151.9,73.2,151.7,73.3z"/>
			</g>
			<g>
				<path class="st1" d="M147.2,92.4l-6.3-1.7c-0.4-0.1-0.7-0.6-0.5-1.2l6.3,1.7C146.5,91.8,146.8,92.3,147.2,92.4z"/>
			</g>
			<g>
				<polygon class="st1" points="146.7,91.2 140.3,89.5 142.2,81.5 148.5,83.2 				"/>
			</g>
			<g>
				<path class="st1" d="M148.5,83.2l-6.3-1.7c0.1-0.3,0-0.7-0.1-0.9l6.3,1.7C148.5,82.5,148.6,82.9,148.5,83.2z"/>
			</g>
			<g>
				<polygon class="st1" points="145.3,74.7 139,72.9 145.3,71.6 151.7,73.3 				"/>
			</g>
			<g>
				<polygon class="st1" points="148.4,82.3 142,80.6 138.3,74.7 144.6,76.5 				"/>
			</g>
			<g>
				<path class="st1" d="M144.6,76.5l-6.3-1.7c-0.4-0.6,0-1.7,0.7-1.8l6.3,1.7C144.6,74.8,144.2,75.9,144.6,76.5z"/>
			</g>
			<g>
				<path class="st1" d="M156.9,65c0.3,0,0.6,0.2,0.7,0.6l2.1,7.2c0.1,0.3,0.3,0.5,0.5,0.6l6.1,1.4c0.6,0.2,0.8,1.2,0.3,1.8
					l-5.1,5.8c-0.2,0.2-0.3,0.6-0.3,0.9v8c0,0.7-0.5,1.2-1,1.2c-0.1,0-0.2,0-0.4-0.1l-5.3-3.6c-0.1-0.1-0.2-0.1-0.4-0.1
					c-0.1,0-0.3,0-0.4,0.1l-6.1,3.6c-0.1,0.1-0.3,0.1-0.4,0.1c-0.5,0-0.8-0.5-0.7-1.2l1.8-8c0.1-0.3,0-0.7-0.1-0.9l-3.7-5.8
					c-0.4-0.6,0-1.7,0.7-1.8l6.4-1.4c0.3-0.1,0.5-0.3,0.7-0.6l3.8-7.2C156.3,65.2,156.6,65,156.9,65z"/>
				<g class="st0">
					<g>
						<g>
							<g>
								<defs>
									<path id="SVGID_1_" d="M156.9,65c0.3,0,0.6,0.2,0.7,0.6l2.1,7.2c0.1,0.3,0.3,0.5,0.5,0.6l6.1,1.4c0.6,0.2,0.8,1.2,0.3,1.8
										l-5.1,5.8c-0.2,0.2-0.3,0.6-0.3,0.9v8c0,0.7-0.5,1.2-1,1.2c-0.1,0-0.2,0-0.4-0.1l-5.3-3.6c-0.1-0.1-0.2-0.1-0.4-0.1
										c-0.1,0-0.3,0-0.4,0.1l-6.1,3.6c-0.1,0.1-0.3,0.1-0.4,0.1c-0.5,0-0.8-0.5-0.7-1.2l1.8-8c0.1-0.3,0-0.7-0.1-0.9l-3.7-5.8
										c-0.4-0.6,0-1.7,0.7-1.8l6.4-1.4c0.3-0.1,0.5-0.3,0.7-0.6l3.8-7.2C156.3,65.2,156.6,65,156.9,65z"/>
								</defs>
								<clipPath id="SVGID_2_">
									<use xlink:href="#SVGID_1_"  style="overflow:visible;"/>
								</clipPath>
								<g class="st2">
									<g>
										<g>
											<g>
												<polyline class="st3" points="204.6,2.6 123.3,2.6 106.1,154.8 187.3,154.8 204.6,2.6 												"/>
											</g>
										</g>
									</g>
								</g>
							</g>
						</g>
					</g>
				</g>
			</g>
		</g>
	</g>
</g>
</svg>
