<?xml version="1.0" encoding="utf-8"?>
<!-- Generator: Adobe Illustrator 23.0.0, SVG Export Plug-In . SVG Version: 6.00 Build 0)  -->
<svg version="1.1" id="Layer_1" xmlns="http://www.w3.org/2000/svg" xmlns:xlink="http://www.w3.org/1999/xlink" x="0px" y="0px"
	 viewBox="0 0 274.6 237" style="enable-background:new 0 0 274.6 237;" xml:space="preserve">
<style type="text/css">
	.st0{enable-background:new    ;}
	.st1{fill:#F28522;}
	.st2{clip-path:url(#SVGID_2_);}
	.st3{fill:#FFA959;}
</style>
<g>
	<g>
		<g class="st0">
			<g>
				<path class="st1" d="M159,109.6l1.7-1.7c0.2-0.2,0.4-0.3,0.6-0.3l-1.7,1.7C159.3,109.3,159.1,109.4,159,109.6z"/>
			</g>
			<g>
				<path class="st1" d="M187.6,127.5l-1.7,1.7c0.3-0.3,0.4-0.6,0.3-1.1l1.7-1.7C188,126.9,187.9,127.3,187.6,127.5z"/>
			</g>
			<g>
				<polygon class="st1" points="159.6,109.3 161.3,107.5 170.4,106 168.7,107.7 				"/>
			</g>
			<g>
				<path class="st1" d="M171,105.6l-1.7,1.7c-0.2,0.2-0.4,0.3-0.6,0.3l1.7-1.7C170.7,105.9,170.9,105.8,171,105.6z"/>
			</g>
			<g>
				<polygon class="st1" points="184.6,119 186.3,117.3 187.9,126.5 186.2,128.2 				"/>
			</g>
			<g>
				<path class="st1" d="M184.9,118l1.7-1.7c-0.3,0.3-0.4,0.7-0.3,1l-1.7,1.7C184.6,118.7,184.7,118.3,184.9,118z"/>
			</g>
			<g>
				<path class="st1" d="M180.4,107.1l1.7-1.7c0.2,0.3,0.5,0.6,0.9,0.6l-1.7,1.7C180.9,107.7,180.6,107.4,180.4,107.1z"/>
			</g>
			<g>
				<path class="st1" d="M173.8,98.6l1.7-1.7c0.2-0.2,0.5-0.3,0.9-0.3l-1.7,1.7C174.4,98.2,174.1,98.3,173.8,98.6z"/>
			</g>
			<g>
				<polygon class="st1" points="175.8,98.9 177.5,97.1 182.1,105.3 180.4,107.1 				"/>
			</g>
			<g>
				<path class="st1" d="M174.7,98.2l1.7-1.7c0.4,0,0.9,0.2,1.1,0.7l-1.7,1.7C175.6,98.4,175.1,98.2,174.7,98.2z"/>
			</g>
			<g>
				<polygon class="st1" points="191.2,111.4 192.9,109.6 186.6,116.3 184.9,118 				"/>
			</g>
			<g>
				<polygon class="st1" points="181.3,107.7 183,106 192.2,107.5 190.5,109.3 				"/>
			</g>
			<g>
				<path class="st1" d="M190.5,109.3l1.7-1.7c1,0.2,1.4,1.4,0.7,2.1l-1.7,1.7C191.9,110.6,191.4,109.5,190.5,109.3z"/>
			</g>
			<g>
				<path class="st1" d="M174.7,98.2c0.4,0,0.9,0.2,1.1,0.7l4.6,8.2c0.2,0.3,0.5,0.6,0.9,0.6l9.2,1.6c1,0.2,1.4,1.4,0.7,2.1
					l-6.3,6.6c-0.3,0.3-0.4,0.7-0.3,1l1.6,9.2c0.1,0.8-0.5,1.4-1.2,1.4c-0.2,0-0.4,0-0.5-0.1l-8.4-4.1c-0.2-0.1-0.4-0.1-0.5-0.1
					s-0.4,0-0.5,0.1l-8.2,4.1c-0.2,0.1-0.4,0.1-0.5,0.1c-0.7,0-1.4-0.6-1.3-1.4l1-9.2c0-0.4-0.1-0.8-0.4-1l-6.7-6.6
					c-0.7-0.7-0.4-1.9,0.6-2.1l9.1-1.6c0.4-0.1,0.7-0.3,0.9-0.6l4.1-8.2C173.8,98.4,174.3,98.2,174.7,98.2z"/>
				<g class="st0">
					<g>
						<g>
							<g>
								<defs>
									<path id="SVGID_1_" d="M174.7,98.2c0.4,0,0.9,0.2,1.1,0.7l4.6,8.2c0.2,0.3,0.5,0.6,0.9,0.6l9.2,1.6c1,0.2,1.4,1.4,0.7,2.1
										l-6.3,6.6c-0.3,0.3-0.4,0.7-0.3,1l1.6,9.2c0.1,0.8-0.5,1.4-1.2,1.4c-0.2,0-0.4,0-0.5-0.1l-8.4-4.1
										c-0.2-0.1-0.4-0.1-0.5-0.1s-0.4,0-0.5,0.1l-8.2,4.1c-0.2,0.1-0.4,0.1-0.5,0.1c-0.7,0-1.4-0.6-1.3-1.4l1-9.2
										c0-0.4-0.1-0.8-0.4-1l-6.7-6.6c-0.7-0.7-0.4-1.9,0.6-2.1l9.1-1.6c0.4-0.1,0.7-0.3,0.9-0.6l4.1-8.2
										C173.8,98.4,174.3,98.2,174.7,98.2z"/>
								</defs>
								<clipPath id="SVGID_2_">
									<use xlink:href="#SVGID_1_"  style="overflow:visible;"/>
								</clipPath>
								<g class="st2">
									<g>
										<g>
											<g>
												<polyline class="st3" points="225.1,37.8 120.6,37.8 125.3,190 229.7,190 225.1,37.8 												"/>
											</g>
										</g>
									</g>
								</g>
							</g>
						</g>
					</g>
				</g>
			</g>
		</g>
	</g>
</g>
</svg>
