<?xml version="1.0" encoding="utf-8"?>
<!-- Generator: Adobe Illustrator 23.0.0, SVG Export Plug-In . SVG Version: 6.00 Build 0)  -->
<svg version="1.1" id="Layer_1" xmlns="http://www.w3.org/2000/svg" xmlns:xlink="http://www.w3.org/1999/xlink" x="0px" y="0px"
	 viewBox="0 0 274.6 237" style="enable-background:new 0 0 274.6 237;" xml:space="preserve">
<style type="text/css">
	.st0{enable-background:new    ;}
	.st1{fill:#F28522;}
	.st2{clip-path:url(#SVGID_2_);}
	.st3{fill:#FFA959;}
</style>
<g>
	<g>
		<g class="st0">
			<g>
				<path class="st1" d="M107.7,132.5l2.7,1.7c-0.1-0.1-0.3-0.1-0.4-0.2l-2.7-1.7C107.4,132.4,107.5,132.4,107.7,132.5z"/>
			</g>
			<g>
				<polygon class="st1" points="101.5,132.6 98.8,130.8 107.3,132.3 110,134.1 				"/>
			</g>
			<g>
				<path class="st1" d="M101.1,132.4l-2.7-1.7c0.1,0.1,0.2,0.1,0.4,0.2l2.7,1.7C101.3,132.5,101.2,132.5,101.1,132.4z"/>
			</g>
			<g>
				<path class="st1" d="M85.1,153.4l-2.7-1.7c-0.4-0.2-0.6-0.7-0.5-1.2l2.7,1.7C84.5,152.8,84.8,153.2,85.1,153.4z"/>
			</g>
			<g>
				<polygon class="st1" points="84.6,152.3 81.9,150.5 83.6,141.7 86.3,143.4 				"/>
			</g>
			<g>
				<path class="st1" d="M86.3,143.4l-2.7-1.7c0.1-0.4,0-0.7-0.3-1l2.7,1.7C86.3,142.7,86.4,143.1,86.3,143.4z"/>
			</g>
			<g>
				<path class="st1" d="M93.9,121.9l2.7,1.7c-0.2-0.1-0.4-0.2-0.6-0.2l-2.7-1.7C93.5,121.7,93.7,121.7,93.9,121.9z"/>
			</g>
			<g>
				<path class="st1" d="M89.7,132.6l-2.7-1.7c0.4-0.1,0.7-0.3,0.9-0.6l2.7,1.7C90.3,132.3,90,132.5,89.7,132.6z"/>
			</g>
			<g>
				<polygon class="st1" points="90.5,131.9 87.8,130.2 92.2,122.3 95,124.1 				"/>
			</g>
			<g>
				<path class="st1" d="M95,124.1l-2.7-1.7c0.2-0.4,0.6-0.6,1.1-0.6l2.7,1.7C95.6,123.4,95.2,123.6,95,124.1z"/>
			</g>
			<g>
				<polygon class="st1" points="86.1,142.4 83.3,140.7 77.6,134.3 80.3,136.1 				"/>
			</g>
			<g>
				<polygon class="st1" points="81,134.1 78.3,132.3 87,130.8 89.7,132.6 				"/>
			</g>
			<g>
				<path class="st1" d="M80.3,136.1l-2.7-1.7c-0.6-0.7-0.2-1.8,0.7-2l2.7,1.7C80.1,134.2,79.7,135.4,80.3,136.1z"/>
			</g>
			<g>
				<path class="st1" d="M96,123.4c0.4,0,0.8,0.2,1,0.6l3.7,7.9c0.1,0.3,0.4,0.5,0.8,0.6l8.5,1.5c0.9,0.2,1.2,1.3,0.5,2l-6.4,6.4
					c-0.3,0.3-0.4,0.6-0.4,1l0.8,8.8c0.1,0.8-0.5,1.4-1.2,1.4c-0.2,0-0.3,0-0.5-0.1l-7.6-3.9c-0.2-0.1-0.3-0.1-0.5-0.1
					s-0.4,0-0.5,0.1l-8,3.9c-0.2,0.1-0.3,0.1-0.5,0.1c-0.7,0-1.2-0.6-1.1-1.4l1.7-8.8c0.1-0.4,0-0.7-0.3-1l-5.8-6.4
					c-0.6-0.7-0.2-1.8,0.7-2l8.6-1.5c0.4-0.1,0.7-0.3,0.9-0.6l4.4-7.9C95.2,123.6,95.6,123.4,96,123.4z"/>
				<g class="st0">
					<g>
						<g>
							<g>
								<defs>
									<path id="SVGID_1_" d="M96,123.4c0.4,0,0.8,0.2,1,0.6l3.7,7.9c0.1,0.3,0.4,0.5,0.8,0.6l8.5,1.5c0.9,0.2,1.2,1.3,0.5,2
										l-6.4,6.4c-0.3,0.3-0.4,0.6-0.4,1l0.8,8.8c0.1,0.8-0.5,1.4-1.2,1.4c-0.2,0-0.3,0-0.5-0.1l-7.6-3.9
										c-0.2-0.1-0.3-0.1-0.5-0.1s-0.4,0-0.5,0.1l-8,3.9c-0.2,0.1-0.3,0.1-0.5,0.1c-0.7,0-1.2-0.6-1.1-1.4l1.7-8.8
										c0.1-0.4,0-0.7-0.3-1l-5.8-6.4c-0.6-0.7-0.2-1.8,0.7-2l8.6-1.5c0.4-0.1,0.7-0.3,0.9-0.6l4.4-7.9
										C95.2,123.6,95.6,123.4,96,123.4z"/>
								</defs>
								<clipPath id="SVGID_2_">
									<use xlink:href="#SVGID_1_"  style="overflow:visible;"/>
								</clipPath>
								<g class="st2">
									<g>
										<g>
											<g>
												<polyline class="st3" points="150,62.4 48,62.4 40.6,214.6 142.6,214.6 150,62.4 												"/>
											</g>
										</g>
									</g>
								</g>
							</g>
						</g>
					</g>
				</g>
			</g>
		</g>
	</g>
</g>
</svg>
