<?xml version="1.0" encoding="utf-8"?>
<!-- Generator: Adobe Illustrator 23.0.0, SVG Export Plug-In . SVG Version: 6.00 Build 0)  -->
<svg version="1.1" id="Layer_1" xmlns="http://www.w3.org/2000/svg" xmlns:xlink="http://www.w3.org/1999/xlink" x="0px" y="0px"
	 viewBox="0 0 274.6 237" style="enable-background:new 0 0 274.6 237;" xml:space="preserve">
<style type="text/css">
	.st0{enable-background:new    ;}
	.st1{fill:#F28522;}
	.st2{clip-path:url(#SVGID_2_);}
	.st3{fill:#FFA959;}
</style>
<g>
	<g>
		<g class="st0">
			<g>
				<polygon class="st1" points="132.8,141.5 136.2,139.8 126.6,144.9 123.2,146.6 				"/>
			</g>
			<g>
				<path class="st1" d="M126.5,144.9l-3.4,1.7l0,0L126.5,144.9C126.6,144.9,126.6,144.9,126.5,144.9z"/>
			</g>
			<g>
				<path class="st1" d="M113.5,121.5l3.4-1.7c0.1-0.1,0.2-0.1,0.4-0.1l-3.4,1.7C113.7,121.4,113.6,121.5,113.5,121.5z"/>
			</g>
			<g>
				<path class="st1" d="M132.8,141.5l3.4-1.7l0,0L132.8,141.5L132.8,141.5z"/>
			</g>
			<g>
				<polygon class="st1" points="113.9,121.4 117.2,119.7 128,117.7 124.6,119.4 				"/>
			</g>
			<g>
				<path class="st1" d="M128.4,117.6l-3.4,1.7c-0.1,0.1-0.2,0.1-0.4,0.1l3.4-1.7C128.1,117.7,128.3,117.6,128.4,117.6z"/>
			</g>
			<g>
				<path class="st1" d="M149,144.9l-3.4,1.7c0.5-0.3,0.9-0.9,0.7-1.6l3.4-1.7C149.9,144,149.5,144.7,149,144.9z"/>
			</g>
			<g>
				<polygon class="st1" points="144.1,133.6 147.4,131.8 149.7,143.3 146.3,145.1 				"/>
			</g>
			<g>
				<path class="st1" d="M130.8,107.7l3.4-1.7c0.2-0.1,0.4-0.1,0.6-0.1l-3.4,1.7C131.2,107.6,131,107.6,130.8,107.7z"/>
			</g>
			<g>
				<path class="st1" d="M144.4,132.3l3.4-1.7c-0.3,0.3-0.4,0.8-0.3,1.3l-3.4,1.7C144,133.1,144.1,132.6,144.4,132.3z"/>
			</g>
			<g>
				<path class="st1" d="M131.4,107.6l3.4-1.7c0.5,0,1,0.3,1.3,0.8l-3.4,1.7C132.4,107.8,131.9,107.6,131.4,107.6z"/>
			</g>
			<g>
				<polygon class="st1" points="132.8,108.4 136.1,106.6 141.9,116.9 138.5,118.6 				"/>
			</g>
			<g>
				<path class="st1" d="M138.5,118.6l3.4-1.7c0.2,0.4,0.6,0.7,1.1,0.8l-3.4,1.7C139.2,119.4,138.8,119.1,138.5,118.6z"/>
			</g>
			<g>
				<polygon class="st1" points="151.6,124 155,122.2 147.8,130.6 144.4,132.3 				"/>
			</g>
			<g>
				<polygon class="st1" points="139.6,119.4 143,117.7 154,119.7 150.6,121.4 				"/>
			</g>
			<g>
				<path class="st1" d="M150.6,121.4l3.4-1.7c1.2,0.2,1.7,1.7,1,2.6l-3.4,1.7C152.4,123.1,151.8,121.6,150.6,121.4z"/>
			</g>
			<g>
				<path class="st1" d="M131.4,107.6c0.5,0,1,0.3,1.3,0.8l5.8,10.3c0.2,0.4,0.6,0.7,1.1,0.8l11,2c1.2,0.2,1.7,1.7,1,2.6l-7.2,8.3
					c-0.3,0.3-0.4,0.8-0.3,1.3l2.3,11.5c0.2,1-0.5,1.8-1.3,1.8c-0.2,0-0.4-0.1-0.7-0.2l-10.2-5.1c-0.2-0.1-0.4-0.2-0.7-0.2
					c-0.2,0-0.4,0.1-0.6,0.2l-9.6,5.1c-0.2,0.1-0.4,0.2-0.6,0.2c-0.8,0-1.6-0.8-1.6-1.8l0.9-11.5c0-0.5-0.1-0.9-0.5-1.3l-8.2-8.3
					c-0.9-0.9-0.5-2.4,0.6-2.6l10.8-2c0.4-0.1,0.8-0.4,1-0.8l4.5-10.3C130.4,107.8,130.9,107.6,131.4,107.6z"/>
				<g class="st0">
					<g>
						<g>
							<g>
								<defs>
									<path id="SVGID_1_" d="M131.4,107.6c0.5,0,1,0.3,1.3,0.8l5.8,10.3c0.2,0.4,0.6,0.7,1.1,0.8l11,2c1.2,0.2,1.7,1.7,1,2.6
										l-7.2,8.3c-0.3,0.3-0.4,0.8-0.3,1.3l2.3,11.5c0.2,1-0.5,1.8-1.3,1.8c-0.2,0-0.4-0.1-0.7-0.2l-10.2-5.1
										c-0.2-0.1-0.4-0.2-0.7-0.2c-0.2,0-0.4,0.1-0.6,0.2l-9.6,5.1c-0.2,0.1-0.4,0.2-0.6,0.2c-0.8,0-1.6-0.8-1.6-1.8l0.9-11.5
										c0-0.5-0.1-0.9-0.5-1.3l-8.2-8.3c-0.9-0.9-0.5-2.4,0.6-2.6l10.8-2c0.4-0.1,0.8-0.4,1-0.8l4.5-10.3
										C130.4,107.8,130.9,107.6,131.4,107.6z"/>
								</defs>
								<clipPath id="SVGID_2_">
									<use xlink:href="#SVGID_1_"  style="overflow:visible;"/>
								</clipPath>
								<g class="st2">
									<g>
										<g>
											<g>
												<polyline class="st3" points="177.9,51.1 78.2,51.1 87.3,203.3 187,203.3 177.9,51.1 												"/>
											</g>
										</g>
									</g>
								</g>
							</g>
						</g>
					</g>
				</g>
			</g>
		</g>
	</g>
</g>
</svg>
