<svg xmlns="http://www.w3.org/2000/svg" width="120" height="40">
  <g fill="none">
    <path fill="#A6A6A6" d="M110.135-.00011414H9.53468c-.3667 0-.729 0-1.09473.002-.30615.002-.60986.00781-.91895.0127-.67149.0079018-1.34139.0669763-2.0039.17671-.66158.112123-1.30243.323506-1.90088.627-.59772.30606-1.14387.70376-1.61865 1.17866-.47727.47357-.87511 1.02095-1.17822 1.62109-.30395.59895-.514709 1.24078-.625 1.90332-.1113391.6617-.1712516 1.33104-.1792 2.002-.00928.3066-.01026.61422-.01515.92086v23.11423c.00489.3105.00587.6113.01515.9219.0079508.671.0678634 1.3403.1792 2.0019.109986.663.320758 1.3052.625 1.9043.30298.5982.70087 1.1434 1.17822 1.6143.47297.477 1.01948.875 1.61865 1.1787.59845.3043 1.23923.517 1.90088.6308.66262.1089 1.33246.168 2.0039.1768.30909.0068.6128.0107.91895.0107.36572.002.72805.002 1.09473.002H110.135c.359 0 .724 0 1.084-.002.304 0 .617-.0039.922-.0107.67-.0083 1.338-.0674 2-.1768.663-.1146 1.307-.3272 1.908-.6308.598-.3039 1.144-.7018 1.617-1.1787.476-.4727.875-1.0175 1.182-1.6143.302-.5996.51-1.2417.619-1.9043.111-.6617.173-1.3309.185-2.0019.004-.3106.004-.6114.004-.9219.008-.3633.008-.7246.008-1.0938v-20.92864c0-.36621 0-.72949-.008-1.09179 0-.30664 0-.61426-.004-.9209-.012-.67102-.074-1.3402-.185-2.002-.109-.66216-.318-1.30394-.619-1.90332-.618-1.20292-1.596-2.18209-2.799-2.7998-.601-.302753-1.245-.51408-1.908-.627-.661-.1102172-1.33-.1693122-2-.17676-.305-.00488-.618-.01074-.922-.01269-.36-.002-.725-.002-1.084-.002v.00013z"/>
    <path fill="#000" d="M8.444867 39.125c-.30468 0-.602-.0039-.90429-.0107-.62622-.0082-1.25097-.0627-1.86914-.1631-.57641-.0993-1.1348-.2839-1.65674-.5479-.51716-.2618-.98885-.605-1.397-1.0166-.41406-.4067-.758783-.8785-1.02051-1.3965-.264611-.5214-.447737-1.0803-.543-1.6572-.1028756-.6199-.1585356-1.2467-.1665-1.875-.00634-.2109-.01464-.9131-.01464-.9131V8.44434s.00884-.69141.01469-.89454c.0076258-.62732.0629621-1.25315.16553-1.87207.095439-.57848.278707-1.13898.54346-1.6621.260765-.51769.60357-.98977 1.01514-1.39795.4111-.41206.8843-.757076 1.40234-1.02247.52074-.263116 1.07808-.446477 1.65332-.54394.6202-.1014339 1.24712-.1562739 1.87551-.16406L8.445357.875h102.76869l.913.0127c.623.0073992 1.244.06175 1.858.16259.581.098685 1.145.283326 1.671.54785 1.038.53485 1.883 1.38102 2.415 2.41993.261.51951.441 1.07544.535 1.64892.104.624.162 1.25475.174 1.88721.003.2832.003.5874.003.89014.008.375.008.73193.008 1.09179V30.4648c0 .3633 0 .7178-.008 1.0752 0 .3252 0 .6231-.004.9297-.011.6212-.069 1.2407-.171 1.8535-.093.5811-.275 1.1443-.54 1.67-.263.5124-.606.9801-1.015 1.3857-.409.4138-.881.759-1.4 1.0225-.525.266-1.087.4513-1.668.5498-.618.101-1.243.1555-1.869.1631-.293.0068-.599.0107-.897.0107l-1.084.002-101.69018-.002z"/>
    <g>
      <path fill="#fff" d="M24.76898 20.30057c.0219-1.69647.9113-3.26349 2.3566-4.15206-.916-1.308104-2.3951-2.1077383-3.9912-2.1576766-1.6792-.1762604-3.30718 1.0048266-4.16289 1.0048266-.87227 0-2.18977-.9873266-3.6085-.9581366-1.86668.0603086-3.56474 1.0958966-4.472917 2.7278666-1.934003 3.34842-.49141 8.26951 1.361197 10.97611.9269 1.3253 2.01018 2.8058 3.42763 2.7533 1.38706-.0576 1.9051-.8845 3.5794-.8845 1.65878 0 2.14478.8845 3.59098.8511 1.4884-.0242 2.4262-1.3312 3.3205-2.6691.666-.9444 1.1785-1.9881 1.5185-3.0926-1.7678-.74762-2.9172-2.47977-2.9193-4.39913zM22.03707 12.21083c.81152-.97421 1.21133-2.22639 1.11452-3.49062-1.23984.13022-2.38509.72278-3.20758 1.65961-.812176.92431-1.2236202 2.13355-1.14371481 3.36139 1.25645481.01294 2.44943481-.55112 3.23677481-1.53038z"/>
      <g>
        <path fill="#fff" fill-rule="evenodd" d="M37.5688 27.13962h4.7334l1.13574 3.35648H45.477l-4.48339-12.418H38.9106l-4.4834 12.418h2.00488l1.13672-3.35648zm4.24219-1.54882h-3.75195l1.85058-5.44727h.05176l1.84961 5.44727zM51.3813 30.59077c2.27246 0 3.77832-1.80761 3.77832-4.62109 0-2.80566-1.51465-4.62207102-3.8125-4.62207102-1.18213-.03808598-2.29004.57690402-2.88281 1.60058102h-.03418v-1.5058545H46.6313V33.4912h1.8584v-4.48441h.04297c.56738 1.03027 1.67383 1.64551 2.84863 1.58398zm-.52441-7.65918c1.44531 0 2.39257 1.20508 2.39257 3.03809 0 1.84961-.94726 3.0459-2.39257 3.0459-1.41993 0-2.375-1.22168-2.375-3.0459 0-1.80762.95507-3.03809 2.375-3.03809zM61.3462 30.59077c2.27246 0 3.77832-1.80761 3.77832-4.62109 0-2.80566-1.51465-4.62207102-3.8125-4.62207102-1.18262-.03808598-2.29004.57690402-2.88281 1.60058102h-.03418v-1.5058545H56.5962V33.4912h1.8584v-4.48441h.04297c.56738 1.03027 1.67383 1.64551 2.84863 1.58398zm-.52441-7.65918c1.44531 0 2.39257 1.20508 2.39257 3.03809 0 1.84961-.94726 3.0459-2.39257 3.0459-1.41993 0-2.375-1.22168-2.375-3.0459 0-1.80762.95507-3.03809 2.375-3.03809z" clip-rule="evenodd"/>
        <path fill="#fff" d="M71.71047 27.03619c.1377 1.23141 1.334 2.04001 2.96875 2.04001 1.56641 0 2.69336-.8086 2.69336-1.91896 0-.96387-.67969-1.541-2.28906-1.93652l-1.60937-.3877c-2.28027-.55078-3.33887-1.61719-3.33887-3.34766 0-2.14258 1.86719-3.61426 4.51855-3.61426 2.624 0 4.42285 1.47168 4.4834 3.61426h-1.876c-.1123-1.23926-1.13672-1.9873-2.63379-1.9873s-2.52148.75684-2.52148 1.8584c0 .87793.6543 1.39453 2.25488 1.79l1.36816.33594c2.54785.60254 3.60645 1.626 3.60645 3.44238 0 2.32322-1.85059 3.77832-4.79395 3.77832-2.75391 0-4.61328-1.4209-4.7334-3.667l1.90237.00009zM83.34619 19.2998v2.14258h1.72168v1.47168h-1.72168v4.99121c0 .77539.34473 1.13672 1.10156 1.13672.20439-.00356.40845-.01792.61133-.043v1.46291c-.34027.0636-.68613.0924-1.03223.0859-1.833 0-2.54785-.6885-2.54785-2.44432v-5.18942h-1.3164v-1.47168h1.31638V19.2998h1.86721z"/>
        <path fill="#fff" fill-rule="evenodd" d="M90.35885 21.3311c-2.61622 0-4.29395 1.79004-4.29395 4.63867 0 2.85645 1.66113 4.63867 4.29395 4.63867 2.63378 0 4.29492-1.78222 4.29492-4.63867 0-2.84863-1.66992-4.63867-4.29492-4.63867zm0 1.53125c1.50585 0 2.40136 1.15332 2.40136 3.10742 0 1.96192-.89551 3.10645-2.40136 3.10645-1.50586 0-2.4004-1.14453-2.4004-3.10645 0-1.94531.89454-3.10742 2.4004-3.10742z" clip-rule="evenodd"/>
        <path fill="#fff" d="M96.18601 21.4422295h1.77246V22.98323h.043c.24718-.992012 1.15613-1.674749 2.17773-1.63574054.21416-.00074776.42774.02251074.63672.06934004V23.15511c-.27037-.08262-.55241-.12055-.835-.1123-.54635-.02217-1.0751.19557-1.44741.59605-.37231.40047-.55098.94366-.48911 1.48695v5.37012H96.186l.00001-9.0537005z"/>
        <path fill="#fff" fill-rule="evenodd" d="M105.48555 30.60844c2.04786 0 3.64844-1.12793 3.89844-2.77148h-1.76465c-.33886.84009-1.18896 1.35791-2.09082 1.27344-.67627.0249-1.33056-.24195-1.79638-.73267-.46631-.49048-.69873-1.15771-.63916-1.83179v-.1123h6.39453v-.63672c0-2.74512-1.5752-4.46582-4.08008-4.46582-2.54688 0-4.19043 1.8418-4.19043 4.68164 0 2.83106 1.63477 4.5957 4.26855 4.5957zm2.14258-5.47363h-4.52636c-.00147-.61133.24121-1.19775.67382-1.62939.43311-.4314 1.02051-.67212 1.63184-.66846.60645-.01294 1.19092.22754 1.6123.66382.42188.43603.64209 1.02832.6084 1.63403z" clip-rule="evenodd"/>
      </g>
    </g>
    <g>
      <path fill="#fff" fill-rule="evenodd" d="M39.93164 9.548827c-.54394-.574463-1.3164-.8745117-2.10547-.81787106H35.6709V14.69775h2.15527c1.77735 0 2.80762-1.0957 2.80762-3.00195.09961-.78467-.1582-1.57275-.70215-2.146973zM37.72266 13.854h-1.125002V9.574218h1.125002c.56103-.03125 1.10644.189942 1.48681.602782.38086.41309.55713.97461.48096 1.53101.08252.55883-.09131 1.125-.47314 1.54126-.38184.41626-.93067.63842-1.49463.60473zM42.67919 10.428457c-.688966.42749-1.0756845 1.208743-.9985361 2.015873-.0791016.80786.3076171 1.59057.9975561 2.01904.68946.42847 1.5625.42847 2.25196 0 .68945-.42847 1.07617-1.21118.99755-2.01904.07715-.80713-.31005-1.588383-.99902-2.015873-.68896-.427491-1.56055-.427491-2.24951 0zm1.12646.468994c.76954 0 1.20801.570799 1.20801 1.546879 0 .97998-.43847 1.55029-1.20801 1.55029-.77246 0-1.207027-.56641-1.207027-1.55029 0-.97608.434567-1.546879 1.207027-1.546879z" clip-rule="evenodd"/>
      <path fill="#fff" d="M51.5732 14.69773h-.92187l-.93066-3.31641h-.07031l-.92676 3.31641h-.91309L46.5693 10.1948h.90137l.80664 3.436h.06641l.92578-3.436h.85254l.92578 3.436h.07031l.80273-3.436h.88867l-1.23633 4.50293zM53.85351 10.1948775h.85546v.7153305h.06641c.23093-.526673.77056-.8488431 1.34375-.80225053.44382-.03336827.87873.13688953 1.18193.46270253.30321.325812.4418.77182.37666 1.2121v2.915h-.88867v-2.69184c0-.72363-.31445-1.083503-.97168-1.083503-.30103-.01402-.59318.104123-.79985.323453-.206661.21934-.307235.51799-.27535.81766v2.63428h-.88867l.00001-4.5029325zM59.0938 8.43701h.88867v6.26074h-.88867V8.43701z"/>
      <path fill="#fff" fill-rule="evenodd" d="M62.21629 10.428457c-.688966.42749-1.0756845 1.208743-.9985361 2.015873-.0786133.8081.3081051 1.59057.9975561 2.01904.68946.42847 1.5625.42847 2.25196 0 .68945-.42847 1.07666-1.21094.99804-2.01904.07715-.80713-.31006-1.588383-.99902-2.015873-.68897-.427491-1.56104-.427491-2.25 0zm1.12646.468994c.76954 0 1.20801.570799 1.20801 1.546879 0 .97998-.43847 1.55029-1.20801 1.55029-.77246 0-1.207027-.56641-1.207027-1.55029 0-.97608.434567-1.546879 1.207027-1.546879zM68.0757 12.08007c-1.071284.0664-1.6748.53369-1.6748 1.34424.00146484.38427.165527.75.45166 1.00683.285645.25684.66699.38062 1.04932.34082.54541.02515 1.06201-.24487 1.35254-.70703h.07031v.63281h.85547v-3.07666c0-.951168-.63672-1.51318-1.76563-1.51318-1.021482 0-1.749022.496094-1.839842 1.26953h.860352c.09863-.318358.44238-.500487.93848-.500487.60742 0 .92187.268557.92187.744137v.38868l-1.21973.07031zm1.21973.58301v.37646c-.01953.28687-.1543.55371-.37451.73926-.21973.18555-.50537.27417-.7915.24512-.4834 0-.834965-.23584-.834965-.64112 0-.39697.281245-.60791.901365-.64941l1.09961-.07031zM73.21724 10.12012c-1.137695 0-1.86914.90136-1.86914 2.32421 0 1.42627.723633 2.32764 1.86914 2.32764.58057.02149 1.12549-.28125 1.41406-.78564h.07032v.71142h.85156V8.43701h-.88867v2.47314h-.06641c-.26855-.50878-.80615-.8164-1.38086-.79003zm.25195 3.854c-.75293 0-1.203121-.57471-1.203121-1.52979 0-.94726.455081-1.52587 1.203121-1.52587.74414 0 1.21192.5913 1.21192 1.52978 0 .94287-.46289 1.52588-1.21192 1.52588zM80.22849 10.428457c-.688966.42749-1.0756845 1.208743-.9985361 2.015873-.0791016.80786.3076171 1.59057.9975561 2.01904.68946.42847 1.5625.42847 2.25196 0 .68945-.42847 1.07617-1.21118.99755-2.01904.07715-.80713-.31005-1.588383-.99902-2.015873-.68896-.427491-1.56055-.427491-2.24951 0zm1.12646.468994c.76954 0 1.20801.570799 1.20801 1.546879 0 .97998-.43847 1.55029-1.20801 1.55029-.77246 0-1.207027-.56641-1.207027-1.55029 0-.97608.434567-1.546879 1.207027-1.546879z" clip-rule="evenodd"/>
      <path fill="#fff" d="M84.6694 10.1948775h.85547v.7153305h.06641c.23093-.526673.77056-.8488431 1.34375-.80225053.44382-.03336827.87873.13688953 1.18193.46270253.30321.325812.4418.77182.37666 1.2121v2.915h-.88867v-2.69184c0-.72363-.31445-1.083503-.97168-1.083503-.30103-.01402-.59318.104123-.79985.323453-.206661.21934-.307235.51799-.27535.81766v2.63428h-.88867v-4.5029325zM93.51509 9.07373v1.1416h.97559v.74854h-.97559v2.31543c0 .47168.19434.67822.63672.67822.11326-.00036.2264-.00721.33887-.02051v.74023c-.15959.02855-.32128.04374-.4834.04541-.98828 0-1.38184-.34766-1.38184-1.21582v-2.543h-.71484v-.74854h.71484V9.07373h.88965zM95.7046 8.43701h.88086v2.48145h.07031c.24203-.53128.7911-.85386 1.373-.80664.4413-.02401.87032.14999 1.17021.47462s.43941.76608.38057 1.20409v2.90723h-.88956v-2.688c0-.71924-.335-1.0835-.96289-1.0835-.30917-.02536-.61377.08704-.83237.30714-.218594.22011-.328898.52547-.30142.83446v2.62988h-.88867l-.00004-6.26073z"/>
      <path fill="#fff" fill-rule="evenodd" d="M102.81012 14.78466c.88037.09546 1.70215-.45337 1.95117-1.30274h-.85547c-.21289.38257-.63623.59815-1.07128.5459-.33497.00366-.65625-.13403-.88477-.37964-.22852-.2456-.342286-.57617-.314454-.9104v-.0498H104.815v-.31006c0-1.414063-.75586-2.27002-2.00879-2.27002-.60156-.00512695-1.176265.251221-1.574702.702637-.398438.451413-.5810549 1.053223-.501465 1.649903-.0820313.59497.101562 1.19604.502441 1.6438.400391.44751.977536.69629 1.577636.68042zm1.09961-2.75391h-2.274414c-.003906-.31055.117674-.60937.336914-.8291.21973-.219482.51856-.341309.8291-.337402.30664-.00708.60156.115722.8125.337892.21094.22217.31885.52295.2959.82861z" clip-rule="evenodd"/>
    </g>
  </g>
</svg>
