<svg xmlns="http://www.w3.org/2000/svg" width="108" height="108">
  <defs>
    <linearGradient id="a" x1="0%" y1="50%" y2="50%">
      <stop offset="0%" stop-color="#FFB347"/>
      <stop offset="100%" stop-color="#F56945"/>
    </linearGradient>
  </defs>
  <g fill="none" fill-rule="evenodd">
    <rect width="108" height="108" fill="url(#a)" rx="37.8"/>
    <path fill="#FFF" d="M74.8 70H33.2c-1.7664 0-3.2-1.4336-3.2-3.2V41.2c0-1.7664 1.4336-3.2 3.2-3.2h41.6c1.7664 0 3.2 1.4336 3.2 3.2v25.6c0 1.7664-1.4336 3.2-3.2 3.2zm-5.3555556-23C70.3046667 47 71 46.328 71 45.5s-.6953333-1.5-1.5555556-1.5H58.5555556C57.6953333 44 57 44.672 57 45.5s.6953333 1.5 1.5555556 1.5h10.8888888zM50.4 55c.8848 0 1.6-.7024286 1.6-1.5714286v-7.8571428C52 44.704 51.2848 44 50.4 44H37.6c-.8848 0-1.6.704-1.6 1.5714286v7.8571428C36 54.2975714 36.7152 55 37.6 55h12.8zm19.0444444 0C70.3046667 55 71 54.3295 71 53.5s-.6953333-1.5-1.5555556-1.5H58.5555556C57.6953333 52 57 52.6705 57 53.5s.6953333 1.5 1.5555556 1.5h10.8888888zm-.0353535 8C70.2888636 63 71 62.3295 71 61.5s-.7111364-1.5-1.5909091-1.5H37.5909091C36.7111364 60 36 60.6705 36 61.5s.7111364 1.5 1.5909091 1.5h31.8181818z"/>
  </g>
</svg>
