<svg xmlns="http://www.w3.org/2000/svg" width="108" height="108">
  <g fill="none">
    <path fill="url(#paint0_linear)" fill-rule="evenodd" d="M0 54c0-15.0817 0-22.6225 2.12121-28.6845C5.92057 14.4575 14.4575 5.92057 25.3155 2.12121 31.3775 0 38.9183 0 54 0c15.0816 0 22.6225 0 28.6845 2.12121C93.5425 5.92057 102.079 14.4575 105.879 25.3155 108 31.3775 108 38.9183 108 54c0 15.0816 0 22.6225-2.121 28.6845-3.8 10.858-12.3365 19.3945-23.1945 23.1945C76.6225 108 69.0816 108 54 108c-15.0817 0-22.6225 0-28.6845-2.121-10.858-3.8-19.39493-12.3365-23.19429-23.1945C0 76.6225 0 69.0816 0 54z" clip-rule="evenodd"/>
    <path fill="#fff" fill-rule="evenodd" d="M63 43.4c0 .3318-.2774.6-.6207.6H45.6207c-.3426 0-.6207-.2682-.6207-.6v-4.2c0-.6624.5561-1.2 1.2414-1.2h15.5172C62.4439 38 63 38.5376 63 39.2v4.2zM59.4783 57H48.5217C47.6811 57 47 56.3286 47 55.5s.6811-1.5 1.5217-1.5h10.9566C60.3189 54 61 54.6714 61 55.5s-.6811 1.5-1.5217 1.5zm11.564-12.8413h-3.7184c-.342 0-.6197-.28378-.6197-.63489v-5.07937c0-2.4546-1.9422-4.44444-4.338-4.44444H45.6338c-2.3952 0-4.33803 1.98984-4.33803 4.44444v5.07937c0 .35111-.27701.63489-.61971.63489h-3.71831C34.21983 44.1587 32 46.433 32 49.2381v19.6825C32 71.7257 34.21983 74 36.95775 74H71.0423C73.7808 74 76 71.7257 76 68.9206V49.2381c0-2.8051-2.2192-5.0794-4.9577-5.0794z" clip-rule="evenodd"/>
  </g>
  <defs>
    <linearGradient id="paint0_linear" x2="1" gradientTransform="matrix(108 0 0 108 0 54)" gradientUnits="userSpaceOnUse">
      <stop stop-color="#FFB347"/>
      <stop offset="1" stop-color="#F56945"/>
    </linearGradient>
  </defs>
</svg>
