<svg xmlns="http://www.w3.org/2000/svg" width="108" height="108">
  <g fill="none">
    <path fill="url(#paint0_linear)" fill-rule="evenodd" d="M0 54c0-15.0817 0-22.6225 2.12121-28.6845C5.92057 14.4575 14.4575 5.92057 25.3155 2.12121 31.3775 0 38.9183 0 54 0c15.0816 0 22.6225 0 28.6845 2.12121C93.5425 5.92057 102.079 14.4575 105.879 25.3155 108 31.3775 108 38.9183 108 54c0 15.0816 0 22.6225-2.121 28.6845-3.8 10.858-12.3365 19.3945-23.1945 23.1945C76.6225 108 69.0816 108 54 108c-15.0817 0-22.6225 0-28.6845-2.121-10.858-3.8-19.39493-12.3365-23.19429-23.1945C0 76.6225 0 69.0816 0 54z" clip-rule="evenodd"/>
    <path fill="#fff" fill-rule="evenodd" d="M69.9702 61.0251h2.9922c1.1401 0 1.9849.9166 2.0356 2.0093.0508 1.0874-.9668 2.0139-2.0966 2.0139-.4834.0052-.9615.0052-1.4453.0052H36.0376c-1.140139 0-1.9848656-.9265-2.03564688-2.0191-.05078122-1.0879.97167988-2.0193 2.09667688-2.0141.4834-.0052.96143.0048 1.44532.0048h1.48584V50.5872c0-.7806-.01026-1.5608-.01026-2.3414 0-2.3464.55469-4.6474 1.60303-6.75215 1.10937-2.23071 2.80908-4.11889 4.81934-5.58911 1.9336-1.41504 4.2744-2.376708 6.6665-2.719237 1.4097-.2014163 2.8091-.2565921 4.2236-.07544 1.6079.206543 3.1143.624268 4.6006 1.279057 2.6509 1.17309 4.8955 3.14697 6.5083 5.52856 1.6489 2.44214 2.5396 5.37252 2.5498 8.30812 0 .0857-.0053.1662-.0205.2468v12.5527zm-9.2544 7.6626c.0098.0572.0161.1155.0181.1773.0054.0117.0054.0234.0054.0351v.1058c-.0308 1.6718-.5601 3.2263-1.4864 4.5112-1.5874 2.2058-4.417 3.074-6.7426 2.0649-2.4273-1.0559-4.066-3.6782-4.0865-6.6819-.0049-.6921.5142-1.2788 1.1094-1.2788h10.0913c.4937 0 .8804.3521 1.0381.8506.0229.0725.041.1431.0532.2158z" clip-rule="evenodd"/>
  </g>
  <defs>
    <linearGradient id="paint0_linear" x2="1" gradientTransform="matrix(108 0 0 108 0 54)" gradientUnits="userSpaceOnUse">
      <stop stop-color="#FFB347"/>
      <stop offset="1" stop-color="#F56945"/>
    </linearGradient>
  </defs>
</svg>
