<svg width="108" height="108" viewBox="0 0 108 108" version="1.1" xmlns="http://www.w3.org/2000/svg" xmlns:xlink="http://www.w3.org/1999/xlink">
<g id="Canvas" fill="none">
<g id="Group 2">
<g id="Rectangle 3">
<path fill-rule="evenodd" clip-rule="evenodd" d="M 0 54C 0 38.9184 0 31.3775 2.12121 25.3155C 5.92056 14.4575 14.4575 5.92056 25.3155 2.12121C 31.3775 0 38.9184 0 54 0C 69.0816 0 76.6225 0 82.6845 2.12121C 93.5425 5.92056 102.079 14.4575 105.879 25.3155C 108 31.3775 108 38.9184 108 54C 108 69.0816 108 76.6225 105.879 82.6845C 102.079 93.5425 93.5425 102.079 82.6845 105.879C 76.6225 108 69.0816 108 54 108C 38.9184 108 31.3775 108 25.3155 105.879C 14.4575 102.079 5.92056 93.5425 2.12121 82.6845C 0 76.6225 0 69.0816 0 54Z" fill="url(#paint0_linear)"/>
</g>
<g id="Combined Shape">
<path fill-rule="evenodd" clip-rule="evenodd" d="M 21.2856 20.6729L 17.0898 1.82812C 16.9233 1.08203 17.4277 0.356934 18.1841 0.241943C 21.2417 -0.223389 24.4014 -0.0163574 27.4077 0.854736C 30.9253 1.87427 34.1528 3.78076 36.7412 6.36768C 39.3911 9.01587 41.3027 12.3213 42.2695 15.9272C 43.043 18.8149 43.2031 21.8564 42.7451 24.8071C 42.6289 25.5552 41.8984 26.0464 41.1592 25.8816L 22.2827 21.6697C 21.7847 21.5586 21.3965 21.1702 21.2856 20.6729ZM 39.9849 29.8694L 35.8599 28.9177C 35.6787 28.876 35.4951 28.8738 35.3203 28.907C 34.9653 28.9744 34.645 29.1873 34.4463 29.5085C 33.8262 30.5125 33.0913 31.4465 32.2554 32.282C 29.374 35.1616 25.542 36.748 21.4668 36.7498C 18.5371 36.751 15.6997 35.918 13.2666 34.3694C 12.7456 34.0381 12.0654 34.1094 11.6289 34.5459L 8.74951 37.4231C 8.31885 37.8535 8.37842 38.5659 8.87207 38.9221C 10.9902 40.4504 13.3838 41.593 15.9102 42.27C 21.4258 43.7451 27.2178 42.9692 32.2197 40.0837C 35.8652 37.9797 38.77 34.9231 40.6421 31.2781C 40.9351 30.7078 40.6099 30.0137 39.9849 29.8694ZM 8.64648 29.7847C 8.98438 30.3047 8.91309 30.9893 8.47461 31.4277L 5.60059 34.2993C 5.17285 34.7271 4.4624 34.6726 4.10596 34.1836C 1.44434 30.5354 0 26.1133 0 21.4932C 0 15.7207 2.22363 10.3201 6.26172 6.28491C 7.85449 4.69312 9.69775 3.35986 11.7012 2.3374C 12.2725 2.0459 12.9668 2.37012 13.1108 2.99463L 14.0566 7.08838C 14.1836 7.63818 13.9448 8.20654 13.4639 8.50195C 12.4507 9.12451 11.5078 9.86401 10.6655 10.7058C 7.87402 13.4956 6.28955 17.2097 6.20459 21.1646C 6.13867 24.2546 6.99609 27.2415 8.64648 29.7847Z" transform="translate(33 33)" fill="white"/>
</g>
</g>
</g>
<defs>

<linearGradient id="paint0_linear" x2="1" gradientUnits="userSpaceOnUse" gradientTransform="translate(0 54) scale(108)">
<stop stop-color="#FFB347"/>
<stop offset="1" stop-color="#F56945"/>
</linearGradient>

</defs>
</svg>

