<?xml version="1.0" encoding="UTF-8"?>
<svg width="108px" height="108px" viewBox="0 0 108 108" version="1.1" xmlns="http://www.w3.org/2000/svg" xmlns:xlink="http://www.w3.org/1999/xlink">
    <!-- Generator: Sketch 49.2 (51160) - http://www.bohemiancoding.com/sketch -->
    <title>Group 4</title>
    <desc>Created with Sketch.</desc>
    <defs>
        <linearGradient x1="-1.11022302e-14%" y1="50%" x2="100%" y2="50%" id="linearGradient-1">
            <stop stop-color="#FFB347" offset="0%"></stop>
            <stop stop-color="#F56945" offset="100%"></stop>
        </linearGradient>
    </defs>
    <g id="LANDING" stroke="none" stroke-width="1" fill="none" fill-rule="evenodd">
        <g id="Desktop_all-in-one-light" transform="translate(-549.000000, -1825.000000)">
            <g id="Features" transform="translate(0.000000, 663.000000)">
                <g id="news" transform="translate(217.000000, 1086.000000)">
                    <g id="right" transform="translate(332.000000, 76.000000)">
                        <g id="Group-4">
                            <rect id="Rectangle-3-Copy" fill="url(#linearGradient-1)" x="0" y="0" width="108" height="108" rx="37.8"></rect>
                            <path d="M74.8,70 L33.2,70 C31.4336,70 30,68.5664 30,66.8 L30,41.2 C30,39.4336 31.4336,38 33.2,38 L74.8,38 C76.5664,38 78,39.4336 78,41.2 L78,66.8 C78,68.5664 76.5664,70 74.8,70 Z M69.4444444,47 C70.3046667,47 71,46.328 71,45.5 C71,44.672 70.3046667,44 69.4444444,44 L58.5555556,44 C57.6953333,44 57,44.672 57,45.5 C57,46.328 57.6953333,47 58.5555556,47 L69.4444444,47 Z M50.4,55 C51.2848,55 52,54.2975714 52,53.4285714 L52,45.5714286 C52,44.704 51.2848,44 50.4,44 L37.6,44 C36.7152,44 36,44.704 36,45.5714286 L36,53.4285714 C36,54.2975714 36.7152,55 37.6,55 L50.4,55 Z M69.4444444,55 C70.3046667,55 71,54.3295 71,53.5 C71,52.6705 70.3046667,52 69.4444444,52 L58.5555556,52 C57.6953333,52 57,52.6705 57,53.5 C57,54.3295 57.6953333,55 58.5555556,55 L69.4444444,55 Z M69.4090909,63 C70.2888636,63 71,62.3295 71,61.5 C71,60.6705 70.2888636,60 69.4090909,60 L37.5909091,60 C36.7111364,60 36,60.6705 36,61.5 C36,62.3295 36.7111364,63 37.5909091,63 L69.4090909,63 Z" id="Combined-Shape" fill="#FFFFFF"></path>
                        </g>
                    </g>
                </g>
            </g>
        </g>
    </g>
</svg>