<svg width="108" height="108" viewBox="0 0 108 108" version="1.1" xmlns="http://www.w3.org/2000/svg" xmlns:xlink="http://www.w3.org/1999/xlink">
<g id="Canvas" fill="none">
<g id="Group 4">
<g id="Rectangle 3 Copy">
<path fill-rule="evenodd" clip-rule="evenodd" d="M 0 54C 0 38.9183 0 31.3775 2.12121 25.3155C 5.92057 14.4575 14.4575 5.92057 25.3155 2.12121C 31.3775 0 38.9183 0 54 0C 69.0816 0 76.6225 0 82.6845 2.12121C 93.5425 5.92057 102.079 14.4575 105.879 25.3155C 108 31.3775 108 38.9183 108 54C 108 69.0816 108 76.6225 105.879 82.6845C 102.079 93.5425 93.5425 102.079 82.6845 105.879C 76.6225 108 69.0816 108 54 108C 38.9183 108 31.3775 108 25.3155 105.879C 14.4575 102.079 5.92057 93.5425 2.12121 82.6845C 0 76.6225 0 69.0816 0 54Z" fill="url(#paint0_linear)"/>
</g>
<g id="Fill 1">
<path fill-rule="evenodd" clip-rule="evenodd" d="M 31 9.4C 31 9.7318 30.7226 10 30.3793 10L 13.6207 10C 13.2781 10 13 9.7318 13 9.4L 13 5.2C 13 4.5376 13.5561 4 14.2414 4L 29.7586 4C 30.4439 4 31 4.5376 31 5.2L 31 9.4ZM 27.4783 23L 16.5217 23C 15.6811 23 15 22.3286 15 21.5C 15 20.6714 15.6811 20 16.5217 20L 27.4783 20C 28.3189 20 29 20.6714 29 21.5C 29 22.3286 28.3189 23 27.4783 23ZM 39.0423 10.1587L 35.3239 10.1587C 34.9819 10.1587 34.7042 9.87492 34.7042 9.52381L 34.7042 4.44444C 34.7042 1.98984 32.762 0 30.3662 0L 13.6338 0C 11.2386 0 9.29577 1.98984 9.29577 4.44444L 9.29577 9.52381C 9.29577 9.87492 9.01876 10.1587 8.67606 10.1587L 4.95775 10.1587C 2.21983 10.1587 0 12.433 0 15.2381L 0 34.9206C 0 37.7257 2.21983 40 4.95775 40L 39.0423 40C 41.7808 40 44 37.7257 44 34.9206L 44 15.2381C 44 12.433 41.7808 10.1587 39.0423 10.1587Z" transform="translate(32 34)" fill="white"/>
</g>
</g>
</g>
<defs>

<linearGradient id="paint0_linear" x2="1" gradientUnits="userSpaceOnUse" gradientTransform="translate(0 54) scale(108)">
<stop stop-color="#FFB347"/>
<stop offset="1" stop-color="#F56945"/>
</linearGradient>

</defs>
</svg>

