<svg width="108" height="108" viewBox="0 0 108 108" version="1.1" xmlns="http://www.w3.org/2000/svg" xmlns:xlink="http://www.w3.org/1999/xlink">
<g id="Canvas" fill="none">
<g id="Group 5">
<g id="Rectangle 3">
<path fill-rule="evenodd" clip-rule="evenodd" d="M 0 54C 0 38.9183 0 31.3775 2.12121 25.3155C 5.92057 14.4575 14.4575 5.92057 25.3155 2.12121C 31.3775 0 38.9183 0 54 0C 69.0816 0 76.6225 0 82.6845 2.12121C 93.5425 5.92057 102.079 14.4575 105.879 25.3155C 108 31.3775 108 38.9183 108 54C 108 69.0816 108 76.6225 105.879 82.6845C 102.079 93.5425 93.5425 102.079 82.6845 105.879C 76.6225 108 69.0816 108 54 108C 38.9183 108 31.3775 108 25.3155 105.879C 14.4575 102.079 5.92057 93.5425 2.12121 82.6845C 0 76.6225 0 69.0816 0 54Z" fill="url(#paint0_linear)"/>
</g>
<g id="Combined Shape">
<path fill-rule="evenodd" clip-rule="evenodd" d="M 35.9702 28.0251L 38.9624 28.0251C 40.1025 28.0251 40.9473 28.9417 40.998 30.0344C 41.0488 31.1218 40.0312 32.0483 38.9014 32.0483C 38.418 32.0535 37.9399 32.0535 37.4561 32.0535L 2.0376 32.0535C 0.897461 32.0535 0.0527344 31.127 0.00195312 30.0344C -0.0488281 28.9465 0.973633 28.0151 2.09863 28.0203C 2.58203 28.0151 3.06006 28.0251 3.54395 28.0251L 5.02979 28.0251L 5.02979 17.5872C 5.02979 16.8066 5.01953 16.0264 5.01953 15.2458C 5.01953 12.8994 5.57422 10.5984 6.62256 8.49365C 7.73193 6.26294 9.43164 4.37476 11.4419 2.90454C 13.3755 1.4895 15.7163 0.527832 18.1084 0.185303C 19.5181 -0.0161133 20.9175 -0.0712891 22.332 0.109863C 23.9399 0.316406 25.4463 0.734131 26.9326 1.38892C 29.5835 2.56201 31.8281 4.53589 33.4409 6.91748C 35.0898 9.35962 35.9805 12.29 35.9907 15.2256C 35.9907 15.3113 35.9854 15.3918 35.9702 15.4724L 35.9702 28.0251ZM 26.7158 35.6877C 26.7256 35.7449 26.7319 35.8032 26.7339 35.865C 26.7393 35.8767 26.7393 35.8884 26.7393 35.9001L 26.7393 36.0059C 26.7085 37.6777 26.1792 39.2322 25.2529 40.5171C 23.6655 42.7229 20.8359 43.5911 18.5103 42.582C 16.083 41.5261 14.4443 38.9038 14.4238 35.9001C 14.4189 35.208 14.938 34.6213 15.5332 34.6213L 25.6245 34.6213C 26.1182 34.6213 26.5049 34.9734 26.6626 35.4719C 26.6855 35.5444 26.7036 35.615 26.7158 35.6877Z" transform="translate(34 33)" fill="white"/>
</g>
</g>
</g>
<defs>

<linearGradient id="paint0_linear" x2="1" gradientUnits="userSpaceOnUse" gradientTransform="translate(0 54) scale(108)">
<stop stop-color="#FFB347"/>
<stop offset="1" stop-color="#F56945"/>
</linearGradient>

</defs>
</svg>

